<svg width="1336" height="369" viewBox="0 0 1336 369" fill="none" xmlns="http://www.w3.org/2000/svg">
<g opacity="0.52" clip-path="url(#clip0_44_4404)">
<path d="M-293.676 9.00012C299.455 9.00007 892.585 9.00002 1485.72 8.99997" stroke="url(#paint0_linear_44_4404)" stroke-opacity="0.2" stroke-miterlimit="10"/>
<path d="M-293.676 19.0979C6.67076 19.0232 306.869 20.8283 607.141 22.8708C737.061 23.7598 867.871 23.468 997.779 21.595C1160.4 19.2538 1323.09 21.4593 1485.67 19.0977" stroke="url(#paint1_linear_44_4404)" stroke-opacity="0.3" stroke-miterlimit="10"/>
<path d="M-293.676 29.0462C-208.574 29.0462 -123.447 28.6865 -38.3577 28.863C37.6865 29.019 113.558 32.4053 189.577 32.9889C331.187 34.0746 472.772 32.8124 614.37 34.095C740.052 35.235 867.031 38.2548 992.626 33.6471C1065.83 30.9326 1138.28 29.6976 1211.54 28.5779C1302.98 27.1799 1394.31 30.9733 1485.72 29.0461" stroke="url(#paint2_linear_44_4404)" stroke-opacity="0.4" stroke-miterlimit="10"/>
<path d="M-293.676 38.8587C-209.797 38.8587 -125.696 38.0851 -41.8423 38.9198C36.9575 39.707 115.3 45.224 194.038 46.6423C335.92 49.2006 476.689 41.8921 618.423 43.195C743.141 44.3214 866.092 53.469 990.946 45.285C1063.93 40.5009 1134.64 36.755 1208.15 35.6624C1300.83 34.3052 1393.05 40.908 1485.72 38.8586" stroke="url(#paint3_linear_44_4404)" stroke-opacity="0.7" stroke-miterlimit="10"/>
<path d="M-293.676 48.4814C-211.317 48.4814 -128.353 47.2463 -46.056 48.9496C36.2408 50.6529 117.364 58.4908 199.413 61.022C274 63.3224 347.535 62.7049 421.726 57.6968C488.218 53.2044 552.808 49.9607 619.844 50.4492C678.601 50.8835 733.651 55.7831 791.679 60.3501C858.085 65.5821 926.455 63.1391 992.243 56.4752C1064.65 49.1327 1132.95 42.1091 1206.89 41.3084C1300.16 40.2905 1392.38 50.2388 1485.72 48.4812" stroke="url(#paint4_linear_44_4404)" stroke-opacity="0.8" stroke-miterlimit="10"/>
<path d="M-293.676 57.9682C-213.096 57.9682 -131.294 56.3057 -50.8505 58.9658C35.1039 61.8023 119.6 72.0764 205.369 75.9309C279.011 79.2831 353.144 76.9854 425.631 69.1041C490.344 62.1688 552.907 55.9731 619.053 56.2581C680.306 56.5227 735.727 65.0392 795.188 71.9271C862.681 79.7446 929.47 76.7791 995.938 67.299C1067.18 57.1199 1132.94 46.1536 1207.39 45.8618C1300.82 45.4886 1392.12 59.1082 1485.72 57.9613" stroke="url(#paint5_linear_44_4404)" stroke-opacity="0.9" stroke-miterlimit="10"/>
<path d="M-293.676 67.3059C-214.999 67.3466 -134.395 65.27 -55.991 68.9006C34.0165 73.0333 121.948 85.7842 211.622 91.1113C286.875 95.5765 356.42 91.4234 429.004 80.2061C491.147 70.597 551.337 60.9744 616.52 60.954C680.973 60.954 738.309 73.7457 799.476 83.0833C869.156 93.7171 933.412 90.6226 1001.5 77.7766C1070.8 64.7067 1134.42 49.2752 1209.28 49.6145C1302.57 50.0759 1392.16 67.6179 1485.72 67.3057" stroke="url(#paint6_linear_44_4404)" stroke-miterlimit="10"/>
<path d="M-293.676 76.4941C-216.989 76.5552 -137.596 74.2479 -61.3662 78.7132C32.7685 84.2234 123.987 99.4377 217.788 106.305C294.092 111.89 360.325 105.918 431.735 90.9755C490.653 78.6452 548.52 65.2835 612.64 64.8628C680.405 64.4149 741.497 81.984 804.172 93.812C876.546 107.472 938.343 104.568 1008.28 87.9217C1074.89 72.0695 1136.99 51.7181 1212.17 52.8582C1305.13 54.2697 1392.36 75.8425 1485.69 76.494" stroke="url(#paint7_linear_44_4404)" stroke-miterlimit="10"/>
<path d="M-293.676 85.5332C-218.954 85.6146 -140.796 83.1581 -66.6303 88.363C31.5328 95.2508 126.051 112.854 223.756 121.255C301.605 127.953 364.081 120.285 433.984 101.406C489.269 86.4764 544.8 69.233 608.031 68.3237C679.107 67.3126 745.105 90.1341 809.225 104.161C842.811 111.469 878.214 118.317 914.827 116.742C950.662 115.195 984.594 106.909 1015.93 97.7412C1079.1 79.3035 1140.64 53.9236 1215.8 55.8644C1308.36 58.2599 1392.67 83.8501 1485.73 85.5127" stroke="url(#paint8_linear_44_4404)" stroke-miterlimit="10"/>
<path d="M-293.615 94.4162C-220.709 94.518 -143.825 92.0003 -71.685 97.8092C30.2221 105.993 127.693 125.87 229.02 135.723C308.647 143.473 367.516 134.25 435.528 111.483C487.093 94.2193 540.302 73.1215 602.964 71.6896C677.105 69.9999 748.775 98.1892 814.118 114.143C848.346 122.504 886.097 131.319 924.329 129.378C960.164 127.559 993.737 117.624 1023.7 107.323C1083.45 86.775 1144.36 56.2717 1219.71 58.9929C1311.87 62.3316 1392.93 91.8102 1485.74 94.416" stroke="url(#paint9_linear_44_4404)" stroke-miterlimit="10"/>
<path d="M-293.601 103.143C-222.438 103.265 -146.69 100.748 -76.3921 106.984C28.8391 116.328 128.93 138.302 233.395 149.471C273.172 153.719 310.873 156.176 349.834 148.725C381.579 142.651 409.505 131.99 436.443 121.214C484.635 101.949 535.508 77.2406 598.022 75.3066C674.881 72.9247 752.31 106.224 818.715 123.806C853.537 133.029 893.611 143.71 933.301 141.45C969.296 139.414 1002.43 127.966 1031.11 116.661C1087.68 94.3753 1147.85 59.1014 1223.61 62.5148C1315.44 66.6611 1393.14 99.7906 1485.79 103.177" stroke="url(#paint10_linear_44_4404)" stroke-miterlimit="10"/>
<path d="M-293.589 111.727C-223.921 111.856 -149.199 109.352 -80.5195 115.874C27.3808 126.12 129.374 149.98 236.472 162.202C276.384 166.755 313.974 169.578 352.737 161.123C384.186 154.222 410.988 142.38 436.616 130.545C481.978 109.624 530.726 81.8143 593.548 79.4731C633.696 77.9734 674.066 89.4758 708.739 99.2137C747.206 110.017 784.19 122.327 822.645 133.144C857.986 143.079 899.999 155.267 941.024 152.722C977.279 150.476 1009.89 137.86 1037.54 125.713C1091.52 101.962 1150.56 62.6979 1227.05 66.6746C1318.71 71.4248 1393.16 107.852 1485.8 111.754" stroke="url(#paint11_linear_44_4404)" stroke-miterlimit="10"/>
<path d="M-293.577 120.156C-225.157 120.285 -151.225 117.774 -83.868 124.417C25.9352 135.241 129.115 160.729 238.004 173.711C277.731 178.461 315.605 181.495 353.973 172.435C385.384 165.018 411.383 152.159 436.085 139.509C479.556 117.258 526.463 87.1414 590.051 84.5424C631.299 82.873 672.843 95.3322 708.06 105.633C747.812 117.271 785.908 130.518 825.66 142.169C861.495 152.681 904.744 165.826 946.869 163.145C983.507 160.811 1015.56 147.408 1042.46 134.562C1094.77 109.596 1152.01 67.5161 1229.72 71.7574C1321.38 76.7587 1392.99 116.111 1485.81 120.128" stroke="url(#paint12_linear_44_4404)" stroke-miterlimit="10"/>
<path d="M-293.552 128.435C-226.096 128.543 -152.622 125.985 -86.253 132.574C24.477 143.568 127.941 170.393 237.67 183.727C276.854 188.478 315.432 191.572 353.256 182.452C384.927 174.817 410.568 161.266 434.812 148.08C477.591 124.777 523.114 93.4525 588.037 90.9281C630.199 89.2858 671.854 101.874 707.565 112.643C748.158 124.858 786.958 138.783 827.538 151.012C863.83 161.951 907.265 175.306 950.254 172.646C987.325 170.352 1018.84 156.705 1045.4 143.31C1097.3 117.149 1151.81 74.0036 1231.34 78.2042C1323.23 83.0562 1392.68 124.831 1485.89 128.421" stroke="url(#paint13_linear_44_4404)" stroke-miterlimit="10"/>
<path d="M-293.54 136.578C-226.331 136.809 -153.091 133.931 -87.0068 140.65C22.9694 151.853 125.111 179.479 233.976 193.126C273.048 198.019 311.601 200.95 349.401 191.938C381.529 184.263 407.676 170.549 432.279 157.201C475.849 133.558 521.854 101.833 587.629 98.8745C630.088 96.9677 671.496 109.4 707.368 120.339C748.022 132.744 786.748 146.94 827.39 159.352C863.855 170.494 907.067 183.666 950.378 180.816C987.696 178.36 1019.02 164.686 1045.64 151.141C1097.75 124.614 1151.21 82.0383 1231.37 85.9945C1323.53 90.5276 1392.26 133.443 1485.85 136.578" stroke="url(#paint14_linear_44_4404)" stroke-miterlimit="10"/>
<path d="M-293.527 144.538C-226.034 144.959 -153.017 141.328 -86.698 148.515C21.3259 160.221 121.169 188.301 228.044 202.43C267.586 207.662 305.126 210.383 343.47 201.31C376.178 193.581 403.252 180.009 428.757 166.776C473.773 143.391 521.718 111.347 587.493 107.31C629.692 104.717 671.248 117.183 706.811 128.116C746.971 140.46 785.117 154.67 825.265 167.027C861.656 178.231 904.868 191.301 948.117 187.914C985.323 185.003 1017.11 171.132 1044.09 157.737C1096.47 131.746 1151.49 89.9713 1230.68 93.8122C1323.06 98.2977 1392.01 141.457 1485.83 144.538" stroke="url(#paint15_linear_44_4404)" stroke-miterlimit="10"/>
<path d="M-293.502 152.362C-225.626 152.865 -152.807 148.223 -86.0798 155.83C19.7445 167.896 116.981 196.343 221.607 210.797C261.482 216.321 298.145 218.784 336.921 209.827C370.136 202.152 398.298 188.932 424.754 175.801C471.277 152.729 521.434 120.8 587.148 115.785C628.963 112.589 670.198 124.797 705.44 135.682C744.92 147.897 782.263 162.019 821.718 174.227C857.998 185.451 900.802 198.148 943.854 194.28C981.097 190.927 1013.45 176.996 1041.04 163.742C1094.11 138.295 1150.93 97.5649 1229.52 101.351C1322.31 105.817 1391.64 149.254 1485.86 152.322" stroke="url(#paint16_linear_44_4404)" stroke-miterlimit="10"/>
<path d="M-293.478 160.037C-225.132 160.519 -152.35 154.649 -85.1532 162.643C18.2491 174.933 112.656 203.672 214.822 218.377C254.859 224.138 290.83 226.303 329.927 217.603C363.735 210.084 392.947 197.245 420.428 184.352C468.892 161.693 520.803 130.226 586.703 124.288C628.024 120.57 668.53 132.248 703.426 143.058C742.041 155.029 778.432 169.029 817.022 181.013C853.166 192.244 895.143 204.309 937.935 200.014C975.351 196.248 1008.37 182.37 1036.79 169.3C1090.92 144.416 1149.77 104.934 1227.94 108.701C1321.29 113.2 1391.16 156.929 1485.95 160.017" stroke="url(#paint17_linear_44_4404)" stroke-miterlimit="10"/>
<path d="M-293.466 167.563C-224.564 167.943 -151.806 160.662 -84.0042 169.002C16.8033 181.4 108.207 210.397 207.742 225.183C247.753 231.141 283.23 232.994 322.525 224.674C356.939 217.386 387.176 204.995 415.782 192.495C466.445 170.352 519.938 139.638 586.085 132.845C665.91 124.641 746.576 167.339 811.264 187.466C847.272 198.677 888.112 209.908 930.533 205.205C968.246 201.018 1001.96 187.276 1031.35 174.403C1086.86 150.102 1147.9 112.033 1225.87 115.819C1319.92 120.379 1390.46 164.428 1485.93 167.563" stroke="url(#paint18_linear_44_4404)" stroke-miterlimit="10"/>
<path d="M-293.441 174.933C-223.933 175.143 -151.164 166.301 -82.6571 174.933C15.4442 187.338 103.697 216.47 200.464 231.304C240.339 237.412 275.47 238.932 314.876 231.094C349.92 224.111 381.208 212.27 410.938 200.163C463.801 178.651 518.888 148.962 585.368 141.328C663.983 132.316 741.176 173.779 804.666 193.581C839.772 204.513 880.698 215.534 921.957 209.901C960.264 204.676 994.01 192.006 1025.08 179.113C1082.18 155.43 1145.57 118.9 1223.54 122.728C1318.39 127.376 1389.68 171.757 1485.95 174.98" stroke="url(#paint19_linear_44_4404)" stroke-miterlimit="10"/>
<path d="M-293.416 182.16C-223.254 182.16 -150.41 171.621 -81.1372 180.572C14.1714 192.889 99.1867 222.143 193.099 236.896C356.21 262.541 441.299 167.868 584.577 149.75C661.808 139.971 735.096 179.941 797.437 199.342C832.382 210.2 871.726 220.087 912.467 214.136C951.255 208.469 985.793 196.078 1018.11 183.429C1076.99 160.356 1142.84 125.489 1220.97 129.378C1316.7 134.128 1388.82 178.855 1485.99 182.16" stroke="url(#paint20_linear_44_4404)" stroke-miterlimit="10"/>
<path d="M-293.391 189.231C-222.549 188.946 -149.582 176.677 -79.4815 185.892C12.9851 198.046 94.7505 227.368 185.734 241.992C345.472 267.657 442.757 177.525 583.725 158.11C659.621 147.646 728.51 185.845 789.714 204.873C824.511 215.69 862.137 224.274 902.297 218.051C941.605 211.944 977.019 199.865 1010.63 187.48C1071.4 165.086 1139.76 131.895 1218.23 135.872C1314.89 140.765 1387.92 185.817 1486.02 189.231" stroke="url(#paint21_linear_44_4404)" stroke-miterlimit="10"/>
<path d="M-293.367 196.153C-221.82 195.576 -148.705 181.515 -77.7268 190.961C11.91 202.891 90.3268 232.248 178.493 246.675C334.845 272.265 444.166 187.059 582.847 166.348C657.384 155.219 721.59 191.538 781.719 210.193C816.392 220.949 852.153 228.156 891.695 221.729C931.546 215.221 967.875 203.407 1002.82 191.328C1065.54 169.612 1136.42 138.152 1215.28 142.217C1312.9 147.259 1386.9 192.651 1485.97 196.18" stroke="url(#paint22_linear_44_4404)" stroke-miterlimit="10"/>
<path d="M-293.342 202.925C-221.104 202.05 -147.778 186.191 -75.861 195.834C11.0079 207.492 86.1871 236.862 171.511 251.045C324.539 276.486 445.55 196.397 581.957 174.444C655.147 162.663 714.534 197.048 773.637 215.344C808.163 226.032 842.181 231.82 881.068 225.163C921.475 218.241 958.756 206.725 995.011 194.945C1059.7 173.908 1133.07 144.185 1212.43 148.352C1311.08 153.536 1385.98 199.247 1486.05 202.925" stroke="url(#paint23_linear_44_4404)" stroke-miterlimit="10"/>
<path d="M-293.317 209.542C-220.412 208.374 -146.839 190.758 -74.0939 200.564C10.1058 211.917 82.1094 241.28 164.715 255.185C314.715 280.429 446.946 205.551 581.142 182.37C652.997 169.952 707.553 202.403 765.692 220.372C800.069 230.992 832.419 235.362 870.565 228.515C911.528 221.173 949.748 209.922 987.3 198.467C1053.89 178.149 1129.71 150.102 1209.61 154.357C1309.25 159.684 1385.08 205.768 1486.12 209.528" stroke="url(#paint24_linear_44_4404)" stroke-miterlimit="10"/>
<path d="M-293.293 216.015C-219.658 214.57 -145.912 195.264 -72.2774 205.205C9.38919 216.233 78.3529 245.575 158.388 259.181C305.509 284.195 448.318 214.516 580.265 190.106C650.921 177.036 700.596 207.689 757.932 225.299C792.198 235.817 822.855 238.871 860.358 231.827C901.853 224.064 940.999 213.036 979.775 201.914C1048.2 182.295 1126.35 155.898 1206.81 160.261C1307.38 165.724 1384.1 212.14 1486.07 216.015" stroke="url(#paint25_linear_44_4404)" stroke-miterlimit="10"/>
<path d="M-293.268 222.333C-218.941 220.65 -144.985 199.756 -70.5226 209.8C8.80854 220.494 74.9179 249.837 152.556 263.124C227.871 276.018 307.993 261.462 378.341 245.908C446.18 230.904 510.671 211.225 579.523 197.619C649.29 183.829 693.787 213.036 750.691 230.192C826.253 252.959 903.644 224.084 972.806 205.361C1042.88 186.415 1123.24 161.591 1204.23 166.05C1305.69 171.628 1383.25 218.37 1486.12 222.34" stroke="url(#paint26_linear_44_4404)" stroke-miterlimit="10"/>
<path d="M-293.243 228.509C-218.225 226.629 -144.256 204.289 -68.8424 214.407C8.37578 224.776 71.8531 254.099 147.403 267.094C222.026 279.947 304.261 265.988 374.943 251.744C444.154 237.792 510.028 219.368 578.868 204.873C647.708 190.378 687.918 218.153 744.092 235.064C817.937 257.288 898.553 226.242 966.516 208.836C1038.06 190.513 1120.46 167.196 1201.89 171.716C1304.14 177.396 1382.47 224.45 1486.1 228.508" stroke="url(#paint27_linear_44_4404)" stroke-miterlimit="10"/>
<path d="M-293.218 234.528C-217.495 232.492 -143.589 208.904 -67.2976 219.083C8.07941 229.133 69.2213 258.442 142.769 271.186C216.824 283.978 300.937 270.589 371.94 257.526C442.374 244.557 509.571 227.239 578.3 211.855C610.724 204.601 634.487 204.303 665.836 213.661C691.316 221.268 712.866 232.315 738.309 239.977C772.254 250.21 799.29 249.925 834.841 242.318C877.559 233.164 919.177 222.638 961.091 212.412C1033.84 194.714 1118.02 172.754 1199.83 177.314C1302.78 183.055 1381.77 230.422 1486.14 234.528" stroke="url(#paint28_linear_44_4404)" stroke-miterlimit="10"/>
<path d="M-293.194 240.405C-216.766 238.369 -143.082 213.654 -65.9012 223.867C7.98058 233.646 67.0341 263.063 139.099 275.482C212.771 288.178 298.429 275.346 369.716 263.267C441.003 251.188 509.447 234.765 577.954 218.479C609.612 210.953 632.757 209.888 663.834 219.198C688.474 226.581 709.036 237.48 733.614 244.917C767.373 255.137 793.989 254.051 828.922 246.193C871.85 236.536 914.111 226.032 956.816 216.09C1030.48 198.948 1116.31 178.21 1198.23 182.784C1301.76 188.559 1381.27 236.211 1486.15 240.343" stroke="url(#paint29_linear_44_4404)" stroke-miterlimit="10"/>
<path d="M-293.169 246.118C-216.025 244.137 -142.761 218.567 -64.7149 228.807C8.06708 238.369 65.2794 268.01 136.344 280.062C209.917 292.555 296.501 280.306 368.233 269.089C440.546 257.79 509.583 242.053 577.806 224.871C608.822 217.067 631.707 215.425 662.549 224.735C686.522 231.963 706.256 242.793 730.154 250.088C763.752 260.342 790.344 258.679 824.746 250.522C867.735 240.343 910.49 229.811 953.85 220.08C1027.99 203.434 1115.26 183.768 1197.12 188.308C1301.05 194.076 1380.95 241.999 1486.27 246.118" stroke="url(#paint30_linear_44_4404)" stroke-miterlimit="10"/>
<path d="M-293.144 251.69C-215.296 249.891 -142.662 223.704 -63.7512 233.971C8.27708 243.343 64.2538 273.113 134.466 285.023C207.804 297.455 295.525 285.471 367.442 274.952C440.496 264.264 509.843 248.955 577.744 230.843C608.253 222.7 631.261 220.732 661.944 230.103C685.422 237.276 704.538 248.113 727.979 255.354C761.454 265.696 788.416 263.742 822.41 255.212C865.313 244.449 908.389 233.842 952.231 224.274C1026.6 208.049 1114.87 189.265 1196.4 193.737C1300.58 199.444 1380.68 247.625 1486.25 251.69" stroke="url(#paint31_linear_44_4404)" stroke-miterlimit="10"/>
<path d="M-293.107 257.119C-214.863 255.503 -142.736 229.031 -63.3432 239.393C8.43792 248.758 64.081 278.501 134.07 290.343C207.334 302.734 295.451 290.506 367.393 280.211C440.706 269.72 509.831 254.526 577.818 236.333C608.216 228.19 631.546 226.493 662.018 235.803C685.335 242.929 704.328 253.671 727.645 260.817C761.009 271.037 788.466 269.137 822.138 260.362C864.856 249.233 907.982 238.545 952.009 229.072C1026.01 213.145 1115.44 194.571 1196.34 199.213C1300.37 205.171 1380.99 252.538 1486.28 257.098" stroke="url(#paint32_linear_44_4404)" stroke-miterlimit="10"/>
<path d="M-293.082 262.459C-214.666 260.926 -142.749 234.277 -63.1703 244.761C8.4996 254.207 64.4268 283.7 134.466 295.467C207.73 307.776 295.649 295.012 367.479 284.65C440.558 274.104 509.386 258.937 577.843 241.606C642.642 225.204 674.758 250.427 728.127 266.158C761.491 275.99 789.121 274.199 822.484 265.391C865.017 254.16 908.068 243.499 952.083 234.134C1025.66 218.485 1116.24 199.824 1196.56 204.859C1300.15 211.36 1381.76 256.799 1486.35 262.357" stroke="url(#paint33_linear_44_4404)" stroke-miterlimit="10"/>
<path d="M-293.058 267.718C-214.406 266.239 -142.662 239.393 -62.8366 249.966C8.83326 259.467 64.9829 288.647 135.059 300.305C208.323 312.52 295.982 299.267 367.702 288.87C440.496 278.318 509.064 263.219 577.917 246.763C642.173 231.399 675.437 256.175 728.844 271.193C762.207 280.598 790.085 278.861 823.152 270.039C865.486 258.747 908.414 248.168 952.417 238.966C1025.69 223.636 1117.18 205.171 1196.84 210.546C1299.9 217.495 1382.51 260.959 1486.33 267.399" stroke="url(#paint34_linear_44_4404)" stroke-miterlimit="10"/>
<path d="M-293.033 272.883C-214.11 271.444 -142.477 244.381 -62.3547 255.001C9.22871 264.488 65.712 293.336 135.837 304.872C209.101 316.883 296.477 303.298 368.06 292.895C440.509 282.376 508.929 267.393 578.028 251.846C641.827 237.507 676.228 261.733 729.771 276.052C763.221 284.989 791.308 283.252 824.128 274.437C866.228 263.124 909.069 252.667 952.998 243.682C1026.09 228.719 1118.14 210.709 1197.24 216.361C1299.81 223.684 1383.36 265.106 1486.39 272.34" stroke="url(#paint35_linear_44_4404)" stroke-miterlimit="10"/>
<path d="M-293.008 277.959C-213.751 276.533 -142.255 249.26 -61.7247 259.887C9.7969 269.32 66.6262 297.842 136.813 309.147C210.052 320.948 296.983 307.057 368.542 296.688C440.595 286.237 508.805 271.41 578.189 256.8C641.505 243.465 677.118 267.053 730.907 280.598C764.469 289.054 792.778 287.255 825.388 278.467C867.159 267.098 910.022 256.981 953.788 248.161C1026.82 233.612 1119.12 216.266 1197.77 222.177C1299.67 229.798 1384.25 269.13 1486.38 277.049" stroke="url(#paint36_linear_44_4404)" stroke-miterlimit="10"/>
<path d="M-292.971 282.94C-213.356 281.514 -141.884 254.004 -60.9584 264.617C10.5015 273.975 67.7138 302.117 137.987 313.192C211.202 324.728 297.762 310.62 369.185 300.298C440.854 289.956 508.879 275.332 578.424 261.672C641.271 249.321 678.168 272.211 732.279 284.935C766.001 292.867 794.521 290.967 826.945 282.22C868.465 270.926 911.171 260.998 954.839 252.49C1027.91 238.396 1120.2 221.994 1198.43 228.061C1299.67 235.912 1385.22 273.093 1486.46 281.63" stroke="url(#paint37_linear_44_4404)" stroke-miterlimit="10"/>
<path d="M-292.947 287.812C-212.923 286.38 -141.464 258.632 -60.0811 269.164C11.3293 278.406 68.9494 306.141 139.248 316.951C212.425 328.202 298.528 313.925 369.889 303.691C441.027 293.512 509.027 279.119 578.646 266.429C641.048 255.049 679.305 277.158 733.787 289.02C767.694 296.403 796.436 294.36 828.725 285.627C869.96 274.44 912.475 264.736 956 256.576C1029.19 243.003 1121.2 227.694 1199.1 233.903C1299.63 241.911 1386.11 276.9 1486.43 285.959" stroke="url(#paint38_linear_44_4404)" stroke-miterlimit="10"/>
<path d="M-292.922 292.589C-212.454 291.123 -140.932 263.111 -59.0802 273.588C12.2808 282.668 70.321 309.962 140.693 320.48C213.821 331.405 299.455 317.026 370.655 306.908C441.299 296.864 509.225 282.797 578.868 271.084C640.838 260.668 680.528 281.942 735.418 292.895C769.535 299.681 798.5 297.482 830.689 288.823C871.651 277.769 913.989 268.324 957.384 260.559C1030.81 247.509 1122.3 233.496 1199.91 239.814C1299.72 247.957 1387.08 280.673 1486.47 290.2" stroke="url(#paint39_linear_44_4404)" stroke-miterlimit="10"/>
<path d="M-292.897 297.258C-211.947 295.752 -140.438 267.467 -57.9804 277.802C13.3312 286.746 71.8286 313.578 142.275 323.771C215.341 334.337 300.443 319.91 371.545 309.921C441.695 300.061 509.559 286.346 579.14 275.624C640.69 266.124 681.9 286.529 737.222 296.539C771.574 302.748 800.761 300.312 832.877 291.788C873.553 280.902 915.69 271.746 958.917 264.4C1032.63 251.947 1123.37 239.38 1200.77 245.772C1299.83 253.915 1388.02 284.385 1486.47 294.306" stroke="url(#paint40_linear_44_4404)" stroke-miterlimit="10"/>
<path d="M-292.872 301.811C-211.416 300.251 -139.832 271.695 -56.8558 281.888C14.4928 290.621 73.4475 316.992 143.981 326.832C216.973 337.011 301.481 322.59 372.583 312.751C442.214 303.101 510.028 289.78 579.536 280.055C640.665 271.498 683.482 290.954 739.261 299.972C773.86 305.564 803.257 302.89 835.348 294.408C875.728 283.713 917.655 274.876 960.696 267.99C1034.69 256.175 1124.52 245.155 1201.74 251.622C1300.03 259.812 1389.01 287.907 1486.52 298.167" stroke="url(#paint41_linear_44_4404)" stroke-miterlimit="10"/>
<path d="M-292.848 306.229C-210.884 304.621 -139.215 275.794 -55.509 285.817C15.7284 294.354 75.1774 320.208 145.785 329.675C218.69 339.454 302.618 325.067 373.559 315.424C442.683 306.005 510.448 293.125 579.808 284.392C640.554 276.737 685.064 295.249 741.275 303.23C776.121 308.19 805.753 305.266 837.856 296.844C877.931 286.363 919.633 277.871 962.463 271.471C1036.94 260.342 1125.66 251.045 1202.75 257.498C1300.28 265.642 1389.96 291.374 1486.54 301.927" stroke="url(#paint42_linear_44_4404)" stroke-miterlimit="10"/>
<path d="M-292.823 310.572C-210.267 308.869 -138.461 279.764 -54.1622 289.597C17.0628 297.896 77.0308 323.235 147.687 332.308C220.531 341.652 303.829 327.347 374.671 317.867C443.276 308.686 510.992 296.294 580.166 288.552C640.554 281.765 686.818 299.28 743.45 306.195C778.556 310.504 808.41 307.267 840.562 298.961C880.333 288.715 921.803 280.591 964.403 274.701C1039.34 264.305 1126.82 256.793 1203.82 263.253C1300.57 271.362 1390.9 294.639 1486.57 305.435" stroke="url(#paint43_linear_44_4404)" stroke-miterlimit="10"/>
<path d="M-292.798 314.773C-209.649 312.981 -137.719 283.598 -52.7164 293.214C18.4468 301.269 78.8967 326.072 149.677 334.731C222.422 343.634 305.077 329.431 375.808 320.161C443.919 311.237 511.548 299.368 580.499 292.616C640.579 286.733 688.635 303.189 745.699 309.072C781.052 312.717 811.116 309.161 843.38 300.929C882.84 290.938 924.07 283.206 966.417 277.857C1041.79 268.248 1127.95 262.602 1204.91 269.035C1300.91 277.049 1391.8 297.869 1486.59 308.882" stroke="url(#paint44_linear_44_4404)" stroke-miterlimit="10"/>
<path d="M-292.774 318.845C-209.043 316.958 -136.929 287.296 -51.2707 296.681C19.905 304.478 80.8615 328.732 151.728 336.963C224.374 345.398 306.375 331.338 377.056 322.285C444.685 313.619 512.215 302.32 580.944 296.552C640.764 291.537 690.649 306.921 748.121 311.719C783.733 314.698 814.008 310.803 846.395 302.694C885.548 292.961 926.537 285.628 968.617 280.829C1044.5 272.055 1129.18 268.336 1206.12 274.721C1301.26 282.634 1392.7 300.943 1486.62 312.14" stroke="url(#paint45_linear_44_4404)" stroke-miterlimit="10"/>
<path d="M-292.749 322.787C-208.413 320.799 -136.113 290.893 -49.7509 299.993C21.4248 307.519 82.8879 331.222 153.841 339.006C226.388 346.946 307.721 333.061 378.316 324.239C445.488 315.845 512.895 305.15 581.327 300.359C640.937 296.186 692.638 310.477 750.481 314.189C786.316 316.49 816.825 312.242 849.336 304.234C888.185 294.778 928.926 287.865 970.717 283.638C1047.08 275.746 1130.27 273.989 1207.2 280.327C1301.66 288.104 1393.46 303.881 1486.56 315.241" stroke="url(#paint46_linear_44_4404)" stroke-miterlimit="10"/>
<path d="M-292.724 326.587C-207.771 324.497 -135.26 294.286 -48.2062 303.148C22.9571 310.403 84.9639 333.536 156.004 340.838C228.427 348.303 309.081 334.575 379.663 325.997C446.39 317.854 513.649 307.817 581.797 303.997C641.295 300.658 694.764 313.836 753.051 316.456C789.146 318.078 819.778 313.456 852.598 305.557C891.148 296.383 931.64 289.899 973.127 286.258C1147.36 270.453 1318.09 297.115 1486.73 318.152" stroke="url(#paint47_linear_44_4404)" stroke-miterlimit="10"/>
<path d="M-292.699 330.265C-207.116 328.06 -134.395 297.584 -46.6245 306.168C24.5387 313.131 87.0769 335.687 158.203 342.562C230.503 349.551 310.477 335.993 380.911 327.666C447.255 319.801 514.316 310.416 582.155 307.586C641.641 305.082 696.79 317.087 755.51 318.648C791.815 319.598 822.707 314.576 855.712 306.792C893.821 297.747 934.289 291.978 975.376 288.789C1145.17 275.604 1322.27 300.081 1486.69 320.975" stroke="url(#paint48_linear_44_4404)" stroke-miterlimit="10"/>
<path d="M-292.675 333.794C-206.461 331.473 -133.518 300.733 -45.0303 309.032C26.1453 315.73 89.2025 337.683 160.415 344.095C232.592 350.59 311.873 337.214 382.233 329.166C448.219 321.6 515.045 312.88 582.576 310.973C642.173 309.29 698.879 320.161 758.043 320.616C794.558 320.894 825.648 315.479 858.912 307.79C896.774 299.043 936.971 293.77 977.711 291.151C1055.33 286.163 1134.03 290.411 1211 296.512C1303.35 303.834 1395.84 311.868 1486.72 323.656" stroke="url(#paint49_linear_44_4404)" stroke-miterlimit="10"/>
<path d="M-292.65 337.18C-206.547 334.785 -133.703 303.99 -45.3022 311.577C25.5892 317.684 88.77 338.782 159.427 345.181C230.849 351.648 308.537 338.816 378.279 331.066C445.698 323.601 513.995 315.261 583.008 314.216C644.273 313.287 703.97 323.561 765.099 322.36C801.997 321.633 832.753 315.01 866.574 307.654C901.704 300.013 938.8 295.636 976.315 293.566C1056.17 289.162 1135.36 295.656 1214.26 301.784C1305.33 308.855 1397.22 314.298 1486.78 326.119" stroke="url(#paint50_linear_44_4404)" stroke-miterlimit="10"/>
<path d="M-292.638 340.417C-205.942 337.907 -132.801 306.854 -43.7453 314.149C27.1585 319.958 90.8459 340.499 161.614 346.43C232.888 352.374 309.958 339.725 379.601 332.227C446.699 324.993 514.736 317.297 583.391 317.297C645.015 317.297 706.033 326.207 767.669 323.934C804.616 322.577 835.632 315.574 869.712 308.374C904.608 301.004 941.456 297.088 978.651 295.541C1058.76 292.209 1136.58 300.78 1215.47 306.738C1305.95 313.572 1397.82 316.483 1486.75 328.454" stroke="url(#paint51_linear_44_4404)" stroke-miterlimit="10"/>
<path d="M-292.613 343.498C-205.262 340.872 -131.973 309.568 -42.1635 316.578C28.765 322.115 92.9467 342.08 163.813 347.549C234.94 353.053 311.404 340.492 381.01 333.238C447.737 326.268 515.515 319.265 583.811 320.256C645.88 321.158 708.097 328.732 770.252 325.4C807.248 323.411 838.511 316.035 872.814 308.991C907.413 301.886 944.089 298.432 980.937 297.407C1061.26 295.161 1137.8 305.768 1216.66 311.563C1306.57 318.172 1398.3 318.539 1486.72 330.659" stroke="url(#paint52_linear_44_4404)" stroke-miterlimit="10"/>
<path d="M-292.588 346.423C-204.632 343.709 -131.034 312.14 -40.5942 318.858C30.3466 324.131 95.0226 343.552 166 348.533C236.978 353.514 312.825 341.123 382.246 334.12C448.812 327.402 516.269 321.057 584.194 323.045C646.807 324.877 710.086 331.093 772.76 326.716C809.831 324.131 841.316 316.354 875.94 309.473C910.564 302.592 946.77 299.633 983.272 299.117C1063.59 297.97 1139.12 310.565 1217.89 316.198C1307.28 322.59 1398.95 320.419 1486.77 332.715" stroke="url(#paint53_linear_44_4404)" stroke-miterlimit="10"/>
<path d="M-292.576 349.192C-204.014 346.342 -130.157 314.583 -39.0744 320.989C31.9035 326.004 97.049 344.835 168.126 349.395C238.906 353.935 314.283 341.625 383.58 334.86C449.949 328.386 517.035 322.706 584.627 325.671C647.857 328.447 712.076 333.312 775.306 327.911C812.265 324.748 844.121 316.564 878.992 309.839C913.221 303.243 949.427 300.705 985.533 300.685C1065.85 300.631 1140.41 315.153 1219.08 320.636C1308.05 326.838 1399.49 322.136 1486.77 334.629" stroke="url(#paint54_linear_44_4404)" stroke-miterlimit="10"/>
<path d="M-292.563 351.791C-203.408 348.846 -129.329 316.822 -37.5914 322.984C33.4236 327.734 99.0386 346.057 170.202 350.128C240.908 354.2 315.531 341.985 384.841 335.457C451.074 329.241 517.826 324.199 585.022 328.128C648.932 331.86 713.979 335.375 777.79 328.969C814.737 325.271 846.865 316.673 881.995 310.104C916.063 303.739 951.96 301.655 987.733 302.117C1067.93 303.142 1141.71 319.523 1220.26 324.877C1308.73 330.903 1399.93 323.669 1486.8 336.413" stroke="url(#paint55_linear_44_4404)" stroke-miterlimit="10"/>
<path d="M-292.539 354.227C-202.828 351.18 -128.489 318.939 -36.1458 324.83C34.9062 329.37 101.016 347.102 172.216 350.786C242.774 354.437 316.791 342.243 386.064 335.959C452.173 329.98 518.592 325.569 585.405 330.442C650.032 335.151 715.882 337.336 780.137 329.946C817.047 325.705 849.447 316.7 884.887 310.267C918.744 304.159 954.456 302.476 989.92 303.406C1069.91 305.489 1143.06 323.649 1221.48 328.888C1309.52 334.771 1400.45 325.026 1486.9 338.022" stroke="url(#paint56_linear_44_4404)" stroke-miterlimit="10"/>
<path d="M-292.526 356.494C-202.321 353.352 -127.71 320.88 -34.7743 326.533C36.3149 330.863 102.795 348.058 174.156 351.336C244.59 354.566 318.064 342.392 387.226 336.325C453.248 330.523 519.333 326.777 585.751 332.573C651.131 338.273 717.574 339.155 782.386 330.808C819.222 326.058 851.931 316.646 887.605 310.362C921.29 304.431 956.803 303.203 991.897 304.573C1071.6 307.688 1144.24 327.524 1222.51 332.695C1310.25 338.47 1400.81 326.228 1486.88 339.535" stroke="url(#paint57_linear_44_4404)" stroke-miterlimit="10"/>
<path d="M-292.514 358.577C-201.74 355.36 -126.932 322.672 -33.4767 328.101C37.6742 332.227 104.562 348.914 175.997 351.791C246.32 354.621 319.226 342.446 388.325 336.57C454.286 330.958 520.05 327.836 586.097 334.534C652.145 341.232 719.243 340.838 784.561 331.568C821.31 326.35 854.34 316.639 890.212 310.382C923.576 304.553 959.139 303.82 993.8 305.632C1073.18 309.704 1145.42 331.141 1223.53 336.244C1310.88 341.951 1401.18 327.232 1486.88 340.899" stroke="url(#paint58_linear_44_4404)" stroke-miterlimit="10"/>
<path d="M-292.44 360.518C-201.172 357.233 -126.203 324.328 -32.1917 329.546C38.9345 333.475 106.218 349.66 177.739 352.164C247.902 354.62 320.338 342.406 389.363 336.698C455.287 331.27 520.742 328.738 586.406 336.318C653.306 344.034 720.799 342.426 786.587 332.247C823.263 326.587 856.577 316.51 892.659 310.341C925.887 304.661 961.264 304.336 995.567 306.514C1033 308.896 1069.49 314.352 1105.42 320.405C1144.2 326.926 1184.1 336.875 1224.49 339.508C1311.54 345.188 1401.54 328.026 1486.89 342.1" stroke="url(#paint59_linear_44_4404)" stroke-miterlimit="10"/>
<path d="M-292.44 362.214C-200.727 358.875 -125.622 325.759 -31.0672 330.802C40.1208 334.602 107.762 350.339 179.37 352.469C249.422 354.58 321.339 342.29 390.302 336.726C456.226 331.419 521.421 329.485 586.703 337.92C654.332 346.66 722.27 343.885 788.54 332.824C825.055 326.716 858.653 316.334 894.92 310.253C928.012 304.709 963.229 304.75 997.198 307.301C1034.55 310.097 1070.83 316.028 1106.56 322.468C1145.05 329.403 1185.01 339.868 1225.39 342.521C1312.18 348.214 1401.89 328.643 1486.9 343.2" stroke="url(#paint60_linear_44_4404)" stroke-miterlimit="10"/>
<path d="M-292.44 363.755C-200.307 360.362 -125.004 327.049 -30.0415 331.942C41.1959 335.62 109.159 350.881 180.829 352.707C250.781 354.492 322.216 342.06 391.13 336.638C457.067 331.46 522.027 330.069 586.925 339.352C655.333 349.103 723.58 345.235 790.319 333.326C826.698 326.838 860.544 316.137 896.996 310.124C929.952 304.696 964.959 305.076 998.681 307.96C1035.95 311.149 1072.04 317.528 1107.58 324.321C1145.81 331.629 1185.83 342.555 1226.21 345.249C1312.71 351.017 1402.21 329.064 1486.94 344.143" stroke="url(#paint61_linear_44_4404)" stroke-miterlimit="10"/>
<path d="M-292.44 365.105C-199.924 361.712 -124.498 328.168 -29.1271 332.946C42.1968 336.522 110.506 351.363 182.25 352.89C252.128 354.383 323.118 341.768 391.958 336.454C457.919 331.371 522.694 330.496 587.197 340.573C656.309 351.37 724.729 346.484 791.938 333.787C828.193 326.927 862.261 315.947 898.862 309.989C931.707 304.648 966.59 305.327 999.991 308.516C1037.21 312.072 1073.11 318.858 1108.48 325.976C1146.51 333.638 1186.54 344.937 1226.97 347.692C1313.3 353.582 1402.58 329.302 1486.94 344.977" stroke="url(#paint62_linear_44_4404)" stroke-miterlimit="10"/>
<path d="M-292.44 366.259C-199.566 362.866 -124.065 329.112 -28.3239 333.814C43.0123 337.316 111.63 351.764 183.436 353.053C253.24 354.281 323.761 341.442 392.601 336.203C458.599 331.181 523.25 330.774 587.382 341.632C657.211 353.46 725.668 347.651 793.372 334.167C829.466 326.974 863.732 315.743 900.469 309.826C933.214 304.546 967.925 305.483 1001.09 308.943C1038.26 312.832 1074 319.984 1109.23 327.402C1147.07 335.375 1187.07 346.966 1227.62 349.796C1313.76 355.869 1402.92 329.302 1486.95 345.67" stroke="url(#paint63_linear_44_4404)" stroke-miterlimit="10"/>
<path d="M-292.44 367.222C-200.023 363.829 -124.769 330.075 -29.5843 334.452C45.632 337.906 118.34 353.508 194.236 353.189C259.122 352.917 324.23 341.211 388.325 336.176C456.424 330.829 521.607 330.978 587.555 342.426C660.683 355.089 729.202 348.432 799.686 333.373C831.283 326.628 861.384 317.426 893.215 311.108C926.9 304.424 963.884 305.075 998.545 308.787C1037.88 312.995 1075.53 321.002 1112.62 329.146C1150.02 337.384 1189.77 348.981 1230.09 351.696C1315.35 357.403 1404.02 329.227 1486.94 346.219" stroke="url(#paint64_linear_44_4404)" stroke-miterlimit="10"/>
<path d="M-292.44 367.982C-199.763 364.637 -124.51 330.659 -29.0654 335.043C46.1757 338.504 119.217 353.738 195.088 353.229C259.925 352.788 324.7 340.757 388.758 335.715C456.906 330.354 522.076 330.883 587.704 343.077C661.573 356.812 729.734 349.375 800.798 333.577C832.246 326.587 862.434 317.304 894.352 310.979C927.963 304.288 964.786 305.075 999.249 308.998C1038.56 313.47 1076.06 321.823 1113.04 330.184C1150.39 338.626 1190.13 350.352 1230.55 353.202C1315.65 359.16 1404.42 328.874 1486.95 346.688" stroke="url(#paint65_linear_44_4404)" stroke-miterlimit="10"/>
<path d="M-292.44 368.525C-199.578 365.234 -124.386 331.053 -28.6699 335.504C46.5835 339.006 119.786 353.915 195.756 353.243C260.568 352.673 325.033 340.255 389.067 335.172C457.252 329.743 522.521 330.605 587.728 343.532C662.314 358.312 729.931 350.25 801.601 333.787C832.975 326.587 863.237 317.209 895.18 310.81C928.766 304.085 965.268 304.933 999.707 309.039C1079.27 318.539 1150.56 348.282 1230.89 354.281C1315.85 360.626 1404.85 328.297 1486.95 347.007" stroke="url(#paint66_linear_44_4404)" stroke-miterlimit="10"/>
<path d="M-292.44 368.87C-199.43 365.647 -124.263 331.262 -28.4352 335.822C46.8306 339.412 120.28 354.029 196.213 353.249C261.037 352.57 325.219 339.717 389.227 334.547C457.437 329.036 522.929 330.149 587.765 343.776C663.006 359.594 729.869 351.064 802.219 333.936C833.334 326.586 863.67 316.848 895.686 310.7C929.693 304.179 965.095 304.708 999.904 308.997C1079.61 318.823 1150.5 348.594 1231.11 355.027C1315.96 361.813 1405.35 327.509 1486.9 347.209" stroke="url(#paint67_linear_44_4404)" stroke-miterlimit="10"/>
<path d="M-292.44 369C-199.331 365.872 -124.3 331.283 -28.3734 336.013C46.8923 339.725 120.441 354.098 196.522 353.257C261.358 352.537 325.293 339.142 389.289 333.848C457.499 328.209 523.337 329.505 587.79 343.817C663.612 360.667 729.536 351.831 802.577 334.052C869.304 317.82 924.28 299.341 999.843 308.855C1079.75 318.919 1150.31 348.438 1231.21 355.387C1315.96 362.669 1405.82 326.513 1487 347.244" stroke="url(#paint68_linear_44_4404)" stroke-miterlimit="10"/>
</g>
<defs>
<linearGradient id="paint0_linear_44_4404" x1="1.28254e+06" y1="-92.782" x2="1.28254e+06" y2="-18.562" gradientUnits="userSpaceOnUse">
<stop stop-color="#592CB8"/>
<stop offset="1" stop-color="#2C66B8"/>
</linearGradient>
<linearGradient id="paint1_linear_44_4404" x1="1.2825e+06" y1="-409.639" x2="1.2825e+06" y2="-93.6327" gradientUnits="userSpaceOnUse">
<stop stop-color="#592CB8"/>
<stop offset="1" stop-color="#2C66B8"/>
</linearGradient>
<linearGradient id="paint2_linear_44_4404" x1="1.28254e+06" y1="-763.411" x2="1.28254e+06" y2="-179.825" gradientUnits="userSpaceOnUse">
<stop stop-color="#592CB8"/>
<stop offset="1" stop-color="#2C66B8"/>
</linearGradient>
<linearGradient id="paint3_linear_44_4404" x1="1.28254e+06" y1="-1291.37" x2="1.28254e+06" y2="-313.222" gradientUnits="userSpaceOnUse">
<stop stop-color="#592CB8"/>
<stop offset="1" stop-color="#2C66B8"/>
</linearGradient>
<linearGradient id="paint4_linear_44_4404" x1="1.28254e+06" y1="-2168.13" x2="1.28254e+06" y2="-539.334" gradientUnits="userSpaceOnUse">
<stop stop-color="#592CB8"/>
<stop offset="1" stop-color="#2C66B8"/>
</linearGradient>
<linearGradient id="paint5_linear_44_4404" x1="1.28254e+06" y1="-3132.41" x2="1.28254e+06" y2="-789.284" gradientUnits="userSpaceOnUse">
<stop stop-color="#592CB8"/>
<stop offset="1" stop-color="#2C66B8"/>
</linearGradient>
<linearGradient id="paint6_linear_44_4404" x1="1.28254e+06" y1="-4306.02" x2="1.28254e+06" y2="-1094.87" gradientUnits="userSpaceOnUse">
<stop stop-color="#592CB8"/>
<stop offset="1" stop-color="#2C66B8"/>
</linearGradient>
<linearGradient id="paint7_linear_44_4404" x1="1.28252e+06" y1="-5540.03" x2="1.28252e+06" y2="-1416.73" gradientUnits="userSpaceOnUse">
<stop stop-color="#592CB8"/>
<stop offset="1" stop-color="#2C66B8"/>
</linearGradient>
<linearGradient id="paint8_linear_44_4404" x1="1.28255e+06" y1="-6777.73" x2="1.28255e+06" y2="-1739.75" gradientUnits="userSpaceOnUse">
<stop stop-color="#592CB8"/>
<stop offset="1" stop-color="#2C66B8"/>
</linearGradient>
<linearGradient id="paint9_linear_44_4404" x1="1.28251e+06" y1="-7954.26" x2="1.28251e+06" y2="-2046.61" gradientUnits="userSpaceOnUse">
<stop stop-color="#592CB8"/>
<stop offset="1" stop-color="#2C66B8"/>
</linearGradient>
<linearGradient id="paint10_linear_44_4404" x1="1.28254e+06" y1="-9121.35" x2="1.28254e+06" y2="-2350.7" gradientUnits="userSpaceOnUse">
<stop stop-color="#592CB8"/>
<stop offset="1" stop-color="#2C66B8"/>
</linearGradient>
<linearGradient id="paint11_linear_44_4404" x1="1.28254e+06" y1="-10017.6" x2="1.28254e+06" y2="-2583.16" gradientUnits="userSpaceOnUse">
<stop stop-color="#592CB8"/>
<stop offset="1" stop-color="#2C66B8"/>
</linearGradient>
<linearGradient id="paint12_linear_44_4404" x1="1.28254e+06" y1="-10681.5" x2="1.28254e+06" y2="-2753.85" gradientUnits="userSpaceOnUse">
<stop stop-color="#592CB8"/>
<stop offset="1" stop-color="#2C66B8"/>
</linearGradient>
<linearGradient id="paint13_linear_44_4404" x1="1.28258e+06" y1="-11035.6" x2="1.28258e+06" y2="-2842.12" gradientUnits="userSpaceOnUse">
<stop stop-color="#592CB8"/>
<stop offset="1" stop-color="#2C66B8"/>
</linearGradient>
<linearGradient id="paint14_linear_44_4404" x1="1.28254e+06" y1="-11192.4" x2="1.28254e+06" y2="-2877.55" gradientUnits="userSpaceOnUse">
<stop stop-color="#592CB8"/>
<stop offset="1" stop-color="#2C66B8"/>
</linearGradient>
<linearGradient id="paint15_linear_44_4404" x1="1.28251e+06" y1="-11351.3" x2="1.28251e+06" y2="-2913.54" gradientUnits="userSpaceOnUse">
<stop stop-color="#592CB8"/>
<stop offset="1" stop-color="#2C66B8"/>
</linearGradient>
<linearGradient id="paint16_linear_44_4404" x1="1.28252e+06" y1="-11441" x2="1.28252e+06" y2="-2931.54" gradientUnits="userSpaceOnUse">
<stop stop-color="#592CB8"/>
<stop offset="1" stop-color="#2C66B8"/>
</linearGradient>
<linearGradient id="paint17_linear_44_4404" x1="1.28257e+06" y1="-11466.3" x2="1.28257e+06" y2="-2932.77" gradientUnits="userSpaceOnUse">
<stop stop-color="#592CB8"/>
<stop offset="1" stop-color="#2C66B8"/>
</linearGradient>
<linearGradient id="paint18_linear_44_4404" x1="1.28254e+06" y1="-11435.2" x2="1.28254e+06" y2="-2919.37" gradientUnits="userSpaceOnUse">
<stop stop-color="#592CB8"/>
<stop offset="1" stop-color="#2C66B8"/>
</linearGradient>
<linearGradient id="paint19_linear_44_4404" x1="1.28254e+06" y1="-11353.1" x2="1.28254e+06" y2="-2892.72" gradientUnits="userSpaceOnUse">
<stop stop-color="#592CB8"/>
<stop offset="1" stop-color="#2C66B8"/>
</linearGradient>
<linearGradient id="paint20_linear_44_4404" x1="1.28255e+06" y1="-11165.5" x2="1.28255e+06" y2="-2838.54" gradientUnits="userSpaceOnUse">
<stop stop-color="#592CB8"/>
<stop offset="1" stop-color="#2C66B8"/>
</linearGradient>
<linearGradient id="paint21_linear_44_4404" x1="1.28256e+06" y1="-11039.8" x2="1.28256e+06" y2="-2800.75" gradientUnits="userSpaceOnUse">
<stop stop-color="#592CB8"/>
<stop offset="1" stop-color="#2C66B8"/>
</linearGradient>
<linearGradient id="paint22_linear_44_4404" x1="1.2825e+06" y1="-10888.1" x2="1.2825e+06" y2="-2756.22" gradientUnits="userSpaceOnUse">
<stop stop-color="#592CB8"/>
<stop offset="1" stop-color="#2C66B8"/>
</linearGradient>
<linearGradient id="paint23_linear_44_4404" x1="1.28254e+06" y1="-10727" x2="1.28254e+06" y2="-2709.4" gradientUnits="userSpaceOnUse">
<stop stop-color="#592CB8"/>
<stop offset="1" stop-color="#2C66B8"/>
</linearGradient>
<linearGradient id="paint24_linear_44_4404" x1="1.28258e+06" y1="-10556.7" x2="1.28258e+06" y2="-2660.25" gradientUnits="userSpaceOnUse">
<stop stop-color="#592CB8"/>
<stop offset="1" stop-color="#2C66B8"/>
</linearGradient>
<linearGradient id="paint25_linear_44_4404" x1="1.28252e+06" y1="-10384.1" x2="1.28252e+06" y2="-2610.6" gradientUnits="userSpaceOnUse">
<stop stop-color="#592CB8"/>
<stop offset="1" stop-color="#2C66B8"/>
</linearGradient>
<linearGradient id="paint26_linear_44_4404" x1="1.28254e+06" y1="-10159.4" x2="1.28254e+06" y2="-2547.34" gradientUnits="userSpaceOnUse">
<stop stop-color="#592CB8"/>
<stop offset="1" stop-color="#2C66B8"/>
</linearGradient>
<linearGradient id="paint27_linear_44_4404" x1="1.2825e+06" y1="-9998.65" x2="1.2825e+06" y2="-2500.95" gradientUnits="userSpaceOnUse">
<stop stop-color="#592CB8"/>
<stop offset="1" stop-color="#2C66B8"/>
</linearGradient>
<linearGradient id="paint28_linear_44_4404" x1="1.28251e+06" y1="-9855.35" x2="1.28251e+06" y2="-2459.2" gradientUnits="userSpaceOnUse">
<stop stop-color="#592CB8"/>
<stop offset="1" stop-color="#2C66B8"/>
</linearGradient>
<linearGradient id="paint29_linear_44_4404" x1="1.28251e+06" y1="-9742.73" x2="1.28251e+06" y2="-2425.6" gradientUnits="userSpaceOnUse">
<stop stop-color="#592CB8"/>
<stop offset="1" stop-color="#2C66B8"/>
</linearGradient>
<linearGradient id="paint30_linear_44_4404" x1="1.28258e+06" y1="-9645.57" x2="1.28258e+06" y2="-2396.01" gradientUnits="userSpaceOnUse">
<stop stop-color="#592CB8"/>
<stop offset="1" stop-color="#2C66B8"/>
</linearGradient>
<linearGradient id="paint31_linear_44_4404" x1="1.28254e+06" y1="-9597.38" x2="1.28254e+06" y2="-2379.35" gradientUnits="userSpaceOnUse">
<stop stop-color="#592CB8"/>
<stop offset="1" stop-color="#2C66B8"/>
</linearGradient>
<linearGradient id="paint32_linear_44_4404" x1="1.28254e+06" y1="-9574.26" x2="1.28254e+06" y2="-2369.28" gradientUnits="userSpaceOnUse">
<stop stop-color="#592CB8"/>
<stop offset="1" stop-color="#2C66B8"/>
</linearGradient>
<linearGradient id="paint33_linear_44_4404" x1="1.28257e+06" y1="-9510.63" x2="1.28257e+06" y2="-2348.48" gradientUnits="userSpaceOnUse">
<stop stop-color="#592CB8"/>
<stop offset="1" stop-color="#2C66B8"/>
</linearGradient>
<linearGradient id="paint34_linear_44_4404" x1="1.28254e+06" y1="-9415" x2="1.28254e+06" y2="-2319.25" gradientUnits="userSpaceOnUse">
<stop stop-color="#592CB8"/>
<stop offset="1" stop-color="#2C66B8"/>
</linearGradient>
<linearGradient id="paint35_linear_44_4404" x1="1.28257e+06" y1="-9275.5" x2="1.28257e+06" y2="-2278.39" gradientUnits="userSpaceOnUse">
<stop stop-color="#592CB8"/>
<stop offset="1" stop-color="#2C66B8"/>
</linearGradient>
<linearGradient id="paint36_linear_44_4404" x1="1.28254e+06" y1="-9108.41" x2="1.28254e+06" y2="-2230.29" gradientUnits="userSpaceOnUse">
<stop stop-color="#592CB8"/>
<stop offset="1" stop-color="#2C66B8"/>
</linearGradient>
<linearGradient id="paint37_linear_44_4404" x1="1.28257e+06" y1="-8908.65" x2="1.28257e+06" y2="-2173.55" gradientUnits="userSpaceOnUse">
<stop stop-color="#592CB8"/>
<stop offset="1" stop-color="#2C66B8"/>
</linearGradient>
<linearGradient id="paint38_linear_44_4404" x1="1.28253e+06" y1="-8685.94" x2="1.28253e+06" y2="-2110.83" gradientUnits="userSpaceOnUse">
<stop stop-color="#592CB8"/>
<stop offset="1" stop-color="#2C66B8"/>
</linearGradient>
<linearGradient id="paint39_linear_44_4404" x1="1.28254e+06" y1="-8433.76" x2="1.28254e+06" y2="-2040.31" gradientUnits="userSpaceOnUse">
<stop stop-color="#592CB8"/>
<stop offset="1" stop-color="#2C66B8"/>
</linearGradient>
<linearGradient id="paint40_linear_44_4404" x1="1.28252e+06" y1="-8153.87" x2="1.28252e+06" y2="-1962.5" gradientUnits="userSpaceOnUse">
<stop stop-color="#592CB8"/>
<stop offset="1" stop-color="#2C66B8"/>
</linearGradient>
<linearGradient id="paint41_linear_44_4404" x1="1.28254e+06" y1="-7865.19" x2="1.28254e+06" y2="-1882.48" gradientUnits="userSpaceOnUse">
<stop stop-color="#592CB8"/>
<stop offset="1" stop-color="#2C66B8"/>
</linearGradient>
<linearGradient id="paint42_linear_44_4404" x1="1.28254e+06" y1="-7553.2" x2="1.28254e+06" y2="-1796.33" gradientUnits="userSpaceOnUse">
<stop stop-color="#592CB8"/>
<stop offset="1" stop-color="#2C66B8"/>
</linearGradient>
<linearGradient id="paint43_linear_44_4404" x1="1.28254e+06" y1="-7238.81" x2="1.28254e+06" y2="-1709.69" gradientUnits="userSpaceOnUse">
<stop stop-color="#592CB8"/>
<stop offset="1" stop-color="#2C66B8"/>
</linearGradient>
<linearGradient id="paint44_linear_44_4404" x1="1.28254e+06" y1="-6907.97" x2="1.28254e+06" y2="-1618.76" gradientUnits="userSpaceOnUse">
<stop stop-color="#592CB8"/>
<stop offset="1" stop-color="#2C66B8"/>
</linearGradient>
<linearGradient id="paint45_linear_44_4404" x1="1.28254e+06" y1="-6578.64" x2="1.28254e+06" y2="-1528.38" gradientUnits="userSpaceOnUse">
<stop stop-color="#592CB8"/>
<stop offset="1" stop-color="#2C66B8"/>
</linearGradient>
<linearGradient id="paint46_linear_44_4404" x1="1.28248e+06" y1="-6256.24" x2="1.28248e+06" y2="-1440.01" gradientUnits="userSpaceOnUse">
<stop stop-color="#592CB8"/>
<stop offset="1" stop-color="#2C66B8"/>
</linearGradient>
<linearGradient id="paint47_linear_44_4404" x1="1.28259e+06" y1="-5910.93" x2="1.28259e+06" y2="-1345.6" gradientUnits="userSpaceOnUse">
<stop stop-color="#592CB8"/>
<stop offset="1" stop-color="#2C66B8"/>
</linearGradient>
<linearGradient id="paint48_linear_44_4404" x1="1.28254e+06" y1="-5698.05" x2="1.28254e+06" y2="-1287.02" gradientUnits="userSpaceOnUse">
<stop stop-color="#592CB8"/>
<stop offset="1" stop-color="#2C66B8"/>
</linearGradient>
<linearGradient id="paint49_linear_44_4404" x1="1.28254e+06" y1="-5435.7" x2="1.28254e+06" y2="-1215.22" gradientUnits="userSpaceOnUse">
<stop stop-color="#592CB8"/>
<stop offset="1" stop-color="#2C66B8"/>
</linearGradient>
<linearGradient id="paint50_linear_44_4404" x1="1.28257e+06" y1="-5227.17" x2="1.28257e+06" y2="-1158.1" gradientUnits="userSpaceOnUse">
<stop stop-color="#592CB8"/>
<stop offset="1" stop-color="#2C66B8"/>
</linearGradient>
<linearGradient id="paint51_linear_44_4404" x1="1.28254e+06" y1="-5058.48" x2="1.28254e+06" y2="-1111.81" gradientUnits="userSpaceOnUse">
<stop stop-color="#592CB8"/>
<stop offset="1" stop-color="#2C66B8"/>
</linearGradient>
<linearGradient id="paint52_linear_44_4404" x1="1.2825e+06" y1="-4918.22" x2="1.2825e+06" y2="-1073.25" gradientUnits="userSpaceOnUse">
<stop stop-color="#592CB8"/>
<stop offset="1" stop-color="#2C66B8"/>
</linearGradient>
<linearGradient id="paint53_linear_44_4404" x1="1.28251e+06" y1="-4798.93" x2="1.28251e+06" y2="-1040.48" gradientUnits="userSpaceOnUse">
<stop stop-color="#592CB8"/>
<stop offset="1" stop-color="#2C66B8"/>
</linearGradient>
<linearGradient id="paint54_linear_44_4404" x1="1.28251e+06" y1="-4701.88" x2="1.28251e+06" y2="-1013.77" gradientUnits="userSpaceOnUse">
<stop stop-color="#592CB8"/>
<stop offset="1" stop-color="#2C66B8"/>
</linearGradient>
<linearGradient id="paint55_linear_44_4404" x1="1.28252e+06" y1="-4704.92" x2="1.28252e+06" y2="-1013.56" gradientUnits="userSpaceOnUse">
<stop stop-color="#592CB8"/>
<stop offset="1" stop-color="#2C66B8"/>
</linearGradient>
<linearGradient id="paint56_linear_44_4404" x1="1.28258e+06" y1="-4837.1" x2="1.28258e+06" y2="-1047.47" gradientUnits="userSpaceOnUse">
<stop stop-color="#592CB8"/>
<stop offset="1" stop-color="#2C66B8"/>
</linearGradient>
<linearGradient id="paint57_linear_44_4404" x1="1.28255e+06" y1="-4974.06" x2="1.28255e+06" y2="-1082.79" gradientUnits="userSpaceOnUse">
<stop stop-color="#592CB8"/>
<stop offset="1" stop-color="#2C66B8"/>
</linearGradient>
<linearGradient id="paint58_linear_44_4404" x1="1.28254e+06" y1="-5113.43" x2="1.28254e+06" y2="-1118.9" gradientUnits="userSpaceOnUse">
<stop stop-color="#592CB8"/>
<stop offset="1" stop-color="#2C66B8"/>
</linearGradient>
<linearGradient id="paint59_linear_44_4404" x1="1.2825e+06" y1="-5256.81" x2="1.2825e+06" y2="-1156.19" gradientUnits="userSpaceOnUse">
<stop stop-color="#592CB8"/>
<stop offset="1" stop-color="#2C66B8"/>
</linearGradient>
<linearGradient id="paint60_linear_44_4404" x1="1.28251e+06" y1="-5389.69" x2="1.28251e+06" y2="-1190.83" gradientUnits="userSpaceOnUse">
<stop stop-color="#592CB8"/>
<stop offset="1" stop-color="#2C66B8"/>
</linearGradient>
<linearGradient id="paint61_linear_44_4404" x1="1.28253e+06" y1="-5519.63" x2="1.28253e+06" y2="-1224.79" gradientUnits="userSpaceOnUse">
<stop stop-color="#592CB8"/>
<stop offset="1" stop-color="#2C66B8"/>
</linearGradient>
<linearGradient id="paint62_linear_44_4404" x1="1.28253e+06" y1="-5639.47" x2="1.28253e+06" y2="-1256.16" gradientUnits="userSpaceOnUse">
<stop stop-color="#592CB8"/>
<stop offset="1" stop-color="#2C66B8"/>
</linearGradient>
<linearGradient id="paint63_linear_44_4404" x1="1.28254e+06" y1="-5749.47" x2="1.28254e+06" y2="-1285.01" gradientUnits="userSpaceOnUse">
<stop stop-color="#592CB8"/>
<stop offset="1" stop-color="#2C66B8"/>
</linearGradient>
<linearGradient id="paint64_linear_44_4404" x1="1.28253e+06" y1="-5854.92" x2="1.28253e+06" y2="-1312.78" gradientUnits="userSpaceOnUse">
<stop stop-color="#592CB8"/>
<stop offset="1" stop-color="#2C66B8"/>
</linearGradient>
<linearGradient id="paint65_linear_44_4404" x1="1.28254e+06" y1="-5934.28" x2="1.28254e+06" y2="-1333.65" gradientUnits="userSpaceOnUse">
<stop stop-color="#592CB8"/>
<stop offset="1" stop-color="#2C66B8"/>
</linearGradient>
<linearGradient id="paint66_linear_44_4404" x1="1.28254e+06" y1="-6003.23" x2="1.28254e+06" y2="-1351.87" gradientUnits="userSpaceOnUse">
<stop stop-color="#592CB8"/>
<stop offset="1" stop-color="#2C66B8"/>
</linearGradient>
<linearGradient id="paint67_linear_44_4404" x1="1.28251e+06" y1="-6045.35" x2="1.28251e+06" y2="-1362.99" gradientUnits="userSpaceOnUse">
<stop stop-color="#592CB8"/>
<stop offset="1" stop-color="#2C66B8"/>
</linearGradient>
<linearGradient id="paint68_linear_44_4404" x1="1.28258e+06" y1="-6010.26" x2="1.28258e+06" y2="-1353.42" gradientUnits="userSpaceOnUse">
<stop stop-color="#592CB8"/>
<stop offset="1" stop-color="#2C66B8"/>
</linearGradient>
<clipPath id="clip0_44_4404">
<rect width="1341" height="369" fill="white" transform="matrix(1 -8.74228e-08 -8.74228e-08 -1 -5 369)"/>
</clipPath>
</defs>
</svg>
