<svg width="185" height="63" viewBox="0 0 185 63" fill="none" xmlns="http://www.w3.org/2000/svg">
<g filter="url(#filter0_i_360_19)">
<mask id="path-1-outside-1_360_19" maskUnits="userSpaceOnUse" x="4" y="0" width="175" height="63" fill="black">
<rect fill="white" x="4" width="175" height="63"/>
<path d="M33.6569 1H149.343V62H33.6569V1Z"/>
<path d="M33.6569 1L60.7509 27.9554C62.7156 29.9101 62.7156 33.0899 60.7509 35.0446L33.6569 62L6.56283 35.0446C4.5981 33.0899 4.5981 29.9101 6.56283 27.9554L33.6569 1Z"/>
<path d="M149.343 1L176.437 27.9554C178.402 29.9101 178.402 33.0899 176.437 35.0446L149.343 62L122.249 35.0446C120.284 33.0899 120.284 29.9101 122.249 27.9554L149.343 1Z"/>
</mask>
<path d="M33.6569 1H149.343V62H33.6569V1Z" fill="#0E0B18"/>
<path d="M33.6569 1H149.343V62H33.6569V1Z" fill="url(#paint0_linear_360_19)" fill-opacity="0.72"/>
<path d="M33.6569 1H149.343V62H33.6569V1Z" fill="url(#paint1_linear_360_19)" style="mix-blend-mode:plus-lighter"/>
<path d="M33.6569 1H149.343V62H33.6569V1Z" fill="url(#paint2_linear_360_19)" fill-opacity="0.2" style="mix-blend-mode:color-burn"/>
<path d="M33.6569 1L60.7509 27.9554C62.7156 29.9101 62.7156 33.0899 60.7509 35.0446L33.6569 62L6.56283 35.0446C4.5981 33.0899 4.5981 29.9101 6.56283 27.9554L33.6569 1Z" fill="#0E0B18"/>
<path d="M33.6569 1L60.7509 27.9554C62.7156 29.9101 62.7156 33.0899 60.7509 35.0446L33.6569 62L6.56283 35.0446C4.5981 33.0899 4.5981 29.9101 6.56283 27.9554L33.6569 1Z" fill="url(#paint3_linear_360_19)" fill-opacity="0.72"/>
<path d="M33.6569 1L60.7509 27.9554C62.7156 29.9101 62.7156 33.0899 60.7509 35.0446L33.6569 62L6.56283 35.0446C4.5981 33.0899 4.5981 29.9101 6.56283 27.9554L33.6569 1Z" fill="url(#paint4_linear_360_19)" style="mix-blend-mode:plus-lighter"/>
<path d="M33.6569 1L60.7509 27.9554C62.7156 29.9101 62.7156 33.0899 60.7509 35.0446L33.6569 62L6.56283 35.0446C4.5981 33.0899 4.5981 29.9101 6.56283 27.9554L33.6569 1Z" fill="url(#paint5_linear_360_19)" fill-opacity="0.2" style="mix-blend-mode:color-burn"/>
<path d="M149.343 1L176.437 27.9554C178.402 29.9101 178.402 33.0899 176.437 35.0446L149.343 62L122.249 35.0446C120.284 33.0899 120.284 29.9101 122.249 27.9554L149.343 1Z" fill="#0E0B18"/>
<path d="M149.343 1L176.437 27.9554C178.402 29.9101 178.402 33.0899 176.437 35.0446L149.343 62L122.249 35.0446C120.284 33.0899 120.284 29.9101 122.249 27.9554L149.343 1Z" fill="url(#paint6_linear_360_19)" fill-opacity="0.72"/>
<path d="M149.343 1L176.437 27.9554C178.402 29.9101 178.402 33.0899 176.437 35.0446L149.343 62L122.249 35.0446C120.284 33.0899 120.284 29.9101 122.249 27.9554L149.343 1Z" fill="url(#paint7_linear_360_19)" style="mix-blend-mode:plus-lighter"/>
<path d="M149.343 1L176.437 27.9554C178.402 29.9101 178.402 33.0899 176.437 35.0446L149.343 62L122.249 35.0446C120.284 33.0899 120.284 29.9101 122.249 27.9554L149.343 1Z" fill="url(#paint8_linear_360_19)" fill-opacity="0.2" style="mix-blend-mode:color-burn"/>
<g clip-path="url(#paint9_diamond_360_19_clip_path)" data-figma-skip-parse="true" mask="url(#path-1-outside-1_360_19)"><g transform="matrix(0 0.0305 -0.0885 0 91.5 31.5)"><rect x="0" y="0" width="1032.79" height="1011.3" fill="url(#paint9_diamond_360_19)" opacity="1" shape-rendering="crispEdges"/><rect x="0" y="0" width="1032.79" height="1011.3" transform="scale(1 -1)" fill="url(#paint9_diamond_360_19)" opacity="1" shape-rendering="crispEdges"/><rect x="0" y="0" width="1032.79" height="1011.3" transform="scale(-1 1)" fill="url(#paint9_diamond_360_19)" opacity="1" shape-rendering="crispEdges"/><rect x="0" y="0" width="1032.79" height="1011.3" transform="scale(-1)" fill="url(#paint9_diamond_360_19)" opacity="1" shape-rendering="crispEdges"/></g></g><path d="M33.6569 1V0H33.2442L32.9516 0.291081L33.6569 1ZM149.343 1L150.048 0.291082L149.756 0H149.343V1ZM149.343 62V63H149.756L150.048 62.7089L149.343 62ZM33.6569 62L32.9516 62.7089L33.2442 63H33.6569V62ZM122.249 35.0446L121.544 35.7535L122.249 35.0446ZM122.249 27.9554L121.544 27.2465L122.249 27.9554ZM176.437 27.9554L175.732 28.6643L176.437 27.9554ZM6.56283 35.0446L7.26812 34.3357L6.56283 35.0446ZM60.7509 27.9554L60.0456 28.6643L60.7509 27.9554ZM60.7509 35.0446L60.0456 34.3357L60.7509 35.0446ZM33.6569 2H149.343V0H33.6569V2ZM148.343 1V62H150.343V1H148.343ZM149.343 61H33.6569V63H149.343V61ZM34.6569 62V1H32.6569V62H34.6569ZM32.9516 1.70892L60.0456 28.6643L61.4562 27.2465L34.3622 0.291082L32.9516 1.70892ZM60.0456 34.3357L32.9516 61.2911L34.3622 62.7089L61.4562 35.7535L60.0456 34.3357ZM34.3622 61.2911L7.26812 34.3357L5.85754 35.7535L32.9516 62.7089L34.3622 61.2911ZM7.26812 28.6643L34.3622 1.70892L32.9516 0.291081L5.85754 27.2465L7.26812 28.6643ZM148.638 1.70892L175.732 28.6643L177.142 27.2465L150.048 0.291082L148.638 1.70892ZM175.732 34.3357L148.638 61.2911L150.048 62.7089L177.142 35.7535L175.732 34.3357ZM150.048 61.2911L122.954 34.3357L121.544 35.7535L148.638 62.7089L150.048 61.2911ZM122.954 28.6643L150.048 1.70892L148.638 0.291082L121.544 27.2465L122.954 28.6643ZM122.954 34.3357C121.383 32.7719 121.383 30.2281 122.954 28.6643L121.544 27.2465C119.186 29.5921 119.186 33.4079 121.544 35.7535L122.954 34.3357ZM175.732 28.6643C177.304 30.2281 177.304 32.7719 175.732 34.3357L177.142 35.7535C179.5 33.4079 179.5 29.5921 177.142 27.2465L175.732 28.6643ZM7.26812 34.3357C5.69633 32.7719 5.69633 30.2281 7.26812 28.6643L5.85754 27.2465C3.49986 29.5921 3.49986 33.4079 5.85754 35.7535L7.26812 34.3357ZM60.0456 28.6643C61.6174 30.2281 61.6174 32.7719 60.0456 34.3357L61.4562 35.7535C63.8139 33.4079 63.8139 29.5921 61.4562 27.2465L60.0456 28.6643Z" data-figma-gradient-fill="{&#34;type&#34;:&#34;GRADIENT_DIAMOND&#34;,&#34;stops&#34;:[{&#34;color&#34;:{&#34;r&#34;:0.60833334922790527,&#34;g&#34;:0.33458334207534790,&#34;b&#34;:0.47145834565162659,&#34;a&#34;:1.0},&#34;position&#34;:0.0},{&#34;color&#34;:{&#34;r&#34;:0.76333332061767578,&#34;g&#34;:0.36830827593803406,&#34;b&#34;:0.56582081317901611,&#34;a&#34;:1.0},&#34;position&#34;:0.40099975466728210},{&#34;color&#34;:{&#34;r&#34;:0.20833334326744080,&#34;g&#34;:0.11458334326744080,&#34;b&#34;:0.16145834326744080,&#34;a&#34;:1.0},&#34;position&#34;:1.0}],&#34;stopsVar&#34;:[{&#34;color&#34;:{&#34;r&#34;:0.60833334922790527,&#34;g&#34;:0.33458334207534790,&#34;b&#34;:0.47145834565162659,&#34;a&#34;:1.0},&#34;position&#34;:0.0},{&#34;color&#34;:{&#34;r&#34;:0.76333332061767578,&#34;g&#34;:0.36830827593803406,&#34;b&#34;:0.56582081317901611,&#34;a&#34;:1.0},&#34;position&#34;:0.40099975466728210},{&#34;color&#34;:{&#34;r&#34;:0.20833334326744080,&#34;g&#34;:0.11458334326744080,&#34;b&#34;:0.16145834326744080,&#34;a&#34;:1.0},&#34;position&#34;:1.0}],&#34;transform&#34;:{&#34;m00&#34;:1.0838124526264727e-14,&#34;m01&#34;:-177.0,&#34;m02&#34;:180.0,&#34;m10&#34;:61.0,&#34;m11&#34;:3.7351730459685498e-15,&#34;m12&#34;:1.0},&#34;opacity&#34;:1.0,&#34;blendMode&#34;:&#34;NORMAL&#34;,&#34;visible&#34;:true}" mask="url(#path-1-outside-1_360_19)"/>
</g>
<g style="mix-blend-mode:plus-lighter" filter="url(#filter1_i_360_19)">
<path d="M53.6925 37.76H53.9085V38H46.2525V37.76H46.4685C46.8205 37.76 47.0765 37.656 47.2365 37.448C47.4125 37.224 47.5005 37.016 47.5005 36.824C47.5005 36.632 47.4605 36.44 47.3805 36.248L46.2045 33.296H40.5885L39.3405 36.248C39.2605 36.456 39.2205 36.656 39.2205 36.848C39.2205 37.024 39.3005 37.224 39.4605 37.448C39.6365 37.656 39.9085 37.76 40.2765 37.76H40.4685V38H35.3325V37.76H35.5485C35.9165 37.76 36.2845 37.648 36.6525 37.424C37.0205 37.2 37.3245 36.864 37.5645 36.416L43.1085 23.864C43.8605 22.28 44.2605 21.232 44.3085 20.72H44.5245L51.6525 36.368C51.8925 36.832 52.1965 37.184 52.5645 37.424C52.9325 37.648 53.3085 37.76 53.6925 37.76ZM40.9965 32.288H45.7965L43.4685 26.384L40.9965 32.288ZM63.3787 38.312C60.2907 38.312 57.8667 37.536 56.1067 35.984C54.3467 34.432 53.4667 32.304 53.4667 29.6C53.4667 26.896 54.3387 24.768 56.0827 23.216C57.8267 21.648 60.2187 20.864 63.2587 20.864C65.5787 20.864 67.5707 21.296 69.2347 22.16L69.2827 26.288H69.0907C68.2747 23.344 66.4107 21.872 63.4987 21.872C61.6107 21.872 60.1147 22.56 59.0107 23.936C57.9227 25.296 57.3787 27.16 57.3787 29.528C57.3787 31.896 57.8987 33.776 58.9387 35.168C59.9947 36.56 61.4187 37.28 63.2107 37.328C65.0667 37.328 66.4827 36.864 67.4587 35.936C68.4507 34.976 69.1387 33.328 69.5227 30.992H69.7147L69.9547 35.12C68.6587 37.264 66.4667 38.328 63.3787 38.312ZM72.363 37.76C72.779 37.76 73.131 37.616 73.419 37.328C73.723 37.024 73.883 36.664 73.899 36.248V22.88C73.851 22.32 73.587 21.904 73.107 21.632C72.867 21.504 72.619 21.44 72.363 21.44H72.051V21.2H81.243C81.739 21.2 82.283 21.152 82.875 21.056C83.467 20.96 83.883 20.864 84.123 20.768V24.968H83.883V24.68C83.883 23.96 83.667 23.384 83.235 22.952C82.819 22.504 82.251 22.264 81.531 22.232H77.499V29.216H80.667C81.259 29.2 81.747 29 82.131 28.616C82.515 28.216 82.707 27.728 82.707 27.152V26.936H82.947V32.48H82.707V32.288C82.707 31.488 82.387 30.896 81.747 30.512C81.427 30.336 81.075 30.24 80.691 30.224H77.499V36.968H80.643C81.811 36.968 82.787 36.632 83.571 35.96C84.371 35.288 84.963 34.336 85.347 33.104H85.587L84.483 38H72.051V37.76H72.363ZM87.3836 35.768C87.3836 34.616 87.6316 33.632 88.1276 32.816H88.3436C88.3276 32.944 88.3196 33.072 88.3196 33.2C88.3196 34.304 88.7116 35.272 89.4956 36.104C90.2956 36.92 91.3836 37.328 92.7596 37.328C93.8316 37.328 94.6636 37.072 95.2556 36.56C95.8636 36.048 96.1676 35.4 96.1676 34.616C96.1676 33.672 95.5276 32.848 94.2476 32.144L90.0716 29.384C89.2396 28.904 88.6396 28.328 88.2716 27.656C87.9196 26.968 87.7436 26.272 87.7436 25.568C87.7436 24.064 88.2156 22.904 89.1596 22.088C90.1196 21.272 91.3436 20.864 92.8316 20.864C93.7116 20.864 94.7996 20.944 96.0956 21.104H97.6076L97.2956 24.632H97.0556C97.0556 23.8 96.7436 23.136 96.1196 22.64C95.5116 22.128 94.6956 21.872 93.6716 21.872C92.4236 21.872 91.5196 22.256 90.9596 23.024C90.6716 23.392 90.5276 23.808 90.5276 24.272C90.5276 25.04 91.0876 25.752 92.2076 26.408L96.7916 29.384C98.2316 30.216 98.9516 31.44 98.9516 33.056C98.9516 34.768 98.3676 36.08 97.1996 36.992C96.0476 37.888 94.5116 38.336 92.5916 38.336C91.5036 38.336 90.4956 38.208 89.5676 37.952C88.6556 37.68 87.9836 37.32 87.5516 36.872C87.4396 36.568 87.3836 36.2 87.3836 35.768ZM101.259 35.768C101.259 34.616 101.507 33.632 102.003 32.816H102.219C102.203 32.944 102.195 33.072 102.195 33.2C102.195 34.304 102.587 35.272 103.371 36.104C104.171 36.92 105.259 37.328 106.635 37.328C107.707 37.328 108.539 37.072 109.131 36.56C109.739 36.048 110.043 35.4 110.043 34.616C110.043 33.672 109.403 32.848 108.123 32.144L103.947 29.384C103.115 28.904 102.515 28.328 102.147 27.656C101.795 26.968 101.619 26.272 101.619 25.568C101.619 24.064 102.091 22.904 103.035 22.088C103.995 21.272 105.219 20.864 106.707 20.864C107.587 20.864 108.675 20.944 109.971 21.104H111.483L111.171 24.632H110.931C110.931 23.8 110.619 23.136 109.995 22.64C109.387 22.128 108.571 21.872 107.547 21.872C106.299 21.872 105.395 22.256 104.835 23.024C104.547 23.392 104.403 23.808 104.403 24.272C104.403 25.04 104.963 25.752 106.083 26.408L110.667 29.384C112.107 30.216 112.827 31.44 112.827 33.056C112.827 34.768 112.243 36.08 111.075 36.992C109.923 37.888 108.387 38.336 106.467 38.336C105.379 38.336 104.371 38.208 103.443 37.952C102.531 37.68 101.859 37.32 101.427 36.872C101.315 36.568 101.259 36.2 101.259 35.768ZM131.646 37.76H131.862V38H124.206V37.76H124.422C124.774 37.76 125.03 37.656 125.19 37.448C125.366 37.224 125.454 37.016 125.454 36.824C125.454 36.632 125.414 36.44 125.334 36.248L124.158 33.296H118.542L117.294 36.248C117.214 36.456 117.174 36.656 117.174 36.848C117.174 37.024 117.254 37.224 117.414 37.448C117.59 37.656 117.862 37.76 118.23 37.76H118.422V38H113.286V37.76H113.502C113.87 37.76 114.238 37.648 114.606 37.424C114.974 37.2 115.278 36.864 115.518 36.416L121.062 23.864C121.814 22.28 122.214 21.232 122.262 20.72H122.478L129.606 36.368C129.846 36.832 130.15 37.184 130.518 37.424C130.886 37.648 131.262 37.76 131.646 37.76ZM118.95 32.288H123.75L121.422 26.384L118.95 32.288ZM138.745 22.256H137.713C137.681 22.256 137.657 22.256 137.641 22.256V36.248C137.657 36.84 137.913 37.28 138.409 37.568C138.649 37.696 138.905 37.76 139.177 37.76H139.489V38H132.193V37.76H132.505C133.081 37.76 133.521 37.512 133.825 37.016C133.953 36.792 134.025 36.544 134.041 36.272V22.952C134.025 22.536 133.865 22.184 133.561 21.896C133.273 21.592 132.921 21.44 132.505 21.44H132.193V21.2H140.425C141.977 21.2 143.289 21.536 144.361 22.208C144.905 22.544 145.337 23.016 145.657 23.624C145.977 24.216 146.137 24.896 146.137 25.664C146.137 26.416 146.001 27.112 145.729 27.752C145.473 28.392 145.033 28.952 144.409 29.432C143.801 29.912 143.065 30.2 142.201 30.296C143.129 30.6 143.945 31.304 144.649 32.408C146.377 35.176 147.657 36.824 148.489 37.352C148.905 37.608 149.425 37.744 150.049 37.76V38H147.697C146.337 38 145.201 37.816 144.289 37.448C143.377 37.064 142.633 36.416 142.057 35.504C141.769 35.04 141.401 34.344 140.953 33.416C140.505 32.472 140.209 31.8 140.065 31.4C139.633 30.44 139.089 29.904 138.433 29.792V29.552H139.177C139.897 29.552 140.529 29.336 141.073 28.904C141.633 28.472 142.009 27.768 142.201 26.792C142.265 26.456 142.297 26.192 142.297 26C142.297 24.688 142.033 23.744 141.505 23.168C140.977 22.576 140.297 22.272 139.465 22.256C139.305 22.256 139.065 22.256 138.745 22.256Z" fill="url(#paint10_linear_360_19)"/>
<path d="M53.6925 37.76H53.9085V38H46.2525V37.76H46.4685C46.8205 37.76 47.0765 37.656 47.2365 37.448C47.4125 37.224 47.5005 37.016 47.5005 36.824C47.5005 36.632 47.4605 36.44 47.3805 36.248L46.2045 33.296H40.5885L39.3405 36.248C39.2605 36.456 39.2205 36.656 39.2205 36.848C39.2205 37.024 39.3005 37.224 39.4605 37.448C39.6365 37.656 39.9085 37.76 40.2765 37.76H40.4685V38H35.3325V37.76H35.5485C35.9165 37.76 36.2845 37.648 36.6525 37.424C37.0205 37.2 37.3245 36.864 37.5645 36.416L43.1085 23.864C43.8605 22.28 44.2605 21.232 44.3085 20.72H44.5245L51.6525 36.368C51.8925 36.832 52.1965 37.184 52.5645 37.424C52.9325 37.648 53.3085 37.76 53.6925 37.76ZM40.9965 32.288H45.7965L43.4685 26.384L40.9965 32.288ZM63.3787 38.312C60.2907 38.312 57.8667 37.536 56.1067 35.984C54.3467 34.432 53.4667 32.304 53.4667 29.6C53.4667 26.896 54.3387 24.768 56.0827 23.216C57.8267 21.648 60.2187 20.864 63.2587 20.864C65.5787 20.864 67.5707 21.296 69.2347 22.16L69.2827 26.288H69.0907C68.2747 23.344 66.4107 21.872 63.4987 21.872C61.6107 21.872 60.1147 22.56 59.0107 23.936C57.9227 25.296 57.3787 27.16 57.3787 29.528C57.3787 31.896 57.8987 33.776 58.9387 35.168C59.9947 36.56 61.4187 37.28 63.2107 37.328C65.0667 37.328 66.4827 36.864 67.4587 35.936C68.4507 34.976 69.1387 33.328 69.5227 30.992H69.7147L69.9547 35.12C68.6587 37.264 66.4667 38.328 63.3787 38.312ZM72.363 37.76C72.779 37.76 73.131 37.616 73.419 37.328C73.723 37.024 73.883 36.664 73.899 36.248V22.88C73.851 22.32 73.587 21.904 73.107 21.632C72.867 21.504 72.619 21.44 72.363 21.44H72.051V21.2H81.243C81.739 21.2 82.283 21.152 82.875 21.056C83.467 20.96 83.883 20.864 84.123 20.768V24.968H83.883V24.68C83.883 23.96 83.667 23.384 83.235 22.952C82.819 22.504 82.251 22.264 81.531 22.232H77.499V29.216H80.667C81.259 29.2 81.747 29 82.131 28.616C82.515 28.216 82.707 27.728 82.707 27.152V26.936H82.947V32.48H82.707V32.288C82.707 31.488 82.387 30.896 81.747 30.512C81.427 30.336 81.075 30.24 80.691 30.224H77.499V36.968H80.643C81.811 36.968 82.787 36.632 83.571 35.96C84.371 35.288 84.963 34.336 85.347 33.104H85.587L84.483 38H72.051V37.76H72.363ZM87.3836 35.768C87.3836 34.616 87.6316 33.632 88.1276 32.816H88.3436C88.3276 32.944 88.3196 33.072 88.3196 33.2C88.3196 34.304 88.7116 35.272 89.4956 36.104C90.2956 36.92 91.3836 37.328 92.7596 37.328C93.8316 37.328 94.6636 37.072 95.2556 36.56C95.8636 36.048 96.1676 35.4 96.1676 34.616C96.1676 33.672 95.5276 32.848 94.2476 32.144L90.0716 29.384C89.2396 28.904 88.6396 28.328 88.2716 27.656C87.9196 26.968 87.7436 26.272 87.7436 25.568C87.7436 24.064 88.2156 22.904 89.1596 22.088C90.1196 21.272 91.3436 20.864 92.8316 20.864C93.7116 20.864 94.7996 20.944 96.0956 21.104H97.6076L97.2956 24.632H97.0556C97.0556 23.8 96.7436 23.136 96.1196 22.64C95.5116 22.128 94.6956 21.872 93.6716 21.872C92.4236 21.872 91.5196 22.256 90.9596 23.024C90.6716 23.392 90.5276 23.808 90.5276 24.272C90.5276 25.04 91.0876 25.752 92.2076 26.408L96.7916 29.384C98.2316 30.216 98.9516 31.44 98.9516 33.056C98.9516 34.768 98.3676 36.08 97.1996 36.992C96.0476 37.888 94.5116 38.336 92.5916 38.336C91.5036 38.336 90.4956 38.208 89.5676 37.952C88.6556 37.68 87.9836 37.32 87.5516 36.872C87.4396 36.568 87.3836 36.2 87.3836 35.768ZM101.259 35.768C101.259 34.616 101.507 33.632 102.003 32.816H102.219C102.203 32.944 102.195 33.072 102.195 33.2C102.195 34.304 102.587 35.272 103.371 36.104C104.171 36.92 105.259 37.328 106.635 37.328C107.707 37.328 108.539 37.072 109.131 36.56C109.739 36.048 110.043 35.4 110.043 34.616C110.043 33.672 109.403 32.848 108.123 32.144L103.947 29.384C103.115 28.904 102.515 28.328 102.147 27.656C101.795 26.968 101.619 26.272 101.619 25.568C101.619 24.064 102.091 22.904 103.035 22.088C103.995 21.272 105.219 20.864 106.707 20.864C107.587 20.864 108.675 20.944 109.971 21.104H111.483L111.171 24.632H110.931C110.931 23.8 110.619 23.136 109.995 22.64C109.387 22.128 108.571 21.872 107.547 21.872C106.299 21.872 105.395 22.256 104.835 23.024C104.547 23.392 104.403 23.808 104.403 24.272C104.403 25.04 104.963 25.752 106.083 26.408L110.667 29.384C112.107 30.216 112.827 31.44 112.827 33.056C112.827 34.768 112.243 36.08 111.075 36.992C109.923 37.888 108.387 38.336 106.467 38.336C105.379 38.336 104.371 38.208 103.443 37.952C102.531 37.68 101.859 37.32 101.427 36.872C101.315 36.568 101.259 36.2 101.259 35.768ZM131.646 37.76H131.862V38H124.206V37.76H124.422C124.774 37.76 125.03 37.656 125.19 37.448C125.366 37.224 125.454 37.016 125.454 36.824C125.454 36.632 125.414 36.44 125.334 36.248L124.158 33.296H118.542L117.294 36.248C117.214 36.456 117.174 36.656 117.174 36.848C117.174 37.024 117.254 37.224 117.414 37.448C117.59 37.656 117.862 37.76 118.23 37.76H118.422V38H113.286V37.76H113.502C113.87 37.76 114.238 37.648 114.606 37.424C114.974 37.2 115.278 36.864 115.518 36.416L121.062 23.864C121.814 22.28 122.214 21.232 122.262 20.72H122.478L129.606 36.368C129.846 36.832 130.15 37.184 130.518 37.424C130.886 37.648 131.262 37.76 131.646 37.76ZM118.95 32.288H123.75L121.422 26.384L118.95 32.288ZM138.745 22.256H137.713C137.681 22.256 137.657 22.256 137.641 22.256V36.248C137.657 36.84 137.913 37.28 138.409 37.568C138.649 37.696 138.905 37.76 139.177 37.76H139.489V38H132.193V37.76H132.505C133.081 37.76 133.521 37.512 133.825 37.016C133.953 36.792 134.025 36.544 134.041 36.272V22.952C134.025 22.536 133.865 22.184 133.561 21.896C133.273 21.592 132.921 21.44 132.505 21.44H132.193V21.2H140.425C141.977 21.2 143.289 21.536 144.361 22.208C144.905 22.544 145.337 23.016 145.657 23.624C145.977 24.216 146.137 24.896 146.137 25.664C146.137 26.416 146.001 27.112 145.729 27.752C145.473 28.392 145.033 28.952 144.409 29.432C143.801 29.912 143.065 30.2 142.201 30.296C143.129 30.6 143.945 31.304 144.649 32.408C146.377 35.176 147.657 36.824 148.489 37.352C148.905 37.608 149.425 37.744 150.049 37.76V38H147.697C146.337 38 145.201 37.816 144.289 37.448C143.377 37.064 142.633 36.416 142.057 35.504C141.769 35.04 141.401 34.344 140.953 33.416C140.505 32.472 140.209 31.8 140.065 31.4C139.633 30.44 139.089 29.904 138.433 29.792V29.552H139.177C139.897 29.552 140.529 29.336 141.073 28.904C141.633 28.472 142.009 27.768 142.201 26.792C142.265 26.456 142.297 26.192 142.297 26C142.297 24.688 142.033 23.744 141.505 23.168C140.977 22.576 140.297 22.272 139.465 22.256C139.305 22.256 139.065 22.256 138.745 22.256Z" fill="url(#paint11_linear_360_19)" fill-opacity="0.7"/>
<path d="M53.6925 37.76H53.9085V38H46.2525V37.76H46.4685C46.8205 37.76 47.0765 37.656 47.2365 37.448C47.4125 37.224 47.5005 37.016 47.5005 36.824C47.5005 36.632 47.4605 36.44 47.3805 36.248L46.2045 33.296H40.5885L39.3405 36.248C39.2605 36.456 39.2205 36.656 39.2205 36.848C39.2205 37.024 39.3005 37.224 39.4605 37.448C39.6365 37.656 39.9085 37.76 40.2765 37.76H40.4685V38H35.3325V37.76H35.5485C35.9165 37.76 36.2845 37.648 36.6525 37.424C37.0205 37.2 37.3245 36.864 37.5645 36.416L43.1085 23.864C43.8605 22.28 44.2605 21.232 44.3085 20.72H44.5245L51.6525 36.368C51.8925 36.832 52.1965 37.184 52.5645 37.424C52.9325 37.648 53.3085 37.76 53.6925 37.76ZM40.9965 32.288H45.7965L43.4685 26.384L40.9965 32.288ZM63.3787 38.312C60.2907 38.312 57.8667 37.536 56.1067 35.984C54.3467 34.432 53.4667 32.304 53.4667 29.6C53.4667 26.896 54.3387 24.768 56.0827 23.216C57.8267 21.648 60.2187 20.864 63.2587 20.864C65.5787 20.864 67.5707 21.296 69.2347 22.16L69.2827 26.288H69.0907C68.2747 23.344 66.4107 21.872 63.4987 21.872C61.6107 21.872 60.1147 22.56 59.0107 23.936C57.9227 25.296 57.3787 27.16 57.3787 29.528C57.3787 31.896 57.8987 33.776 58.9387 35.168C59.9947 36.56 61.4187 37.28 63.2107 37.328C65.0667 37.328 66.4827 36.864 67.4587 35.936C68.4507 34.976 69.1387 33.328 69.5227 30.992H69.7147L69.9547 35.12C68.6587 37.264 66.4667 38.328 63.3787 38.312ZM72.363 37.76C72.779 37.76 73.131 37.616 73.419 37.328C73.723 37.024 73.883 36.664 73.899 36.248V22.88C73.851 22.32 73.587 21.904 73.107 21.632C72.867 21.504 72.619 21.44 72.363 21.44H72.051V21.2H81.243C81.739 21.2 82.283 21.152 82.875 21.056C83.467 20.96 83.883 20.864 84.123 20.768V24.968H83.883V24.68C83.883 23.96 83.667 23.384 83.235 22.952C82.819 22.504 82.251 22.264 81.531 22.232H77.499V29.216H80.667C81.259 29.2 81.747 29 82.131 28.616C82.515 28.216 82.707 27.728 82.707 27.152V26.936H82.947V32.48H82.707V32.288C82.707 31.488 82.387 30.896 81.747 30.512C81.427 30.336 81.075 30.24 80.691 30.224H77.499V36.968H80.643C81.811 36.968 82.787 36.632 83.571 35.96C84.371 35.288 84.963 34.336 85.347 33.104H85.587L84.483 38H72.051V37.76H72.363ZM87.3836 35.768C87.3836 34.616 87.6316 33.632 88.1276 32.816H88.3436C88.3276 32.944 88.3196 33.072 88.3196 33.2C88.3196 34.304 88.7116 35.272 89.4956 36.104C90.2956 36.92 91.3836 37.328 92.7596 37.328C93.8316 37.328 94.6636 37.072 95.2556 36.56C95.8636 36.048 96.1676 35.4 96.1676 34.616C96.1676 33.672 95.5276 32.848 94.2476 32.144L90.0716 29.384C89.2396 28.904 88.6396 28.328 88.2716 27.656C87.9196 26.968 87.7436 26.272 87.7436 25.568C87.7436 24.064 88.2156 22.904 89.1596 22.088C90.1196 21.272 91.3436 20.864 92.8316 20.864C93.7116 20.864 94.7996 20.944 96.0956 21.104H97.6076L97.2956 24.632H97.0556C97.0556 23.8 96.7436 23.136 96.1196 22.64C95.5116 22.128 94.6956 21.872 93.6716 21.872C92.4236 21.872 91.5196 22.256 90.9596 23.024C90.6716 23.392 90.5276 23.808 90.5276 24.272C90.5276 25.04 91.0876 25.752 92.2076 26.408L96.7916 29.384C98.2316 30.216 98.9516 31.44 98.9516 33.056C98.9516 34.768 98.3676 36.08 97.1996 36.992C96.0476 37.888 94.5116 38.336 92.5916 38.336C91.5036 38.336 90.4956 38.208 89.5676 37.952C88.6556 37.68 87.9836 37.32 87.5516 36.872C87.4396 36.568 87.3836 36.2 87.3836 35.768ZM101.259 35.768C101.259 34.616 101.507 33.632 102.003 32.816H102.219C102.203 32.944 102.195 33.072 102.195 33.2C102.195 34.304 102.587 35.272 103.371 36.104C104.171 36.92 105.259 37.328 106.635 37.328C107.707 37.328 108.539 37.072 109.131 36.56C109.739 36.048 110.043 35.4 110.043 34.616C110.043 33.672 109.403 32.848 108.123 32.144L103.947 29.384C103.115 28.904 102.515 28.328 102.147 27.656C101.795 26.968 101.619 26.272 101.619 25.568C101.619 24.064 102.091 22.904 103.035 22.088C103.995 21.272 105.219 20.864 106.707 20.864C107.587 20.864 108.675 20.944 109.971 21.104H111.483L111.171 24.632H110.931C110.931 23.8 110.619 23.136 109.995 22.64C109.387 22.128 108.571 21.872 107.547 21.872C106.299 21.872 105.395 22.256 104.835 23.024C104.547 23.392 104.403 23.808 104.403 24.272C104.403 25.04 104.963 25.752 106.083 26.408L110.667 29.384C112.107 30.216 112.827 31.44 112.827 33.056C112.827 34.768 112.243 36.08 111.075 36.992C109.923 37.888 108.387 38.336 106.467 38.336C105.379 38.336 104.371 38.208 103.443 37.952C102.531 37.68 101.859 37.32 101.427 36.872C101.315 36.568 101.259 36.2 101.259 35.768ZM131.646 37.76H131.862V38H124.206V37.76H124.422C124.774 37.76 125.03 37.656 125.19 37.448C125.366 37.224 125.454 37.016 125.454 36.824C125.454 36.632 125.414 36.44 125.334 36.248L124.158 33.296H118.542L117.294 36.248C117.214 36.456 117.174 36.656 117.174 36.848C117.174 37.024 117.254 37.224 117.414 37.448C117.59 37.656 117.862 37.76 118.23 37.76H118.422V38H113.286V37.76H113.502C113.87 37.76 114.238 37.648 114.606 37.424C114.974 37.2 115.278 36.864 115.518 36.416L121.062 23.864C121.814 22.28 122.214 21.232 122.262 20.72H122.478L129.606 36.368C129.846 36.832 130.15 37.184 130.518 37.424C130.886 37.648 131.262 37.76 131.646 37.76ZM118.95 32.288H123.75L121.422 26.384L118.95 32.288ZM138.745 22.256H137.713C137.681 22.256 137.657 22.256 137.641 22.256V36.248C137.657 36.84 137.913 37.28 138.409 37.568C138.649 37.696 138.905 37.76 139.177 37.76H139.489V38H132.193V37.76H132.505C133.081 37.76 133.521 37.512 133.825 37.016C133.953 36.792 134.025 36.544 134.041 36.272V22.952C134.025 22.536 133.865 22.184 133.561 21.896C133.273 21.592 132.921 21.44 132.505 21.44H132.193V21.2H140.425C141.977 21.2 143.289 21.536 144.361 22.208C144.905 22.544 145.337 23.016 145.657 23.624C145.977 24.216 146.137 24.896 146.137 25.664C146.137 26.416 146.001 27.112 145.729 27.752C145.473 28.392 145.033 28.952 144.409 29.432C143.801 29.912 143.065 30.2 142.201 30.296C143.129 30.6 143.945 31.304 144.649 32.408C146.377 35.176 147.657 36.824 148.489 37.352C148.905 37.608 149.425 37.744 150.049 37.76V38H147.697C146.337 38 145.201 37.816 144.289 37.448C143.377 37.064 142.633 36.416 142.057 35.504C141.769 35.04 141.401 34.344 140.953 33.416C140.505 32.472 140.209 31.8 140.065 31.4C139.633 30.44 139.089 29.904 138.433 29.792V29.552H139.177C139.897 29.552 140.529 29.336 141.073 28.904C141.633 28.472 142.009 27.768 142.201 26.792C142.265 26.456 142.297 26.192 142.297 26C142.297 24.688 142.033 23.744 141.505 23.168C140.977 22.576 140.297 22.272 139.465 22.256C139.305 22.256 139.065 22.256 138.745 22.256Z" fill="url(#paint12_radial_360_19)" fill-opacity="0.3"/>
</g>
<mask id="mask0_360_19" style="mask-type:alpha" maskUnits="userSpaceOnUse" x="4" y="0" width="177" height="65">
<path d="M35.0696 1L34.6569 0.5894L34.2442 1H33.6569V1.58428L6.85754 28.2465C4.49986 30.5921 4.49986 34.4079 6.85754 36.7535L33.6569 63.4157V64H34.2442L34.6569 64.4106L35.0696 64H149.93L150.343 64.4106L150.756 64H151.343V63.4157L178.142 36.7535C180.5 34.4079 180.5 30.5921 178.142 28.2465L151.343 1.58428V1H150.756L150.343 0.5894L149.93 1H35.0696Z" fill="#1F1D29"/>
<path d="M35.0696 1L34.6569 0.5894L34.2442 1H33.6569V1.58428L6.85754 28.2465C4.49986 30.5921 4.49986 34.4079 6.85754 36.7535L33.6569 63.4157V64H34.2442L34.6569 64.4106L35.0696 64H149.93L150.343 64.4106L150.756 64H151.343V63.4157L178.142 36.7535C180.5 34.4079 180.5 30.5921 178.142 28.2465L151.343 1.58428V1H150.756L150.343 0.5894L149.93 1H35.0696Z" fill="url(#paint13_linear_360_19)" fill-opacity="0.72"/>
<path d="M35.0696 1L34.6569 0.5894L34.2442 1H33.6569V1.58428L6.85754 28.2465C4.49986 30.5921 4.49986 34.4079 6.85754 36.7535L33.6569 63.4157V64H34.2442L34.6569 64.4106L35.0696 64H149.93L150.343 64.4106L150.756 64H151.343V63.4157L178.142 36.7535C180.5 34.4079 180.5 30.5921 178.142 28.2465L151.343 1.58428V1H150.756L150.343 0.5894L149.93 1H35.0696Z" fill="url(#paint14_linear_360_19)"/>
<path d="M35.0696 1L34.6569 0.5894L34.2442 1H33.6569V1.58428L6.85754 28.2465C4.49986 30.5921 4.49986 34.4079 6.85754 36.7535L33.6569 63.4157V64H34.2442L34.6569 64.4106L35.0696 64H149.93L150.343 64.4106L150.756 64H151.343V63.4157L178.142 36.7535C180.5 34.4079 180.5 30.5921 178.142 28.2465L151.343 1.58428V1H150.756L150.343 0.5894L149.93 1H35.0696Z" stroke="#290D1B" stroke-width="2"/>
</mask>
<g mask="url(#mask0_360_19)">
<path d="M0 28.5358H201.5C188.094 15.1296 173.804 4.59593 159 -3.00003H42.4032C27.7506 4.54205 13.5019 15.0338 0 28.5358Z" fill="url(#paint15_linear_360_19)" fill-opacity="0.16"/>
<path d="M-8 27.1281C54.5 -35.3719 133 -33.3719 193.5 27.1281H-8Z" fill="url(#paint16_linear_360_19)" style="mix-blend-mode:color-dodge"/>
</g>
<defs>
<filter id="filter0_i_360_19" x="4.08923" y="0" width="174.822" height="63" filterUnits="userSpaceOnUse" color-interpolation-filters="sRGB">
<feFlood flood-opacity="0" result="BackgroundImageFix"/>
<feBlend mode="normal" in="SourceGraphic" in2="BackgroundImageFix" result="shape"/>
<feColorMatrix in="SourceAlpha" type="matrix" values="0 0 0 0 0 0 0 0 0 0 0 0 0 0 0 0 0 0 127 0" result="hardAlpha"/>
<feOffset/>
<feGaussianBlur stdDeviation="12.5"/>
<feComposite in2="hardAlpha" operator="arithmetic" k2="-1" k3="1"/>
<feColorMatrix type="matrix" values="0 0 0 0 0 0 0 0 0 0 0 0 0 0 0 0 0 0 0.42 0"/>
<feBlend mode="normal" in2="shape" result="effect1_innerShadow_360_19"/>
</filter>
<clipPath id="paint9_diamond_360_19_clip_path"><path d="M33.6569 1V0H33.2442L32.9516 0.291081L33.6569 1ZM149.343 1L150.048 0.291082L149.756 0H149.343V1ZM149.343 62V63H149.756L150.048 62.7089L149.343 62ZM33.6569 62L32.9516 62.7089L33.2442 63H33.6569V62ZM122.249 35.0446L121.544 35.7535L122.249 35.0446ZM122.249 27.9554L121.544 27.2465L122.249 27.9554ZM176.437 27.9554L175.732 28.6643L176.437 27.9554ZM6.56283 35.0446L7.26812 34.3357L6.56283 35.0446ZM60.7509 27.9554L60.0456 28.6643L60.7509 27.9554ZM60.7509 35.0446L60.0456 34.3357L60.7509 35.0446ZM33.6569 2H149.343V0H33.6569V2ZM148.343 1V62H150.343V1H148.343ZM149.343 61H33.6569V63H149.343V61ZM34.6569 62V1H32.6569V62H34.6569ZM32.9516 1.70892L60.0456 28.6643L61.4562 27.2465L34.3622 0.291082L32.9516 1.70892ZM60.0456 34.3357L32.9516 61.2911L34.3622 62.7089L61.4562 35.7535L60.0456 34.3357ZM34.3622 61.2911L7.26812 34.3357L5.85754 35.7535L32.9516 62.7089L34.3622 61.2911ZM7.26812 28.6643L34.3622 1.70892L32.9516 0.291081L5.85754 27.2465L7.26812 28.6643ZM148.638 1.70892L175.732 28.6643L177.142 27.2465L150.048 0.291082L148.638 1.70892ZM175.732 34.3357L148.638 61.2911L150.048 62.7089L177.142 35.7535L175.732 34.3357ZM150.048 61.2911L122.954 34.3357L121.544 35.7535L148.638 62.7089L150.048 61.2911ZM122.954 28.6643L150.048 1.70892L148.638 0.291082L121.544 27.2465L122.954 28.6643ZM122.954 34.3357C121.383 32.7719 121.383 30.2281 122.954 28.6643L121.544 27.2465C119.186 29.5921 119.186 33.4079 121.544 35.7535L122.954 34.3357ZM175.732 28.6643C177.304 30.2281 177.304 32.7719 175.732 34.3357L177.142 35.7535C179.5 33.4079 179.5 29.5921 177.142 27.2465L175.732 28.6643ZM7.26812 34.3357C5.69633 32.7719 5.69633 30.2281 7.26812 28.6643L5.85754 27.2465C3.49986 29.5921 3.49986 33.4079 5.85754 35.7535L7.26812 34.3357ZM60.0456 28.6643C61.6174 30.2281 61.6174 32.7719 60.0456 34.3357L61.4562 35.7535C63.8139 33.4079 63.8139 29.5921 61.4562 27.2465L60.0456 28.6643Z" mask="url(#path-1-outside-1_360_19)"/></clipPath><filter id="filter1_i_360_19" x="35.3325" y="20.72" width="114.717" height="18.616" filterUnits="userSpaceOnUse" color-interpolation-filters="sRGB">
<feFlood flood-opacity="0" result="BackgroundImageFix"/>
<feBlend mode="normal" in="SourceGraphic" in2="BackgroundImageFix" result="shape"/>
<feColorMatrix in="SourceAlpha" type="matrix" values="0 0 0 0 0 0 0 0 0 0 0 0 0 0 0 0 0 0 127 0" result="hardAlpha"/>
<feOffset dy="1"/>
<feGaussianBlur stdDeviation="0.5"/>
<feComposite in2="hardAlpha" operator="arithmetic" k2="-1" k3="1"/>
<feColorMatrix type="matrix" values="0 0 0 0 0.160784 0 0 0 0 0.0509804 0 0 0 0 0.105882 0 0 0 0.64 0"/>
<feBlend mode="normal" in2="shape" result="effect1_innerShadow_360_19"/>
</filter>
<linearGradient id="paint0_linear_360_19" x1="91.5" y1="-40" x2="91.5" y2="48" gradientUnits="userSpaceOnUse">
<stop offset="0.45" stop-opacity="0"/>
<stop offset="1"/>
</linearGradient>
<linearGradient id="paint1_linear_360_19" x1="91.5" y1="1" x2="91.5" y2="62" gradientUnits="userSpaceOnUse">
<stop stop-opacity="0"/>
<stop offset="0.92" stop-color="#290D1B"/>
</linearGradient>
<linearGradient id="paint2_linear_360_19" x1="91.5" y1="1" x2="91.5" y2="25" gradientUnits="userSpaceOnUse">
<stop/>
<stop offset="1" stop-opacity="0"/>
</linearGradient>
<linearGradient id="paint3_linear_360_19" x1="91.5" y1="-40" x2="91.5" y2="48" gradientUnits="userSpaceOnUse">
<stop offset="0.45" stop-opacity="0"/>
<stop offset="1"/>
</linearGradient>
<linearGradient id="paint4_linear_360_19" x1="91.5" y1="1" x2="91.5" y2="62" gradientUnits="userSpaceOnUse">
<stop stop-opacity="0"/>
<stop offset="0.92" stop-color="#290D1B"/>
</linearGradient>
<linearGradient id="paint5_linear_360_19" x1="91.5" y1="1" x2="91.5" y2="25" gradientUnits="userSpaceOnUse">
<stop/>
<stop offset="1" stop-opacity="0"/>
</linearGradient>
<linearGradient id="paint6_linear_360_19" x1="91.5" y1="-40" x2="91.5" y2="48" gradientUnits="userSpaceOnUse">
<stop offset="0.45" stop-opacity="0"/>
<stop offset="1"/>
</linearGradient>
<linearGradient id="paint7_linear_360_19" x1="91.5" y1="1" x2="91.5" y2="62" gradientUnits="userSpaceOnUse">
<stop stop-opacity="0"/>
<stop offset="0.92" stop-color="#290D1B"/>
</linearGradient>
<linearGradient id="paint8_linear_360_19" x1="91.5" y1="1" x2="91.5" y2="25" gradientUnits="userSpaceOnUse">
<stop/>
<stop offset="1" stop-opacity="0"/>
</linearGradient>
<linearGradient id="paint9_diamond_360_19" x1="0" y1="0" x2="500" y2="500" gradientUnits="userSpaceOnUse">
<stop stop-color="#9B5578"/>
<stop offset="0.401" stop-color="#C35E90"/>
<stop offset="1" stop-color="#351D29"/>
</linearGradient>
<linearGradient id="paint10_linear_360_19" x1="93" y1="-7" x2="93" y2="74" gradientUnits="userSpaceOnUse">
<stop offset="0.268184" stop-color="#8F703E"/>
<stop offset="0.47" stop-color="#EBD16B"/>
<stop offset="0.85" stop-color="#C69547"/>
</linearGradient>
<linearGradient id="paint11_linear_360_19" x1="92.5" y1="15" x2="92.5" y2="48" gradientUnits="userSpaceOnUse">
<stop offset="0.45" stop-opacity="0"/>
<stop offset="0.7" stop-color="#7A3B2F"/>
</linearGradient>
<radialGradient id="paint12_radial_360_19" cx="0" cy="0" r="1" gradientUnits="userSpaceOnUse" gradientTransform="translate(92.5 31.5) scale(92.5 16.5)">
<stop stop-color="#D9D9D9"/>
<stop offset="1" stop-opacity="0"/>
</radialGradient>
<linearGradient id="paint13_linear_360_19" x1="92.5" y1="2" x2="92.5" y2="49" gradientUnits="userSpaceOnUse">
<stop offset="0.25" stop-opacity="0"/>
<stop offset="1"/>
</linearGradient>
<linearGradient id="paint14_linear_360_19" x1="92.5" y1="2" x2="92.5" y2="63" gradientUnits="userSpaceOnUse">
<stop stop-opacity="0"/>
<stop offset="0.92" stop-color="#290D1B"/>
</linearGradient>
<linearGradient id="paint15_linear_360_19" x1="100.75" y1="41.9077" x2="100.75" y2="-17.5923" gradientUnits="userSpaceOnUse">
<stop offset="0.277409" stop-opacity="0"/>
<stop offset="0.7" stop-color="#6B468B"/>
</linearGradient>
<linearGradient id="paint16_linear_360_19" x1="92.75" y1="40.5" x2="92.75" y2="-19" gradientUnits="userSpaceOnUse">
<stop offset="0.2" stop-color="#2B4C35" stop-opacity="0"/>
<stop offset="0.7" stop-color="#8165B2"/>
</linearGradient>
</defs>
</svg>
