<svg width="197" height="85" viewBox="0 0 197 85" fill="none" xmlns="http://www.w3.org/2000/svg">
<g filter="url(#filter0_d_91_21)">
<g filter="url(#filter1_i_91_21)">
<path d="M41.0696 4L40.6569 3.5894L40.2442 4H39.6569V4.58428L12.8575 31.2465C10.4999 33.5921 10.4999 37.4079 12.8575 39.7535L39.6569 66.4157V67H40.2442L40.6569 67.4106L41.0696 67H155.93L156.343 67.4106L156.756 67H157.343V66.4157L184.142 39.7535C186.5 37.4079 186.5 33.5921 184.142 31.2465L157.343 4.58428V4H156.756L156.343 3.5894L155.93 4H41.0696Z" fill="#1F1D29" fill-opacity="0.4"/>
<path d="M41.0696 4L40.6569 3.5894L40.2442 4H39.6569V4.58428L12.8575 31.2465C10.4999 33.5921 10.4999 37.4079 12.8575 39.7535L39.6569 66.4157V67H40.2442L40.6569 67.4106L41.0696 67H155.93L156.343 67.4106L156.756 67H157.343V66.4157L184.142 39.7535C186.5 37.4079 186.5 33.5921 184.142 31.2465L157.343 4.58428V4H156.756L156.343 3.5894L155.93 4H41.0696Z" fill="url(#paint0_linear_91_21)" fill-opacity="0.72"/>
<path d="M41.0696 4L40.6569 3.5894L40.2442 4H39.6569V4.58428L12.8575 31.2465C10.4999 33.5921 10.4999 37.4079 12.8575 39.7535L39.6569 66.4157V67H40.2442L40.6569 67.4106L41.0696 67H155.93L156.343 67.4106L156.756 67H157.343V66.4157L184.142 39.7535C186.5 37.4079 186.5 33.5921 184.142 31.2465L157.343 4.58428V4H156.756L156.343 3.5894L155.93 4H41.0696Z" fill="url(#paint1_linear_91_21)" style="mix-blend-mode:plus-lighter"/>
<path d="M41.0696 4L40.6569 3.5894L40.2442 4H39.6569V4.58428L12.8575 31.2465C10.4999 33.5921 10.4999 37.4079 12.8575 39.7535L39.6569 66.4157V67H40.2442L40.6569 67.4106L41.0696 67H155.93L156.343 67.4106L156.756 67H157.343V66.4157L184.142 39.7535C186.5 37.4079 186.5 33.5921 184.142 31.2465L157.343 4.58428V4H156.756L156.343 3.5894L155.93 4H41.0696Z" fill="url(#paint2_linear_91_21)" fill-opacity="0.2" style="mix-blend-mode:color-burn"/>
<path d="M41.0696 4L40.6569 3.5894L40.2442 4H39.6569V4.58428L12.8575 31.2465C10.4999 33.5921 10.4999 37.4079 12.8575 39.7535L39.6569 66.4157V67H40.2442L40.6569 67.4106L41.0696 67H155.93L156.343 67.4106L156.756 67H157.343V66.4157L184.142 39.7535C186.5 37.4079 186.5 33.5921 184.142 31.2465L157.343 4.58428V4H156.756L156.343 3.5894L155.93 4H41.0696Z" stroke="#9B5578" stroke-width="2"/>
</g>
</g>
<defs>
<filter id="filter0_d_91_21" x="0.0892334" y="0" width="196.822" height="85" filterUnits="userSpaceOnUse" color-interpolation-filters="sRGB">
<feFlood flood-opacity="0" result="BackgroundImageFix"/>
<feColorMatrix in="SourceAlpha" type="matrix" values="0 0 0 0 0 0 0 0 0 0 0 0 0 0 0 0 0 0 127 0" result="hardAlpha"/>
<feOffset dy="7"/>
<feGaussianBlur stdDeviation="5"/>
<feComposite in2="hardAlpha" operator="out"/>
<feColorMatrix type="matrix" values="0 0 0 0 0.746667 0 0 0 0 0.905333 0 0 0 0 0.933333 0 0 0 1 0"/>
<feBlend mode="color-dodge" in2="BackgroundImageFix" result="effect1_dropShadow_91_21"/>
<feBlend mode="normal" in="SourceGraphic" in2="effect1_dropShadow_91_21" result="shape"/>
</filter>
<filter id="filter1_i_91_21" x="10.0892" y="3" width="176.822" height="65" filterUnits="userSpaceOnUse" color-interpolation-filters="sRGB">
<feFlood flood-opacity="0" result="BackgroundImageFix"/>
<feBlend mode="normal" in="SourceGraphic" in2="BackgroundImageFix" result="shape"/>
<feColorMatrix in="SourceAlpha" type="matrix" values="0 0 0 0 0 0 0 0 0 0 0 0 0 0 0 0 0 0 127 0" result="hardAlpha"/>
<feOffset/>
<feGaussianBlur stdDeviation="12.5"/>
<feComposite in2="hardAlpha" operator="arithmetic" k2="-1" k3="1"/>
<feColorMatrix type="matrix" values="0 0 0 0 0 0 0 0 0 0 0 0 0 0 0 0 0 0 0.42 0"/>
<feBlend mode="normal" in2="shape" result="effect1_innerShadow_91_21"/>
</filter>
<linearGradient id="paint0_linear_91_21" x1="98.5" y1="5" x2="98.5" y2="52" gradientUnits="userSpaceOnUse">
<stop offset="0.25" stop-opacity="0"/>
<stop offset="1"/>
</linearGradient>
<linearGradient id="paint1_linear_91_21" x1="98.5" y1="5" x2="98.5" y2="66" gradientUnits="userSpaceOnUse">
<stop stop-opacity="0"/>
<stop offset="0.92" stop-color="#290D1B"/>
</linearGradient>
<linearGradient id="paint2_linear_91_21" x1="98.5" y1="5" x2="98.5" y2="29" gradientUnits="userSpaceOnUse">
<stop/>
<stop offset="1" stop-opacity="0"/>
</linearGradient>
</defs>
</svg>
