<svg width="42" height="17" viewBox="0 0 42 17" fill="none" xmlns="http://www.w3.org/2000/svg">
<path d="M21.4412 10.1047L21.3028 10.2392C17.1968 14.2278 11.6979 16.459 5.9735 16.459H1M21.4412 10.1047L27.662 5.89211C29.7231 4.49642 32.1551 3.75045 34.6442 3.75045H35.1387C38.6481 3.75045 41.493 6.59536 41.493 10.1047V10.1047C41.493 13.6141 38.6481 16.459 35.1387 16.459H32.7714L33.4426 16.1764C37.157 14.6125 35.3228 9.02411 31.404 9.96555V9.96555C31.0209 10.0576 30.6575 10.2179 30.3313 10.4388L21.4412 16.459M21.4412 10.1047L20.0212 6.62873C18.8405 3.73838 20.9666 0.573303 24.0888 0.573303V0.573303V0.573303C19.014 0.573303 14.9 4.68726 14.9 9.7621V10.1047" stroke="white" stroke-linecap="round"/>
</svg>
