<svg width="96" height="53" viewBox="0 0 96 53" fill="none" xmlns="http://www.w3.org/2000/svg">
<g clip-path="url(#clip0_358_59)" filter="url(#filter0_i_358_59)">
<path d="M79.6923 53C79.296 52.8959 78.8925 52.8148 78.5055 52.6843C77.188 52.2404 76.1642 51.3881 75.315 50.3155C73.7022 48.2783 72.5746 45.9922 71.8566 43.5006C71.2881 41.5075 70.9384 39.4586 70.8136 37.39C70.7038 35.6507 70.6436 33.9087 70.633 32.164C70.6209 30.1092 70.8998 28.0867 71.5805 26.135C72.349 23.9339 73.627 22.134 75.6932 20.955C76.1466 20.6969 76.2175 20.715 76.4678 21.1825C76.5776 21.3913 76.6808 21.6062 76.7867 21.8183C76.8627 21.9774 76.9778 22.1148 77.1212 22.2176C77.2647 22.3204 77.4319 22.3853 77.6073 22.4062C77.7826 22.4271 77.9604 22.4034 78.1241 22.3372C78.2878 22.271 78.432 22.1645 78.5434 22.0276C78.988 21.4998 79.1439 20.8712 79.1637 20.1987C79.167 20.0732 79.1637 19.9471 79.1637 19.809C80.3664 19.6264 81.5854 19.5741 82.7994 19.6528C83.1098 19.6659 83.4192 19.697 83.726 19.746C83.8501 19.769 83.9686 19.878 84.0653 19.9734C84.2459 20.151 84.3836 20.3801 84.5835 20.5292C84.7771 20.6803 85.0193 20.7556 85.2647 20.741C85.51 20.7263 85.7415 20.6228 85.9158 20.4497C86.0805 20.2951 86.21 20.299 86.3961 20.3702C88.4387 21.1501 89.9259 22.5379 90.9057 24.477C91.5958 25.8418 92.0036 27.2931 92.2122 28.8036C92.2179 28.8356 92.2265 28.867 92.238 28.8974C93.4375 28.5137 94.6534 28.6913 95.8529 28.6781C95.9001 28.6781 95.9479 28.7373 95.9956 28.7691C95.9599 28.8162 95.9341 28.8875 95.8858 28.9078C94.626 29.4427 93.9963 30.5263 93.4759 31.6931C93.1828 32.3509 92.9434 33.0327 92.664 33.697C92.411 34.2999 92.479 34.9378 92.4192 35.5605C92.2238 37.596 92.0003 39.63 91.4898 41.6135C91.0007 43.5115 90.455 45.3953 89.4851 47.124C88.3592 49.1272 86.8956 50.8126 84.8651 51.9521C83.9997 52.4481 83.0509 52.7824 82.0654 52.9386C82.0042 52.9519 81.9441 52.9703 81.8859 52.9935L79.6923 53ZM87.2212 37.1302C87.2338 36.9833 87.2459 36.8939 87.2481 36.8013C87.275 35.88 87.2991 34.9581 87.326 34.0362C87.3886 31.879 87.3343 29.7288 86.9291 27.6006C86.6766 26.2759 86.3044 24.9933 85.5644 23.8451C83.8111 21.1244 79.9827 20.995 78.0905 23.5913C77.452 24.4683 77.0557 25.4548 76.7977 26.4962C76.6127 27.2438 76.4815 28.004 76.325 28.7664C76.5869 28.728 76.7939 28.6567 76.9915 28.6765C77.8149 28.7631 78.6383 28.876 79.4618 28.9861C79.5326 28.9955 79.5973 29.0541 79.6643 29.0897C79.5995 29.1402 79.5414 29.2163 79.4678 29.2372C78.9116 29.3963 78.4015 29.6859 77.9801 30.0818C77.3763 30.6386 76.9294 31.315 76.4788 31.993C76.1752 32.4506 76.1005 32.9324 76.1137 33.469C76.1763 36.045 76.2498 38.6133 76.5946 41.1707C76.84 42.992 77.1776 44.788 77.8314 46.5118C78.2519 47.6211 78.8074 48.6532 79.6912 49.478C80.849 50.5578 82.4459 50.6339 83.6942 49.6583C84.2283 49.2402 84.6213 48.7041 84.9507 48.1188C85.6413 46.8894 86.0069 45.5477 86.3544 44.1934C86.5493 43.4315 86.5548 42.6971 86.3033 41.9648C85.93 40.8774 85.5403 39.795 84.9617 38.7931C84.4923 37.9803 83.9187 37.2738 83.0201 36.895C82.9602 36.8698 82.9262 36.7854 82.8795 36.7306C82.9421 36.7043 83.0041 36.655 83.0662 36.655C84.0164 36.6594 84.9672 36.6632 85.9174 36.6851C86.0821 36.689 86.2534 36.7651 86.4159 36.8227C86.675 36.9148 86.9269 37.0178 87.2212 37.1302Z" fill="#8E8E8E"/>
<path d="M49.0059 -1.3886e-06C49.3221 0.0284991 49.5088 0.206079 49.6224 0.493277C49.7909 0.925717 50.0067 1.34172 50.1439 1.78293C50.1939 1.94461 50.1286 2.1907 50.0303 2.34252C49.6724 2.89554 49.1657 3.30277 48.5981 3.62505C48.2407 3.82784 47.8268 3.8399 47.5002 3.59764C47.0188 3.22772 46.5624 2.82657 46.1338 2.39678C45.928 2.19618 45.8983 1.9183 46.029 1.63494C46.2376 1.18058 46.4259 0.716897 46.6361 0.264726C46.6828 0.162781 46.7854 0.0865953 46.8623 -0.00109863L49.0059 -1.3886e-06Z" fill="#8E8E8E"/>
<path d="M22.9203 28.9571C23.0598 28.4896 23.2157 27.9705 23.3705 27.4477C23.9948 25.3419 24.6197 23.2362 25.2452 21.1304C25.4356 20.4941 25.4466 20.4968 26.1092 20.4968C27.7561 20.4968 29.4029 20.5007 31.0498 20.4924C31.2534 20.4924 31.4033 20.5379 31.512 20.7117C31.7639 21.1118 32.0313 21.5037 32.2629 21.9175C32.3244 22.0271 32.3222 22.2096 32.2789 22.334C31.927 23.3469 31.8359 24.4008 31.7689 25.4581C31.7189 26.2512 31.692 27.0475 31.6756 27.8395C31.6706 28.0807 31.5658 28.1421 31.3539 28.1722C31.0106 28.2202 30.6709 28.2903 30.3367 28.3821C30.2335 28.4106 30.0869 28.5394 30.0863 28.6228C30.0863 28.7291 30.1961 28.8584 30.2911 28.9379C30.6413 29.2295 31.0047 29.5079 31.3649 29.7858C31.535 29.9157 31.5768 30.0779 31.5707 30.2867C31.4845 33.3626 31.3841 36.4385 31.3319 39.5154C31.2924 41.8442 31.3319 44.1742 31.305 46.503C31.2901 47.2405 31.2248 47.9761 31.1096 48.7047C31.0064 49.3936 30.6413 49.9653 30.1023 50.4147C28.8397 51.4692 27.3723 52.1324 25.815 52.6169C25.508 52.7174 25.1923 52.7886 24.8719 52.8296C24.8913 52.7974 24.915 52.7679 24.9421 52.7419C25.8287 52.0842 26.2404 51.1524 26.4144 50.111C26.5345 49.3819 26.6117 48.6464 26.6455 47.9083C26.7048 46.6685 26.741 45.426 26.7443 44.1846C26.7597 38.969 26.7663 33.7534 26.7641 28.5378C26.7641 28.4627 26.7526 28.3871 26.746 28.312L26.6636 28.2999C24.1542 36.3411 21.6451 44.3823 19.1364 52.4234L19.0815 52.4311C18.4843 50.5528 17.887 48.6745 17.2832 46.7765C16.754 47.1251 16.1809 47.0253 15.6363 47.0505C15.1423 47.0741 14.6482 47.0352 14.1541 47.0171C14.0828 47.0171 14.0125 46.9776 13.8764 46.9371C13.9862 46.8543 14.0361 46.8011 14.096 46.777C15.0155 46.4005 15.5814 45.6666 16.1095 44.8697C16.418 44.4038 16.4131 43.9928 16.2495 43.4732C15.2065 40.16 14.0537 36.8846 12.8751 33.6186C12.2465 31.8789 11.6383 30.1316 11.0202 28.3876C10.987 28.2745 10.9237 28.1726 10.8368 28.0928C10.826 28.1624 10.8203 28.2327 10.8198 28.3032C11.0866 32.8375 11.0592 37.3768 11.0734 41.9166C11.0806 44.2438 11.1635 46.572 11.2634 48.8981C11.3078 49.9335 11.5422 50.9441 12.2103 51.7915C12.3838 52.0107 12.5847 52.2091 12.7593 52.4026C12.7168 52.4104 12.6733 52.4104 12.6308 52.4026C10.99 51.9356 9.45183 51.2735 8.12227 50.1664C7.3993 49.5635 7.08421 48.7885 7.00626 47.9017C6.93983 47.1492 6.93379 46.3895 6.92391 45.6332C6.8767 42.0348 6.83334 38.4357 6.79381 34.8359C6.79614 34.7539 6.78368 34.6722 6.75703 34.5947C6.28713 33.4437 5.84413 32.2851 5.32976 31.156C4.98392 30.3975 4.49535 29.7162 3.78117 29.2377C3.60002 29.1171 3.3969 29.0316 3.20642 28.9215C3.15275 28.88 3.10493 28.8315 3.06424 28.7773C3.11913 28.7439 3.17787 28.6803 3.23332 28.6814C4.12811 28.7 5.02564 28.6945 5.91604 28.7724C6.1746 28.7948 6.4101 29.0607 6.65273 29.2108C6.63901 28.9034 6.62528 28.5449 6.60717 28.187C6.54349 26.9379 6.52153 25.685 6.40241 24.4408C6.28164 23.1802 6.00771 21.9492 5.11786 20.9589C4.99819 20.8257 4.87468 20.6963 4.71274 20.5204H13.7957C15.313 27.1303 17.6197 33.5287 19.5597 40.0378H19.6398C19.7304 39.7517 19.8259 39.4666 19.911 39.1784C20.6466 36.6878 21.3796 34.1964 22.1101 31.7041C22.1408 31.6005 22.1557 31.4487 22.1024 31.3714C21.5172 30.5202 20.864 29.7376 19.8572 29.3523C19.7551 29.3128 19.6453 29.292 19.5465 29.2459C19.4747 29.2046 19.4073 29.1563 19.345 29.1018C19.4114 29.0651 19.474 29.0059 19.5437 28.9955C20.2303 28.8935 20.9178 28.7969 21.6062 28.7055C21.7708 28.6836 21.9427 28.6474 22.0969 28.683C22.3676 28.7433 22.6283 28.8562 22.9203 28.9571Z" fill="#8E8E8E"/>
<path d="M50.7329 20.5533C51.5992 20.5533 52.4654 20.5587 53.3311 20.55C53.6177 20.5472 53.8444 20.5905 54.0305 20.8542C54.1234 20.9882 54.2563 21.0894 54.4103 21.1436C54.5643 21.1977 54.7314 21.2019 54.8879 21.1556C55.3703 21.0253 55.8451 20.8686 56.3103 20.6864C56.5057 20.6108 56.6748 20.5467 56.8845 20.6179C57.6595 20.8914 58.5058 20.887 59.2779 20.6053C59.4849 20.5324 59.7286 20.5434 59.9548 20.5472C61.2805 20.567 62.6095 20.5472 63.9303 20.6371C65.3636 20.7363 66.7469 21.0789 67.9804 21.8725C69.2282 22.6755 70.0955 23.7908 70.6664 25.1462C70.8191 25.5074 70.7664 25.879 70.6198 26.2424C70.1653 27.3632 69.8342 28.5219 69.708 29.7233C69.6275 30.559 69.594 31.3985 69.6075 32.2379C69.6163 33.3889 69.6514 34.5399 69.7239 35.687C69.8294 37.5079 70.0507 39.3202 70.3865 41.1131C70.4694 41.5428 70.5665 41.9719 70.6143 42.406C70.6857 43.0637 70.4633 43.6666 70.1949 44.252C69.5136 45.7291 68.4383 46.8949 67.1817 47.8918C65.0353 49.5909 62.6029 50.755 59.9987 51.5684C57.5125 52.3456 54.956 52.6048 52.3611 52.5577C51.8857 52.5489 51.4098 52.5473 50.9339 52.5385C50.846 52.5385 50.7582 52.5171 50.6424 52.5023C50.6764 52.436 50.6852 52.3861 50.7154 52.3648C51.6261 51.7147 52.0329 50.7709 52.2074 49.7186C52.3281 48.9895 52.4057 48.254 52.4396 47.5158C52.4989 46.2487 52.5346 44.9788 52.5368 43.7099C52.5467 38.6591 52.5467 33.6083 52.5368 28.5575C52.5368 27.3989 52.5917 26.2364 52.5181 25.0827C52.4138 23.4631 51.9006 21.975 50.7758 20.7489C50.7538 20.7212 50.734 20.6919 50.7165 20.6612C50.7236 20.6251 50.728 20.5889 50.7329 20.5533ZM57.3796 28.8732C57.6541 28.8075 57.8737 28.7165 58.0933 28.7088C59.0067 28.6825 59.9207 28.6792 60.838 28.6754C60.9242 28.6754 61.0115 28.7302 61.0982 28.7631C61.0302 28.8261 60.972 28.9121 60.8918 28.9478C60.2808 29.2218 59.8076 29.6521 59.4245 30.1881C58.5626 31.3939 58.0664 32.7701 57.6305 34.165C57.3763 34.9789 57.3835 35.8334 57.389 36.6862C57.4087 40.0843 57.3934 43.4825 57.4016 46.8806C57.4045 47.3097 57.4393 47.7381 57.5059 48.162C57.6508 49.1124 58.0181 49.4144 58.9332 49.3728C60.6508 49.2944 61.9661 48.4734 63.0174 47.1629C63.8616 46.11 64.4232 44.907 64.8838 43.6551C64.9292 43.5287 64.9306 43.3906 64.8876 43.2632C64.5456 42.4082 64.2218 41.5422 63.8227 40.7135C63.3566 39.7451 62.7314 38.8961 61.6851 38.4582C61.6302 38.4346 61.5956 38.3606 61.5517 38.3102C61.6197 38.2789 61.6889 38.2197 61.757 38.2208C62.5606 38.2302 63.3643 38.2504 64.168 38.263C64.5522 38.2685 64.8025 38.4697 65.0463 38.7426C65.3098 39.0364 65.6276 39.2825 65.9136 39.5423C65.9328 39.4877 65.9475 39.4316 65.9575 39.3746C66.0904 38.2976 66.2699 37.2233 66.3418 36.1409C66.4769 34.1009 66.5652 32.0582 66.428 30.0111C66.3407 28.7044 66.1837 27.4137 65.7747 26.1662C65.4399 25.1446 64.931 24.2254 64.0889 23.5228C63.1359 22.7275 62.0073 22.4398 60.7985 22.4414C60.2045 22.4418 59.6115 22.4904 59.0254 22.5867C58.1054 22.7385 57.5597 23.3819 57.5026 24.3219C57.4477 25.1873 57.4087 26.0533 57.3835 26.9198C57.3643 27.5644 57.3796 28.2111 57.3796 28.8732Z" fill="#8E8E8E"/>
<path d="M30.9219 52.4163C31.0816 52.2837 31.159 52.1867 31.26 52.1423C32.2284 51.7038 32.7971 50.8882 33.3224 50.0162C33.6617 49.4539 33.7303 48.8433 33.7374 48.2256C33.7777 44.7011 33.806 41.176 33.8225 37.6503C33.8313 36.2894 33.8148 34.9285 33.8291 33.5676C33.834 33.0672 33.7808 32.5936 33.5738 32.1294C33.1671 31.2169 32.7504 30.3076 32.0071 29.6159C31.7178 29.3473 31.3484 29.1643 31.019 28.9379C30.9546 28.8851 30.8947 28.827 30.8401 28.7642C30.9175 28.734 30.996 28.677 31.0734 28.6781C31.8968 28.6907 32.7175 28.7121 33.5392 28.7329C33.6194 28.7329 33.699 28.7422 33.8071 28.7488C33.8126 28.6343 33.822 28.5373 33.822 28.4403C33.822 26.3488 33.822 24.2572 33.8263 22.1652C33.8263 21.8977 33.7758 21.6653 33.6068 21.4527C33.3691 21.154 33.1429 20.8454 32.88 20.499C33.093 20.499 33.279 20.4952 33.4646 20.499C33.9213 20.51 34.378 20.5374 34.8342 20.5374C39.1978 20.5341 43.5625 20.5478 47.9251 20.5056C48.9384 20.4957 49.5719 20.8997 49.9079 21.8035C50.2724 22.79 50.5666 23.8084 50.4178 24.8728C50.2636 25.964 50.0374 27.0448 49.8414 28.1306C49.8376 28.1525 49.8162 28.1711 49.7706 28.2402C49.6142 27.8116 49.4676 27.4235 49.3315 27.0344C49.0306 26.1772 48.6694 25.354 48.0623 24.6601C47.0698 23.5245 45.7951 22.8843 44.3206 22.7445C43.2535 22.6431 42.1655 22.6897 41.0912 22.7478C40.2288 22.7966 39.7698 23.2789 39.6277 24.1871C39.4311 25.44 39.4734 26.7017 39.637 27.9546C39.7808 29.0574 40.3611 29.4526 41.549 29.64C42.0337 29.7162 42.5327 29.7228 43.0257 29.725C44.9739 29.7337 46.9232 29.7288 48.8714 29.7288H49.2716C48.922 32.3317 48.9148 34.9241 48.4971 37.4733L48.3719 37.4831C48.2885 37.1828 48.2072 36.8802 48.1216 36.5821C47.7922 35.4382 47.4151 34.3168 46.6943 33.3484C46.3647 32.8913 45.8893 32.5597 45.3461 32.4079C43.9347 32.0171 42.502 31.9146 41.0571 32.1886C40.1788 32.353 39.6622 32.9406 39.6052 33.8329C39.5503 34.655 39.5135 35.4738 39.5124 36.2943C39.5096 39.4453 39.5124 42.5973 39.5415 45.7472C39.5508 46.7031 39.643 47.66 39.7342 48.6126C39.8374 49.6841 40.4643 50.2612 41.4447 50.35C42.7073 50.4646 43.9649 50.4849 45.2056 50.1702C47.0769 49.6962 48.384 48.5501 49.1822 46.8083C49.4519 46.2193 49.7209 45.6301 49.9891 45.0407C50.0182 44.9766 50.0539 44.9157 50.1055 44.8176C50.3966 45.1561 50.5719 45.5786 50.6056 46.0234C50.7154 47.3092 50.7318 48.5994 50.4722 49.8694C50.3163 50.6317 50.0797 51.3662 49.5631 51.9839C49.2398 52.3708 48.8495 52.5479 48.3456 52.5473C43.0211 52.5418 37.6963 52.5405 32.3711 52.5435C32.0241 52.5435 31.6761 52.5435 31.3281 52.5281C31.2199 52.5248 31.1101 52.47 30.9219 52.4163Z" fill="#8E8E8E"/>
<path d="M19.0656 11.1032C19.5141 10.7611 19.9615 10.4334 20.5922 10.3715C20.2772 11.0571 20.0938 11.7296 20.208 12.4542C20.3178 13.1667 20.5983 13.8091 20.9765 14.4125L21.0506 14.407C21.0556 14.3166 21.0638 14.2256 21.0638 14.133C21.0638 12.0868 21.0629 10.0406 21.0611 7.9944C21.0611 7.53839 21.1434 7.45782 21.6067 7.45782C22.3478 7.45782 23.0887 7.45782 23.8294 7.45782H24.088C24.1022 7.51976 24.1187 7.54936 24.1121 7.57183C23.8129 8.59456 23.7114 9.64579 23.651 10.703C23.5725 12.0793 23.4748 13.4539 23.4215 14.8307C23.3713 16.1089 23.5322 17.3866 23.898 18.6125C24.0172 19.0131 23.9639 19.0784 23.5423 19.0904C22.7654 19.1134 21.9882 19.1317 21.2109 19.1452C20.7564 19.1524 20.7476 19.0937 20.5692 18.6788C20.3765 18.2294 20.1108 17.8095 19.8621 17.3853C18.7774 15.5357 17.6894 13.6876 16.5981 11.8409C16.5761 11.8031 16.5476 11.7691 16.4938 11.6934C16.4696 11.7866 16.4422 11.8403 16.4438 11.8929C16.4916 13.5624 16.5152 15.2363 16.6085 16.9014C16.6404 17.4851 16.8325 18.0617 16.9653 18.6382C17.051 19.0104 17.0081 19.0893 16.636 19.0975C15.8952 19.1144 15.1545 19.1282 14.4138 19.1392C14.2949 19.1419 14.176 19.1354 14.0581 19.12C13.7595 19.08 13.6925 18.9983 13.7452 18.7024C13.7979 18.4064 13.8632 18.1132 13.9373 17.8221C14.1503 16.9858 14.0735 16.1335 14.0778 15.2872C14.0877 13.4786 14.1086 11.6699 14.0581 9.86118C14.0378 9.09825 13.8478 8.3238 13.7304 7.5088C13.8463 7.48554 13.9637 7.47052 14.0817 7.46385C14.932 7.45837 15.7834 7.46385 16.6332 7.45782C16.9187 7.45782 17.0823 7.61293 17.2113 7.84532C17.8052 8.91409 18.4021 9.98122 19.0019 11.0467C19.0102 11.0637 19.0288 11.0714 19.0656 11.1032Z" fill="#8E8E8E"/>
<path d="M51.9264 16.8537C52.0872 17.4971 52.2305 18.0798 52.3787 18.6624C52.4731 19.0334 52.4402 19.0838 52.0642 19.086C51.2045 19.0899 50.3448 19.0937 49.4841 19.0932C49.1437 19.0932 49.0872 19.0345 49.1454 18.7068C49.2662 18.0249 49.3908 17.3437 49.5335 16.6662C49.6093 16.3089 49.5445 16.0436 49.2437 15.8003C48.4202 15.1327 48.0662 13.9253 48.4103 13.0691C48.4268 13.028 48.4504 12.9902 48.4812 12.9294C48.7512 13.3646 49.0263 13.7718 49.5736 13.9422C49.584 13.8096 49.601 13.6967 49.601 13.5832C49.601 12.1582 49.6219 10.7332 49.5922 9.30817C49.5813 8.79297 49.4528 8.28105 49.3771 7.7675C49.3666 7.69625 49.3523 7.62555 49.332 7.51045C49.5258 7.49346 49.7026 7.46276 49.881 7.46496C51.3439 7.48195 52.8074 7.48578 54.2726 7.53073C56.2395 7.59156 57.6997 8.49043 58.5308 10.2871C59.4338 12.2393 58.8602 14.4936 57.1776 15.8331C57.0421 15.9428 56.9032 16.0447 56.7385 16.173C56.9416 16.5078 57.1425 16.84 57.3423 17.1721C57.5833 17.5706 57.8364 17.963 58.0615 18.3691C58.2382 18.6854 58.4858 18.8838 58.8388 18.9638C59.0035 19.0016 59.1681 19.063 59.3487 19.1189C59.2598 19.4171 59.0562 19.5689 58.8086 19.6752C58.5349 19.7967 58.2366 19.8526 57.9375 19.8383C57.6384 19.8241 57.3467 19.74 57.086 19.593C56.6111 19.3349 56.2856 19.3738 55.9074 19.7437C55.6329 20.0112 55.2486 20.1132 54.7853 20.1318C54.8951 19.9016 54.9747 19.7229 55.0664 19.5503C55.2986 19.1118 55.3376 18.6662 55.1504 18.2058C55.0065 17.8512 54.8534 17.4999 54.7057 17.1469C54.602 16.9003 54.4312 16.7841 54.1507 16.795C53.4267 16.8263 52.707 16.8345 51.9264 16.8537ZM52.0049 14.4925C52.6027 14.4925 53.15 14.4986 53.6962 14.4925C54.016 14.4938 54.3355 14.4755 54.653 14.4377C55.8349 14.2733 56.6633 13.238 56.582 12.0426C56.498 10.799 55.6038 9.94121 54.3703 9.93025C53.6852 9.92422 52.9979 9.94395 52.315 9.92586C52.0488 9.91874 51.9983 10.0157 51.9999 10.2547C52.0104 11.5592 52.0049 12.8631 52.0049 14.1675V14.4925Z" fill="#8E8E8E"/>
<path d="M77.7238 21.4171C77.6354 21.2154 77.5591 21.0334 77.4745 20.8542C77.0903 20.0649 76.442 19.6089 75.5911 19.4555C74.6129 19.2784 73.6698 19.0301 72.8189 18.4832C70.8696 17.2297 69.9215 15.4429 69.977 13.1426C70.0461 10.2772 72.2924 7.81958 75.1409 7.44798C78.1629 7.05336 80.8758 8.77873 81.7833 11.6682C82.6369 14.3977 81.2892 17.541 78.6971 18.7528C78.2293 18.9721 78.0383 19.1858 78.1322 19.7114C78.2288 20.2644 78.1657 20.8246 77.8198 21.3102C77.7973 21.3409 77.771 21.365 77.7238 21.4171ZM76.179 12.5304C76.712 11.5438 77.564 11.0577 78.6729 10.8785C78.5346 10.7469 78.4434 10.6472 78.3397 10.5622C77.0365 9.49892 75.17 9.43973 73.8317 10.4181C72.4407 11.4342 71.9461 13.2056 72.6048 14.8104C73.2553 16.3944 74.9691 17.3059 76.6989 16.9885C78.3496 16.6854 79.6632 15.1448 79.6967 13.4687C79.7016 13.2314 79.6418 13.0089 79.397 12.9365C78.8134 12.7628 78.2288 12.5633 77.6293 12.4783C77.1671 12.4131 76.6857 12.5063 76.179 12.5304Z" fill="#8E8E8E"/>
<path d="M70.5934 5.36469C70.9382 6.00047 71.0875 6.67626 70.9069 7.40741C70.7263 8.13855 70.2015 8.62799 69.6855 9.15032C70.1548 9.80803 70.3102 10.514 69.921 11.3619C69.897 11.2923 69.8682 11.2246 69.8348 11.1591C69.3907 10.4109 68.6908 10.0388 67.8586 9.99931C66.3253 9.92641 64.7894 9.90723 63.254 9.90284C62.5464 9.90284 62.1012 10.3857 62.116 11.0407C62.1308 11.6956 62.587 12.1407 63.2853 12.161C64.1718 12.1867 65.0617 12.161 65.9444 12.2289C67.8756 12.3736 69.2156 14.0195 69.0734 15.9521C68.9598 17.4675 67.6933 19.1639 65.6523 19.1354C64.0604 19.1129 62.4684 19.1496 60.8765 19.1578C60.731 19.1578 60.5861 19.1414 60.4076 19.131C60.5054 18.4908 60.1991 17.98 59.9603 17.4374C59.6825 16.8071 59.6501 16.1516 59.9054 15.444C59.9795 15.524 60.0437 15.5712 60.0788 15.6347C60.4812 16.3648 61.1526 16.6268 61.9293 16.6629C63.1261 16.7178 64.3239 16.749 65.5217 16.7824C66.232 16.8022 66.6745 16.3988 66.7151 15.7109C66.7239 15.5599 66.7019 15.4086 66.6506 15.2663C66.5993 15.1239 66.5197 14.9934 66.4166 14.8826C66.3135 14.7717 66.189 14.6828 66.0505 14.6213C65.9121 14.5597 65.7627 14.5267 65.6112 14.5243C64.5133 14.4953 63.4154 14.4695 62.3175 14.5199C61.8783 14.5402 61.4518 14.7677 61.0208 14.9036C60.9061 14.9403 60.7963 14.9946 60.608 15.0724C60.7387 14.6887 60.8221 14.3845 60.9478 14.0979C61.0499 13.8655 60.9945 13.7142 60.827 13.5405C60.1238 12.8077 59.6742 11.9461 59.7346 10.9097C59.823 9.41669 60.8375 7.68857 62.8993 7.57293C64.1762 7.50113 65.4602 7.49181 66.7387 7.53292C67.8668 7.56964 68.8456 7.27148 69.7135 6.56445C70.0607 6.2917 70.3109 5.91469 70.4271 5.4891C70.442 5.44817 70.4604 5.40857 70.482 5.37071L70.5934 5.36469Z" fill="#8E8E8E"/>
<path d="M46.7657 13.5767L47.6248 13.9137C47.2592 14.3297 46.8079 14.4361 46.3221 14.4454C45.5353 14.4615 44.7485 14.4733 43.9616 14.481C43.4599 14.4865 42.9576 14.481 42.4322 14.481V16.7742H42.755C44.4019 16.7742 46.0487 16.7797 47.6956 16.7687C47.9393 16.7687 48.0332 16.8542 48.0799 17.0806C48.1869 17.6347 48.3148 18.1855 48.4317 18.738C48.4921 19.0247 48.4317 19.1129 48.1474 19.1348C47.8921 19.154 47.6352 19.1573 47.3788 19.1573C45.1743 19.1573 42.9699 19.1555 40.7656 19.1518C40.4638 19.1495 40.1625 19.1272 39.8637 19.0849C39.5623 19.0438 39.5025 18.9424 39.6013 18.6569C39.9856 17.5399 40.0191 16.3851 39.9856 15.222C39.9785 15.1385 39.9669 15.0555 39.951 14.9732C39.2725 15.2237 39.1407 15.8732 38.7982 16.3982C38.734 16.3101 38.6747 16.2186 38.6203 16.1242C38.0637 15.0351 38.3947 13.5641 39.4037 12.8592C39.8428 12.5534 39.9883 12.1736 39.9955 11.6775C40.0136 10.3325 39.9861 8.99192 39.5854 7.69241C39.575 7.64231 39.5678 7.5916 39.564 7.54059H48.5218C48.3999 8.09196 48.3022 8.61867 48.1644 9.13607C47.9679 9.88147 47.9569 9.87873 47.1796 9.87873C45.7067 9.87873 44.2339 9.88421 42.7611 9.87325C42.4998 9.87325 42.4114 9.94175 42.4207 10.2103C42.441 10.7759 42.4279 11.3427 42.4262 11.9094C42.4262 12.0371 42.4262 12.1489 42.6052 12.1445C43.8573 12.1149 45.1106 12.1045 46.3616 12.0546C46.9583 12.0311 47.4947 11.7866 47.9827 11.4435C48.0716 11.381 48.1688 11.3301 48.2572 11.2747C48.4965 11.5564 48.485 12.1062 48.1474 12.4525C47.7812 12.8274 47.3377 13.1272 46.9276 13.4588C46.8881 13.4939 46.8447 13.5208 46.7657 13.5767Z" fill="#8E8E8E"/>
<path d="M0 8.40165C0.134493 8.20872 0.219581 8.04978 0.339801 7.92043C0.982073 7.21888 1.7808 6.93388 2.71676 7.11146C3.69334 7.29835 4.65565 7.58445 5.71019 7.4436C5.61467 7.9007 5.52464 8.30519 5.44724 8.71242C5.08109 10.6433 5.05145 12.5951 5.10415 14.5501C5.13544 15.717 5.94953 16.6164 7.0639 16.7775C8.1887 16.9419 9.23061 16.2947 9.61378 15.1963C9.78505 14.703 9.73674 14.2481 9.40792 13.8261C8.87215 13.1404 8.21834 12.6203 7.38668 12.3347C7.28403 12.3002 7.18577 12.2536 7.05347 12.1999C7.8736 11.5 8.80078 11.7784 9.68843 11.8223C9.68843 11.2402 9.98707 9.77297 9.31735 7.53293H12.5907C12.5238 7.8733 12.4486 8.19831 12.397 8.52662C12.1265 10.2962 12.0201 12.0869 12.0791 13.8759C12.1027 14.7041 12.0352 15.5158 11.7113 16.2914C10.4696 19.279 6.85256 19.992 4.51896 18.1614C3.29206 17.1984 2.74585 15.9022 2.75024 14.3594C2.75409 12.8433 2.74695 11.3273 2.76671 9.81024C2.7733 9.29887 2.58281 8.96783 2.11236 8.75572C1.52553 8.49154 0.927178 8.3315 0.279416 8.39891C0.210248 8.40768 0.139434 8.40165 0 8.40165Z" fill="#8E8E8E"/>
<path d="M29.3881 15.5323C29.3837 15.0582 29.5072 14.6553 29.7691 14.3265C30.0309 13.9976 30.3603 13.7082 30.6474 13.3898C30.71 13.3196 30.7605 13.1793 30.7347 13.0976C30.3175 11.7866 29.8871 10.48 29.4595 9.17225C29.2871 8.64554 29.1142 8.11938 28.9336 7.568H32.3788C32.3546 7.70831 32.3546 7.84204 32.3091 7.95166C32.0346 8.6428 32.1131 9.31585 32.331 10.0092C32.8372 11.6173 33.3114 13.2358 33.7989 14.8493C33.8192 14.9157 33.8478 14.9792 33.8725 15.0439L33.9499 15.0549C34.5739 12.9838 35.2009 10.9102 35.8311 8.83408C35.2789 8.60662 34.7788 8.7568 34.2244 8.91355C34.2677 8.76831 34.2869 8.64828 34.3369 8.5425C34.7168 7.74394 35.5193 7.29176 36.4493 7.36685C37.1777 7.4255 37.9051 7.50442 38.6324 7.57951C38.936 7.61075 39.003 7.7105 38.886 7.99989C37.4906 11.4528 36.519 15.0472 35.2937 18.5566C35.2575 18.6602 35.2169 18.7616 35.1839 18.8657C35.1602 18.9551 35.106 19.0334 35.0307 19.0872C34.9553 19.1409 34.8635 19.1667 34.7711 19.16C34.1947 19.16 33.6185 19.16 33.0425 19.16C32.8157 19.16 32.6911 19.034 32.6253 18.8312C32.3848 18.0949 32.1442 17.359 31.9034 16.6235C31.7563 16.173 31.6059 15.7235 31.4642 15.2703C31.3956 15.0455 31.2694 14.9414 31.0251 14.9584C30.5403 14.9901 30.07 15.136 29.6527 15.3843C29.5731 15.4292 29.4957 15.4709 29.3881 15.5323Z" fill="#8E8E8E"/>
<path d="M25.2583 7.5318H28.4335C28.4335 7.62991 28.451 7.72856 28.4335 7.81845C27.9114 10.1056 27.8582 12.4273 27.918 14.7578C27.952 16.0781 28.1958 17.3661 28.4961 18.6492C28.5872 19.0383 28.5411 19.1003 28.137 19.1107C27.3603 19.1299 26.583 19.1485 25.8062 19.1567C25.2572 19.1628 25.1853 19.0389 25.3121 18.5193C25.4155 18.1321 25.4779 17.7351 25.4982 17.3349C25.5261 16.4415 25.5279 15.5463 25.5037 14.6493C25.4834 13.9082 25.1744 13.2758 24.6468 12.7512C24.5052 12.6109 24.38 12.4542 24.228 12.2837C24.5617 12.2837 24.9032 12.2755 25.2435 12.287C25.4379 12.2941 25.5279 12.2404 25.5235 12.0294C25.4988 10.9075 25.4988 9.78225 25.4565 8.66415C25.4422 8.28871 25.3286 7.9171 25.2583 7.5318Z" fill="#8E8E8E"/>
<path d="M69.8716 4.71903C69.9232 5.13174 69.9221 5.13338 69.5543 5.13338H49.494C49.6186 5.03473 49.6817 4.9843 49.7465 4.93443C50.1856 4.59407 50.6446 4.27672 51.064 3.90951C51.6678 3.3806 51.9566 2.67521 52.0834 1.8783H52.5681C52.4072 2.49599 52.2519 3.09286 52.0828 3.74179H52.4814C58.656 3.74179 64.8307 3.7438 71.0057 3.74782C73.2564 3.74782 75.5071 3.76152 77.7578 3.77194C78.2459 3.77047 78.7243 3.90813 79.1368 4.16875C80.0475 4.74589 80.9434 5.34659 81.8447 5.93852C81.8876 5.96702 81.9238 6.00539 82.027 6.09308C81.5675 6.07554 81.1948 6.17749 80.8396 5.85905C80.2775 5.35536 79.6006 5.12407 78.8266 5.12845C76.4211 5.14215 74.015 5.12187 71.6095 5.13284C71.3076 5.13284 71.1495 5.03692 71.0716 4.72341H79.4705L79.4919 4.64504C79.1143 4.40552 78.7272 4.17094 78.2842 4.07283C78.0098 4.01254 77.7216 4.01035 77.4389 4.01035C71.4564 4.00706 65.4737 4.00706 59.4909 4.01035C57.1308 4.01035 54.7703 4.01126 52.4094 4.01309C52.2568 4.01309 52.04 3.9243 52.0444 4.22794C52.0482 4.51021 52.1904 4.70314 52.4429 4.72122C52.5159 4.72561 52.5895 4.72122 52.6625 4.72122H69.8716V4.71903Z" fill="#8E8E8E"/>
<path d="M14.1075 6.05198C14.7393 5.63762 15.3102 5.26109 15.8828 4.88784C16.2198 4.6686 16.5602 4.45376 16.8983 4.23562C17.3227 3.96253 17.8212 3.82717 18.3256 3.84812C19.5695 3.87169 20.814 3.86127 22.0585 3.86182H44.0835L43.5752 1.8783H44.044C44.0873 2.05368 44.1307 2.22852 44.1752 2.40336C44.3948 3.26386 44.9437 3.88046 45.642 4.38634C45.9685 4.61416 46.2773 4.86627 46.5659 5.14051H45.1896C40.4057 5.13831 35.6212 5.13631 30.8362 5.13448C26.326 5.13448 21.8159 5.14434 17.3062 5.13448C16.5421 5.13448 15.8932 5.37947 15.3091 5.8437C14.9595 6.12049 14.7349 6.16707 14.1075 6.05198ZM16.5311 4.71355H17.8612L43.4687 4.71903C43.5602 4.72317 43.6518 4.72207 43.7431 4.71574C43.9627 4.69108 44.1104 4.47732 44.0967 4.24C44.0813 3.97199 43.8771 4.06735 43.7481 4.06735C40.1342 4.0626 36.5204 4.06133 32.9069 4.06352C27.9568 4.06644 23.0073 4.07064 18.0583 4.07612C17.4742 4.07667 17.0477 4.43293 16.5311 4.71355Z" fill="#8E8E8E"/>
<path d="M90.4051 18.8114C88.9987 18.8219 87.8223 17.6742 87.8074 16.2765C87.8027 15.5889 88.0704 14.9272 88.5521 14.4356C89.0338 13.9441 89.6906 13.6626 90.3793 13.6523C92.0404 13.6364 92.9632 14.9365 93.0142 16.094C93.0867 17.6342 91.9136 18.7994 90.4051 18.8114ZM91.873 16.5731C90.5648 16.8433 90.1026 16.7693 89.9203 16.2442C90.6631 16.1817 91.0808 15.6682 91.4909 15.1376C90.8871 14.5813 90.1147 14.5199 89.501 14.9683C88.8872 15.4166 88.6698 16.2239 88.9937 16.8931C89.3231 17.575 90.0916 17.9389 90.7998 17.7482C91.4009 17.5887 91.907 17.0455 91.873 16.5731Z" fill="#8E8E8E"/>
<path d="M83.4993 13.757C84.248 13.6885 84.9683 13.6474 85.6797 13.825C86.6415 14.0661 87.1762 14.7288 87.415 15.6506C87.651 16.5627 87.3952 17.3497 86.7205 17.9932C86.4991 18.1976 86.2667 18.3899 86.0245 18.5692C85.4305 19.0258 85.4283 19.023 85.1675 19.6742C84.9183 19.5158 84.8255 19.2757 84.8212 19.0066C84.8173 18.7873 84.7339 18.7216 84.5225 18.7325C84.2483 18.749 83.9732 18.7479 83.6991 18.7292C83.6288 18.7249 83.507 18.6311 83.5064 18.578C83.4971 16.983 83.4993 15.387 83.4993 13.757ZM84.5148 16.2141C84.5148 16.606 84.5297 16.9989 84.5088 17.3897C84.4973 17.6128 84.5955 17.6797 84.7871 17.6917C85.391 17.7295 85.8817 17.5191 86.2144 17.0061C86.5712 16.458 86.552 15.9 86.171 15.3722C85.8137 14.8789 85.3141 14.6893 84.7103 14.7562C84.5631 14.7721 84.5083 14.8345 84.511 14.9842C84.5198 15.3936 84.5148 15.8036 84.5148 16.2135V16.2141Z" fill="#8E8E8E"/>
</g>
<defs>
<filter id="filter0_i_358_59" x="0" y="0" width="96" height="54" filterUnits="userSpaceOnUse" color-interpolation-filters="sRGB">
<feFlood flood-opacity="0" result="BackgroundImageFix"/>
<feBlend mode="normal" in="SourceGraphic" in2="BackgroundImageFix" result="shape"/>
<feColorMatrix in="SourceAlpha" type="matrix" values="0 0 0 0 0 0 0 0 0 0 0 0 0 0 0 0 0 0 127 0" result="hardAlpha"/>
<feOffset dy="1"/>
<feGaussianBlur stdDeviation="1"/>
<feComposite in2="hardAlpha" operator="arithmetic" k2="-1" k3="1"/>
<feColorMatrix type="matrix" values="0 0 0 0 0 0 0 0 0 0 0 0 0 0 0 0 0 0 0.9 0"/>
<feBlend mode="multiply" in2="shape" result="effect1_innerShadow_358_59"/>
</filter>
<clipPath id="clip0_358_59">
<rect width="96" height="53" fill="white"/>
</clipPath>
</defs>
</svg>
