<svg width="42" height="462" viewBox="0 0 42 462" fill="none" xmlns="http://www.w3.org/2000/svg">
<path d="M1.47952 461.737C2.4187 460.828 3.30098 459.864 4.12151 458.851C8.17326 453.155 13.9146 449.969 20.6352 448.492C25.8126 447.367 31.1214 446.934 36.4172 447.205C36.9135 447.236 37.4113 447.236 37.9077 447.205C39.7048 447.073 40.2483 446.64 40.442 444.889C40.6616 443.038 40.7819 441.177 40.8025 439.314C40.8707 416.844 40.9191 394.374 40.9478 371.904C40.9693 344.729 40.9693 317.552 40.9478 290.373C40.9478 285.262 41.0985 280.151 41.1738 275.04C41.1738 274.475 41.2115 273.906 41.1738 273.336C41.0285 269.443 38.4457 266.706 34.4747 266.363C24.3857 265.493 17.0086 260.086 11.2941 252.459C-4.76222 231.033 6.98948 200.503 33.3931 194.532C34.1949 194.353 35.0074 194.263 35.836 194.1C39.1775 193.43 40.9532 191.331 40.9532 188.013C40.9532 152.078 40.9532 116.139 40.9532 80.1936C40.9532 62.6711 40.8133 45.1487 40.7164 27.6262C40.7164 24.3929 40.6465 21.149 40.4528 17.9209C40.3398 16.0484 39.6833 15.5578 37.8 15.447C37.1436 15.4048 36.4764 15.4892 35.8145 15.4998C29.7611 15.5736 23.74 15.2308 17.891 13.5218C13.694 12.2981 10.1534 9.88226 6.8442 7.16053C5.97789 6.44845 5.37524 5.42517 4.64344 4.5232C3.6167 3.2194 2.45943 2.01961 1.18896 0.941711C1.33241 1.49577 1.51215 2.04017 1.72704 2.57157C4.65421 8.90116 9.63684 13.2897 15.5396 16.8132C20.9303 20.0212 26.9003 22.1827 33.1241 23.1797C35.7499 23.6069 35.8145 23.6597 35.8145 26.3023C35.8145 42.8542 35.8145 59.4043 35.8145 75.9527C35.7607 113.023 35.6979 150.095 35.6262 187.169C35.6262 188.118 35.6262 189.068 35.6262 190.028C33.4254 190.587 31.4991 190.998 29.6158 191.568C20.0305 194.454 11.8257 200.626 6.50285 208.956C1.17996 217.286 -0.905052 227.217 0.629353 236.93C3.083 252.997 15.6365 266.7 32.1663 270.461C35.4486 271.21 35.6208 271.458 35.6208 275.177C35.6208 310.306 35.6208 345.435 35.6208 380.565C35.6208 398.651 35.7499 416.738 35.8145 434.825C35.8145 435.474 35.8145 436.128 35.8145 436.777C35.7553 438.924 35.6746 439.055 33.4631 439.414C25.9137 440.588 18.745 443.462 12.521 447.811C7.95803 451.024 4.12151 454.895 1.75933 460.006C1.62959 460.301 1.51641 460.602 1.42033 460.908C1.40869 461.186 1.42855 461.463 1.47952 461.737Z" fill="#322942" fill-opacity="0.4"/>
</svg>
