<svg width="401" height="977" viewBox="0 0 401 977" fill="none" xmlns="http://www.w3.org/2000/svg">
<g clip-path="url(#clip0_326_69)" filter="url(#filter0_i_326_69)">
<path d="M350.48 718.737C351.419 717.828 352.301 716.864 353.122 715.851C357.173 710.155 362.915 706.969 369.635 705.492C374.813 704.367 380.121 703.934 385.417 704.205C385.913 704.236 386.411 704.236 386.908 704.205C388.705 704.073 389.248 703.64 389.442 701.889C389.662 700.038 389.782 698.177 389.803 696.314C389.871 673.844 389.919 651.374 389.948 628.904C389.969 601.729 389.969 574.552 389.948 547.373C389.948 542.262 390.098 537.151 390.174 532.04C390.174 531.475 390.211 530.906 390.174 530.336C390.029 526.443 387.446 523.706 383.475 523.363C373.386 522.493 366.009 517.086 360.294 509.459C344.238 488.033 355.989 457.503 382.393 451.532C383.195 451.353 384.007 451.263 384.836 451.1C388.178 450.43 389.953 448.331 389.953 445.013C389.953 409.078 389.953 373.139 389.953 337.194C389.953 319.671 389.813 302.149 389.716 284.626C389.716 281.393 389.646 278.149 389.453 274.921C389.34 273.048 388.683 272.558 386.8 272.447C386.144 272.405 385.476 272.489 384.815 272.5C378.761 272.574 372.74 272.231 366.891 270.522C362.694 269.298 359.153 266.882 355.844 264.161C354.978 263.448 354.375 262.425 353.643 261.523C352.617 260.219 351.459 259.02 350.189 257.942C350.332 258.496 350.512 259.04 350.727 259.572C353.654 265.901 358.637 270.29 364.54 273.813C369.93 277.021 375.9 279.183 382.124 280.18C384.75 280.607 384.815 280.66 384.815 283.302C384.815 299.854 384.815 316.404 384.815 332.953C384.761 370.023 384.698 407.095 384.626 444.169C384.626 445.118 384.626 446.068 384.626 447.028C382.425 447.587 380.499 447.998 378.616 448.568C369.031 451.454 360.826 457.626 355.503 465.956C350.18 474.286 348.095 484.217 349.629 493.93C352.083 509.997 364.636 523.7 381.166 527.461C384.449 528.21 384.621 528.458 384.621 532.177C384.621 567.306 384.621 602.435 384.621 637.565C384.621 655.651 384.75 673.738 384.815 691.825C384.815 692.474 384.815 693.128 384.815 693.777C384.755 695.924 384.675 696.055 382.463 696.414C374.914 697.588 367.745 700.462 361.521 704.811C356.958 708.024 353.122 711.895 350.759 717.006C350.63 717.301 350.516 717.602 350.42 717.908C350.409 718.186 350.429 718.463 350.48 718.737Z" fill="#1E182A"/>
<path d="M254.098 125.289C259.565 131.329 266.334 134.704 274.588 134.541C281.045 134.409 285.786 131.017 289.488 126.075C292.367 122.225 293.986 117.789 295.364 113.268C297.506 106.403 297.588 99.079 295.601 92.1695C295.062 90.3286 294.035 88.6249 293.222 86.8632C292.797 85.9454 291.952 85.1384 292.501 83.8461C296.268 86.7102 299.889 89.5849 303.645 92.2855C307.503 95.0098 311.799 97.0815 316.354 98.4147C314.294 98.9 313.346 98.8156 310.113 97.7765C308.192 97.1541 306.314 96.4051 304.086 95.5928C305.345 97.8978 306.567 99.8125 307.444 101.833C308.198 103.832 308.85 105.867 309.397 107.93L310.048 108.194C310.285 107.783 310.505 107.35 310.769 106.949C312.351 104.523 314.751 103.294 317.533 102.867C322.193 102.154 326.858 101.458 331.523 101.026C335.33 100.73 339.032 99.6589 342.393 97.8806C345.753 96.1022 348.698 93.6558 351.039 90.6979C353.95 87.2238 355.813 83.0222 356.42 78.5661C356.737 76.1609 357.216 73.7293 357.114 71.3293C356.716 62.009 352.578 54.5348 344.948 48.9805C340.875 45.9977 336.083 44.102 331.039 43.4791C323.721 42.5824 317.269 44.3969 312.62 50.5682C310.145 53.8543 309.752 57.5308 310.748 61.223C311.996 65.8489 314.476 69.8735 318.528 72.7851C320.487 74.1934 321.897 74.5996 324.829 74.3675L322.359 73.1332C317.807 70.8546 314.735 65.448 315.596 60.8696C316.274 57.2512 317.963 54.0126 321.154 51.9976C323.358 50.637 326 50.1311 328.563 50.5788C333.003 51.3383 337.173 52.9365 340.563 56.0222C347.165 62.0406 348.924 70.3482 345.276 78.4923C343.576 82.1767 340.766 85.2631 337.225 87.3373C333.684 89.4115 329.58 90.3744 325.464 90.0966C316.736 89.5691 309.015 86.6839 302.407 81.0611C295.592 75.2695 288.815 69.4392 282.079 63.5703C274.631 57.1158 266.246 51.7828 257.198 47.7463C253.684 46.1639 249.901 45.1511 246.199 44.0171C245.554 43.8219 244.585 44.1648 243.939 44.5445C242.664 45.283 241.529 46.2535 240.291 47.0711C237.758 48.7668 234.803 49.7584 231.741 49.9405C232.023 49.6722 232.322 49.4203 232.634 49.1862C241.943 42.8988 248.938 34.5543 254.696 25.1443C256.331 22.4997 257.387 19.55 257.795 16.4833C258.414 11.8047 256.848 7.82231 253.587 4.50455C251.833 2.71644 249.643 1.69315 246.436 2.60039C247.383 3.00127 247.846 3.24918 248.341 3.39687C251.758 4.38851 254.427 9.199 253.097 12.8913C250.854 19.147 247.507 24.6327 242.54 29.132C237.4 33.8588 231.52 37.7464 225.123 40.6466C221.74 42.1883 218.053 42.9807 214.323 42.9674C184.288 42.876 154.25 42.8461 124.211 42.8777C106.673 42.9094 89.135 43.0676 71.5971 43.3525C62.6327 43.5002 53.9965 41.9494 45.4464 39.5389C33.1728 36.0734 23.4442 28.8946 15.217 19.5848C11.9884 15.8926 10.0783 11.4882 9.12049 6.74101C8.84071 5.3485 9.07746 3.84522 9.12049 2.38941C9.14741 1.61403 9.2819 0.807008 9.36799 0.105478C8.24342 -0.279573 7.99589 0.363935 7.69996 0.944148C5.779 4.68916 5.84358 8.55549 6.68836 12.5484C8.30262 20.2864 12.9678 26.2309 18.3163 31.7377C24.3267 37.9301 31.4939 42.5296 39.4199 46.0478C41.8197 47.1027 44.0528 47.4192 46.5549 46.3168C48.8309 45.3094 51.3168 45.1564 54.2333 45.5098C53.8436 45.8782 53.4183 46.2085 52.9634 46.4962C51.7688 47.0236 50.5366 47.5511 49.3313 48.0786C44.4563 50.2254 42.2341 54.1814 41.5991 59.1554C41.2225 62.0775 41.5991 64.3034 42.6753 66.4291C42.9235 66.0213 43.1377 65.5944 43.3156 65.1527C44.6285 60.8327 47.6203 57.9211 51.5644 55.8798C54.57 54.3127 57.9264 53.5042 61.3305 53.5273C89.7126 53.5273 118.095 53.4869 146.477 53.406C150.114 53.406 153.751 53.2108 157.394 53.1739C165.507 53.1678 173.606 53.8223 181.608 55.1308C192.956 56.8714 202.787 61.8138 211.084 69.6309C214.259 72.6163 215.895 76.3613 216.707 80.5178C216.79 81.112 217.041 81.6714 217.433 82.1318C217.69 81.6973 217.886 81.2307 218.015 80.7446C218.838 73.36 217.654 66.503 212.23 60.8433C207.791 56.2279 203.018 51.9818 197.433 48.7115C196.825 48.3581 196.26 47.9309 195.421 47.3718C196.701 46.8179 197.616 47.1555 198.52 47.4298C202.085 48.515 205.466 50.1149 208.55 52.177C209.919 53.0944 211.552 53.5566 213.21 53.4957C218.838 53.4165 224.477 53.1686 230.084 53.4957C235.454 53.7049 240.796 54.3577 246.054 55.4473C254.997 57.4516 262.32 62.3518 268.6 68.8977C280.975 81.8153 284.71 97.3492 283.252 114.513C283.225 114.835 283.144 115.162 283.149 115.484C283.192 120.273 280.626 123.775 277.204 126.782C273.975 129.609 270.047 130.379 265.866 130.047C262.467 129.75 259.198 128.618 256.364 126.755L254.098 125.289Z" fill="#1E182A"/>
<path d="M372.934 30.0867C372.993 30.9676 373.084 31.6691 373.084 32.3812C373.084 77.5604 373.084 122.747 373.084 167.94C373.084 185.784 373.009 203.628 372.998 221.473C372.983 222.443 373.125 223.41 373.418 224.337C374.972 228.797 377.221 232.994 380.085 236.78C380.435 237.113 380.817 237.413 381.225 237.676C381.087 236.933 380.907 236.197 380.687 235.472C378.612 229.892 377.531 224.004 377.491 218.065C377.33 199.572 377.314 181.074 377.281 162.581C377.206 117.81 377.143 73.0348 377.093 28.2564C377.093 27.7711 377.093 27.2859 377.05 26.8006C377.061 26.617 377.032 26.4331 376.965 26.2613C376.898 26.0895 376.794 25.9338 376.661 25.8044C376.527 25.6751 376.367 25.5752 376.191 25.5114C376.015 25.4476 375.827 25.4214 375.64 25.4344C375.226 25.4344 374.812 25.4344 374.397 25.4344C339.486 25.4344 304.572 25.4239 269.654 25.4028C268.078 25.4028 266.964 25.6718 266.302 27.212C265.835 28.1257 265.305 29.0068 264.715 29.8493C265.898 29.9179 266.754 30.0076 267.61 30.0076H354.978C360.106 30.0076 365.234 30.0076 370.367 30.0076C371.185 29.9548 371.992 30.034 372.934 30.0867Z" fill="#1E182A"/>
<path d="M325.308 228.071C333.535 232.718 344.442 229.469 351.496 218.54C351.633 219.103 351.736 219.674 351.803 220.249C351.975 223.646 352.088 227.043 352.287 230.434C352.319 231.489 352.491 232.535 352.799 233.546C356.334 244.001 362.081 252.356 373.934 254.962C377.163 255.668 380.327 256.607 383.534 257.398C384.329 257.549 385.132 257.655 385.939 257.715L386.154 257.267C385.67 256.987 385.207 256.671 384.702 256.433C379.235 253.859 374.01 250.932 369.77 246.57C365.175 241.844 362.145 235.866 361.08 229.422C359.751 221.756 359.149 213.987 359.283 206.213C359.455 186.027 359.369 165.835 359.379 145.644C359.379 144.927 359.315 144.209 359.266 143.212C358.797 143.409 358.351 143.657 357.937 143.951C356.388 145.412 354.919 146.957 353.331 148.376C351.62 149.901 350.969 151.678 351.007 153.973C351.201 166.136 351.276 178.294 351.367 190.458C351.394 194.429 351.437 198.407 351.314 202.373C351.257 203.906 350.971 205.422 350.463 206.872C348.966 211.258 346.717 215.36 343.813 219.004C339.228 224.695 333.557 228.377 325.308 228.071Z" fill="#1E182A"/>
<path d="M225.537 24.5905C224.267 24.543 223.067 24.4481 221.867 24.4481H96.774C88.3315 24.4481 79.8944 24.5483 71.4841 24.4112C66.1948 24.3268 60.9055 23.9892 55.6323 23.5883C50.0524 23.1611 45.0966 20.9193 40.4799 17.9444C38.1984 16.4728 36.0084 14.8746 33.77 13.3449C33.1943 12.9493 32.5754 12.6065 31.5047 11.9471C31.7576 12.9071 31.7361 13.4399 31.9944 13.7194C37.3752 19.5848 42.8636 25.3237 50.6066 28.2933C52.6869 29.0849 54.9021 29.4806 57.1335 29.459C105.701 29.4309 154.266 29.4309 202.83 29.459C208.372 29.459 213.916 29.459 219.462 29.459C222.459 29.4485 224.391 27.9716 225.537 24.5905Z" fill="#1E182A"/>
<path d="M358.454 99.6437C352.68 104.918 346.67 109.813 339.029 112.466C342.634 114.049 346.379 113.896 350.711 113.674C350.085 114.633 349.406 115.558 348.677 116.444C343.877 121.534 338.018 124.514 330.92 125.105C324.802 125.632 318.862 125.205 313.271 122.436C312.894 122.293 312.492 122.225 312.087 122.235C311.969 122.235 311.84 122.42 311.549 122.641C311.724 123.036 311.962 123.401 312.254 123.723C315.37 126.138 318.517 128.544 322.219 130.052C330.377 133.365 338.652 134.404 347.009 130.806C348.72 130.073 350.237 128.865 351.809 127.847C352.333 127.417 352.935 127.088 353.584 126.877C353.332 127.51 353.031 128.123 352.686 128.712C350.533 131.803 348.381 134.852 346.229 137.938C343.35 142.084 341.305 146.604 340.778 151.615C340.573 153.577 341.068 155.618 341.316 157.618C341.37 158.029 341.757 158.398 342.311 159.332C342.494 157.633 342.629 156.526 342.726 155.418C343.043 151.757 344.211 148.471 346.88 145.771C349.005 143.613 351.066 141.393 353.154 139.204C353.999 138.312 354.87 137.442 355.672 136.519C358.066 133.787 359.369 130.791 359.256 126.998C359.024 118.817 359.202 110.62 359.196 102.429C359.196 101.574 359.1 100.714 359.051 99.86L358.454 99.6437Z" fill="#1E182A"/>
<path d="M4.61673 69.0401C4.62179 68.6644 4.59841 68.2889 4.54678 67.9166C3.35762 63.1694 4.96648 58.9497 7.23719 54.9198C7.60756 54.3849 8.01951 53.8788 8.46938 53.406C9.58859 51.9713 10.9392 51.5651 12.774 51.9555C16.91 52.8013 21.1632 52.9458 25.349 52.3827C25.6665 52.3458 25.9786 52.2561 26.4252 52.1665C26.253 51.8922 26.1723 51.6021 26.0108 51.5493C20.3638 49.6857 15.0855 46.8845 10.4065 43.2681C8.56084 41.8492 8.49089 41.9072 6.57532 43.2681C2.61504 46.1111 1.05462 50.2729 0.236739 54.7247C-0.715667 59.8833 1.12993 64.4564 3.84724 68.7606C3.93334 68.8977 4.13246 68.8977 4.61673 69.0401Z" fill="#1E182A"/>
<path d="M246.807 973.867C250.16 974.969 252.554 973.582 254.486 971.229C258.478 966.403 258.925 960.997 256.525 955.448C255.155 952.324 253.466 949.345 251.483 946.555C246.963 940.114 241.749 934.249 235.432 929.407C234.356 928.568 233.199 927.824 231.623 926.685C232.215 926.629 232.811 926.629 233.404 926.685C236.394 927.377 239.201 928.68 241.642 930.509C242.363 931.037 243.127 931.564 243.837 932.091C244.763 932.825 245.661 932.825 246.823 932.513C259.791 929.059 270.924 922.344 281.035 913.904C286.83 909.068 292.334 903.925 298.087 899.014C303.15 894.678 308.391 890.511 314.918 888.465C320.062 886.856 325.383 885.928 330.797 886.882C339.067 888.333 345.282 894.879 346.826 903.155C348.591 912.649 342.855 920.086 336.823 923.167C334.364 924.427 331.647 925.609 328.935 925.915C324.14 926.442 320.207 925.387 317.603 920.793C313.513 913.556 315.746 906.652 323.414 903.007C323.699 902.87 323.952 902.706 324.313 902.511C322.483 901.984 321.391 901.984 319.723 903.155C317.894 904.398 316.242 905.873 314.81 907.543C312.204 910.619 310.651 914.42 310.371 918.409C310.182 921.353 311.144 924.258 313.061 926.532C316.575 931.015 321.299 933.215 327.008 933.299C338.717 933.468 350.684 926.384 355.231 914.648C357.144 909.778 357.656 904.487 356.711 899.352C356.022 895.443 354.962 891.761 352.831 888.417C348.935 882.314 343.544 878.016 336.328 876.47C331.577 875.447 326.68 875.099 321.854 874.424C320.129 874.237 318.416 873.952 316.726 873.569C314.363 872.968 312.254 871.871 310.871 869.755C310.487 869.269 310.074 868.806 309.634 868.368C308.601 870.684 308.407 872.962 307.449 874.946C306.491 876.929 305.297 878.865 303.995 881.186C308.03 879.603 311.678 877.878 315.935 878.2C314.267 878.881 312.566 879.492 310.941 880.257C309.236 881.064 307.562 881.972 305.937 882.926C304.312 883.881 302.859 884.836 301.385 885.885C299.911 886.935 298.399 888.19 296.887 889.324C295.375 890.459 294.428 892.104 292.071 892.969C292.437 891.835 292.534 891.039 292.921 890.416C297.452 883.032 297.823 875.051 296.236 866.886C295.095 861.036 293.104 855.429 289.515 850.535C285.689 845.318 280.663 841.984 273.878 842.042C268.623 842.067 263.5 843.662 259.194 846.615C257.305 847.892 255.47 849.253 254.174 851.257C254.9 850.804 255.621 850.35 256.326 849.907C260.76 847.18 265.511 845.872 270.757 846.848C273.693 847.43 276.377 848.876 278.452 850.993C281.734 854.158 282.95 857.961 283.295 862.334C284.263 873.812 282.966 884.973 277.586 895.248C272.205 905.523 264.333 913.614 253.528 918.662C249.46 920.561 245.134 921.489 240.705 922.228C232.225 923.647 223.702 923.135 215.195 923.088C212.312 922.997 209.468 923.758 207.032 925.271C204.466 926.854 201.549 927.909 198.735 929.048C197.874 929.407 196.863 929.412 195.921 929.575C195.856 929.428 195.786 929.28 195.722 929.138C196.168 928.739 196.643 928.373 197.142 928.041C202.771 924.812 207.517 920.54 212.004 915.972C217.482 910.386 218.773 903.55 218.025 896.139C217.979 895.823 217.867 895.52 217.697 895.248C217.527 894.976 217.302 894.741 217.035 894.557C216.906 895.148 216.761 895.733 216.642 896.324C215.747 901.158 213.112 905.517 209.217 908.609C204.084 912.791 198.692 916.521 192.353 918.667C186.969 920.548 181.365 921.757 175.673 922.265C168.678 922.845 161.683 923.557 154.634 923.504C125.179 923.283 95.7194 923.177 66.2648 923.04C64.36 923.04 62.4605 923.109 60.5557 923.072C55.5267 923 50.7153 921.049 47.1037 917.618C45.4571 916.119 44.2179 914.24 43.4985 912.153C43.2941 911.552 43.0519 910.961 42.7936 910.281C40.7812 913.071 41.3086 919.179 43.2833 923.082C45.5325 927.534 50.0524 928.689 53.9804 930.847C51.6137 931.559 49.0622 931.392 46.8131 930.377C44.0313 929.148 41.626 929.539 38.9894 930.731C27.1086 936.084 17.3532 943.843 10.3958 954.773C7.59507 959.212 6.09293 964.322 6.05344 969.542C6.00501 971.899 6.94666 973.972 7.88831 976.045C8.0282 976.351 8.45865 976.525 8.96445 976.937C9.12049 976.351 9.3465 975.977 9.28196 975.66C7.7215 968.371 10.7724 962.31 15.2008 957.062C23.5788 947.188 33.9476 940.009 46.8131 936.643C55.0028 934.502 63.2461 933.109 71.7855 933.252C85.3505 933.489 98.9264 933.442 112.491 933.473C146.337 933.558 180.18 933.618 214.022 933.653C218.085 933.637 222.097 934.54 225.747 936.29C232.795 939.564 239.177 944.068 244.58 949.582C248.352 953.483 251.17 958.172 252.823 963.296C254.405 968.044 252.382 971.778 247.534 973.408C247.281 973.544 247.038 973.697 246.807 973.867Z" fill="#1E182A"/>
<path d="M373.09 946.686H264.596C265.672 948.385 266.34 949.756 267.33 950.838C267.749 951.297 268.853 951.265 269.649 951.265C280.981 951.297 292.315 951.307 303.65 951.297H374.381C376.991 951.297 377.104 951.191 377.109 948.49C377.174 912.313 377.237 876.138 377.298 839.964C377.324 817.494 377.254 795.029 377.298 772.559C377.298 766.483 377.464 760.396 377.836 754.33C378.109 749.779 379.106 745.298 380.79 741.048C380.987 740.495 380.973 739.89 380.752 739.345C380.298 739.77 379.884 740.234 379.514 740.732C378.18 742.879 376.824 745.02 375.613 747.225C373.789 750.503 372.863 754.188 372.923 757.922C373.041 819.727 373.095 881.532 373.084 943.337L373.09 946.686Z" fill="#1E182A"/>
<path d="M386.24 718.832C384.233 719.206 382.205 719.475 380.23 719.971C377.19 720.736 374.155 721.553 371.174 722.529C364.502 724.692 359.761 728.954 356.323 735.009C352.809 741.201 351.54 747.7 351.803 754.636C351.891 755.726 351.744 756.822 351.373 757.854C351.055 757.463 350.711 757.083 350.431 756.672C347.505 752.192 343.092 748.839 337.937 747.178C333.664 745.769 329.661 746.555 325.217 748.401C325.601 748.528 325.998 748.616 326.4 748.665C330.452 748.391 334.057 749.641 337.404 751.761C340.098 753.508 342.443 755.723 344.324 758.297C347.124 762.025 349.293 766.171 350.749 770.576C351.17 771.972 351.368 773.424 351.335 774.88C351.292 787.608 351.184 800.336 351.098 813.063C351.098 816.634 351.007 820.2 351.098 823.766C351.098 824.763 351.335 826.007 351.965 826.683C354.117 828.998 356.511 831.113 358.884 833.376C359.702 832.548 359.369 831.53 359.369 830.633C359.39 817.334 359.39 804.037 359.369 790.741C359.369 781.98 359.412 773.224 359.266 764.468C359.153 757.843 360.235 751.366 361.602 744.952C363.291 736.997 367.827 730.668 374.586 726.037C377.884 723.774 381.581 722.049 385.089 720.087C385.503 719.855 385.945 719.66 386.375 719.443L386.24 718.832Z" fill="#1E182A"/>
<path d="M225.612 952.067C224.165 948.411 222.427 947.198 218.908 947.198C165.896 947.198 112.906 947.267 59.8724 947.103C52.9957 947.103 47.2006 949.081 42.1157 953.248C38.8872 955.885 35.9493 958.882 32.936 961.772C32.285 962.394 31.4617 963.075 31.72 964.626L33.8723 963.249C37.6389 960.881 41.2978 958.402 45.129 956.17C48.5271 954.277 52.3312 953.193 56.235 953.006C61.6158 952.631 66.9966 952.278 72.3344 952.272C122.121 952.22 171.91 952.207 221.7 952.235C222.954 952.23 224.208 952.125 225.612 952.067Z" fill="#1E182A"/>
<path d="M350.555 862.925C346.358 862.819 342.667 862.682 338.577 864.085C340.794 865.066 342.591 865.763 344.297 866.643C346.052 867.548 347.752 868.551 349.387 869.65C351.001 870.752 352.562 871.992 354.09 873.231C355.618 874.471 357.044 875.758 358.825 877.288C358.998 876.566 359.119 875.832 359.186 875.093C359.186 865.847 359.186 856.6 359.186 847.359C359.205 845.803 358.7 844.285 357.749 843.039C356.377 841.22 354.935 839.442 353.407 837.765C351.254 835.402 349.043 833.107 346.804 830.828C344.2 828.191 343.097 824.952 342.753 821.387C342.645 820.274 342.505 819.166 342.376 818.053L341.838 817.974C341.58 818.681 341.268 819.372 341.074 820.084C340.078 823.776 340.934 827.331 342.15 830.813C343.488 834.483 345.417 837.92 347.864 840.993C349.516 843.103 350.969 845.392 352.476 847.618C352.949 848.306 353.234 849.101 353.304 849.928C352.987 849.759 352.685 849.565 352.4 849.348C346.449 844.105 339.325 843.045 331.754 843.983C324.496 844.885 318.216 848.04 312.679 852.666C312.251 853.07 311.852 853.504 311.485 853.963L311.781 854.491C312.367 854.445 312.945 854.328 313.503 854.142C320.632 850.761 328.111 850.682 335.564 852.37C340.937 853.603 345.73 856.577 349.167 860.81C349.581 861.29 349.866 861.865 350.555 862.925Z" fill="#1E182A"/>
<path d="M26.1939 924.375C24.7676 924.176 23.3297 924.066 21.8892 924.048C18.6607 924.195 15.4645 924.39 12.2845 924.807C10.8854 924.992 9.90075 924.807 8.9914 923.752C5.35934 919.717 3.69666 915.07 4.33698 909.685C4.41231 909.057 4.52531 908.435 4.64369 907.68C4.24551 907.812 3.91726 907.823 3.82041 907.97C-0.774811 915.223 -1.56039 922.027 3.433 930.092C4.26165 931.432 5.58533 932.513 6.86597 933.531C8.42102 934.782 8.67391 934.75 10.2882 933.489C14.1859 930.484 18.4881 928.02 23.073 926.168C24.1169 925.736 25.1876 925.366 26.2476 924.971C26.2369 924.786 26.2315 924.58 26.1939 924.375Z" fill="#1E182A"/>
<path d="M387.462 500.139L401 489.009L387.489 477.858L373.951 488.993L387.462 500.139ZM379.116 489.004L387.478 482.147L395.829 489.004L387.478 495.861L379.116 489.004Z" fill="#1E182A"/>
</g>
<defs>
<filter id="filter0_i_326_69" x="0" y="0" width="401" height="980" filterUnits="userSpaceOnUse" color-interpolation-filters="sRGB">
<feFlood flood-opacity="0" result="BackgroundImageFix"/>
<feBlend mode="normal" in="SourceGraphic" in2="BackgroundImageFix" result="shape"/>
<feColorMatrix in="SourceAlpha" type="matrix" values="0 0 0 0 0 0 0 0 0 0 0 0 0 0 0 0 0 0 127 0" result="hardAlpha"/>
<feOffset dy="3"/>
<feGaussianBlur stdDeviation="1.5"/>
<feComposite in2="hardAlpha" operator="arithmetic" k2="-1" k3="1"/>
<feColorMatrix type="matrix" values="0 0 0 0 0 0 0 0 0 0 0 0 0 0 0 0 0 0 0.4 0"/>
<feBlend mode="normal" in2="shape" result="effect1_innerShadow_326_69"/>
</filter>
<clipPath id="clip0_326_69">
<rect width="401" height="977" fill="white" transform="matrix(-1 0 0 1 401 0)"/>
</clipPath>
</defs>
</svg>
