<svg width="1786" height="977" viewBox="0 0 1786 977" fill="none" xmlns="http://www.w3.org/2000/svg">
<path d="M9.16477 522.289L7.5 522.105V523.78V772.041V772.518L7.77563 772.908L10.3253 776.51L10.8538 777.257L11.7597 777.129C19.3514 776.055 27.1104 775.5 35 775.5C125.851 775.5 199.5 849.149 199.5 940C199.5 946.918 199.073 953.736 198.244 960.428L198.12 961.429L199 961.921L203.268 964.309L203.609 964.5H204H1578.34H1578.68L1578.99 964.35L1583.92 961.962L1584.89 961.494L1584.76 960.428C1583.93 953.736 1583.5 946.918 1583.5 940C1583.5 849.149 1657.15 775.5 1748 775.5C1755.89 775.5 1763.65 776.055 1771.24 777.129L1771.96 777.231L1772.49 776.724L1777.04 772.346L1777.5 771.904V771.266V523.78V522.28H1776H1771H1769.5V522.411C1751.61 521.13 1737.5 506.213 1737.5 488C1737.5 468.946 1752.95 453.5 1772 453.5H1773.5V452V451.685L1774.96 453.084L1777.5 455.509V452V199.734V199.096L1777.04 198.654L1772.49 194.276L1771.96 193.769L1771.24 193.871C1763.65 194.945 1755.89 195.5 1748 195.5C1657.15 195.5 1583.5 121.851 1583.5 31C1583.5 24.082 1583.93 17.2644 1584.76 10.5721L1584.89 9.50604L1583.92 9.03775L1578.99 6.65005L1578.68 6.5H1578.34H204H203.609L203.268 6.69099L199 9.07868L198.12 9.57116L198.244 10.5721C199.073 17.2645 199.5 24.082 199.5 31C199.5 121.851 125.851 195.5 35 195.5C27.1104 195.5 19.3514 194.945 11.7597 193.871L10.8538 193.743L10.3253 194.49L7.77563 198.092L7.5 198.482V198.959V452V453.5H9H13C32.0538 453.5 47.5 468.946 47.5 488C47.5 507.054 32.0538 522.5 13 522.5C11.7032 522.5 10.4235 522.428 9.16477 522.289ZM1769.5 202.173V445.572C1747.19 446.866 1729.5 465.367 1729.5 488C1729.5 510.633 1747.19 529.134 1769.5 530.428V768.827C1762.46 767.951 1755.28 767.5 1748 767.5C1652.73 767.5 1575.5 844.731 1575.5 940C1575.5 945.565 1575.76 951.069 1576.28 956.5H206.721C207.236 951.069 207.5 945.565 207.5 940C207.5 844.731 130.269 767.5 35 767.5C27.8183 767.5 21.8103 768.372 15.5 769.426V530.474C38.2774 529.684 56.5 510.97 56.5 488C56.5 465.029 38.2768 446.329 15.5 445.54V201.574C21.8103 202.628 27.8183 203.5 35 203.5C130.269 203.5 207.5 126.269 207.5 31C207.5 25.4349 207.236 19.9309 206.721 14.5H1576.28C1575.76 19.9309 1575.5 25.4349 1575.5 31C1575.5 126.269 1652.73 203.5 1748 203.5C1755.28 203.5 1762.46 203.049 1769.5 202.173Z" stroke="#1E182A" stroke-width="3"/>
<path d="M13.5381 500.139L0 489.009L13.5112 477.858L27.0494 488.993L13.5381 500.139ZM21.8838 489.004L13.522 482.147L5.17096 489.004L13.522 495.861L21.8838 489.004Z" fill="#1E182A"/>
<path d="M1771.54 500.139L1758 489.009L1771.51 477.858L1785.05 488.993L1771.54 500.139ZM1779.88 489.004L1771.52 482.147L1763.17 489.004L1771.52 495.861L1779.88 489.004Z" fill="#1E182A"/>
<g filter="url(#filter0_i_326_84)">
<path d="M123.193 973.866C119.84 974.969 117.446 973.581 115.514 971.229C111.522 966.403 111.075 960.996 113.475 955.447C114.845 952.324 116.534 949.344 118.517 946.554C123.037 940.114 128.251 934.249 134.568 929.406C135.644 928.568 136.801 927.824 138.377 926.685C137.785 926.629 137.189 926.629 136.596 926.685C133.606 927.377 130.799 928.68 128.358 930.509C127.637 931.036 126.873 931.564 126.163 932.091C125.237 932.824 124.339 932.824 123.177 932.513C110.209 929.058 99.0758 922.344 88.9653 913.904C83.1701 909.067 77.6656 903.925 71.9135 899.014C66.8501 894.678 61.6092 890.511 55.0823 888.465C49.9382 886.856 44.6166 885.927 39.2035 886.882C30.9332 888.333 24.7183 894.879 23.174 903.155C21.4091 912.649 27.1451 920.086 33.177 923.167C35.636 924.427 38.3533 925.609 41.0652 925.915C45.8595 926.442 49.7929 925.387 52.3972 920.793C56.4867 913.556 54.2536 906.652 46.586 903.007C46.3008 902.87 46.0479 902.706 45.6874 902.511C47.5168 901.984 48.6091 901.984 50.2772 903.155C52.1059 904.398 53.7579 905.873 55.1899 907.543C57.7957 910.619 59.3487 914.42 59.629 918.409C59.8182 921.353 58.8562 924.258 56.9386 926.532C53.425 931.015 48.7006 933.215 42.9916 933.299C31.2829 933.468 19.316 926.384 14.7692 914.648C12.8558 909.778 12.3439 904.487 13.2894 899.351C13.9782 895.443 15.0382 891.761 17.169 888.417C21.0647 882.314 26.4563 878.015 33.672 876.47C38.4232 875.447 43.3198 875.099 48.1464 874.423C49.8713 874.237 51.5835 873.952 53.2743 873.569C55.6365 872.968 57.7458 871.871 59.1286 869.755C59.5128 869.269 59.9261 868.806 60.3662 868.368C61.3993 870.684 61.593 872.962 62.5508 874.946C63.5086 876.929 64.7032 878.865 66.0053 881.186C61.9697 879.603 58.3215 877.878 54.0653 878.2C55.7333 878.88 57.4337 879.492 59.0587 880.257C60.7644 881.064 62.4378 881.971 64.0629 882.926C65.6879 883.881 67.1407 884.836 68.615 885.885C70.0894 886.935 71.6014 888.19 73.1134 889.324C74.6254 890.458 75.5724 892.104 77.9292 892.969C77.5633 891.835 77.4664 891.039 77.079 890.416C72.5484 883.032 72.1771 875.051 73.7645 866.886C74.9052 861.036 76.8961 855.429 80.4851 850.534C84.3109 845.318 89.3365 841.984 96.1217 842.042C101.377 842.067 106.5 843.662 110.806 846.615C112.695 847.892 114.53 849.253 115.826 851.257C115.1 850.803 114.379 850.35 113.674 849.907C109.24 847.18 104.489 845.872 99.2426 846.847C96.3072 847.43 93.6228 848.876 91.548 850.993C88.2658 854.158 87.0497 857.961 86.7053 862.334C85.7368 873.812 87.0336 884.973 92.4144 895.248C97.7952 905.523 105.667 913.614 116.472 918.662C120.54 920.561 124.866 921.489 129.295 922.228C137.775 923.647 146.298 923.135 154.805 923.088C157.688 922.997 160.532 923.758 162.968 925.271C165.534 926.854 168.451 927.908 171.265 929.048C172.126 929.406 173.137 929.412 174.079 929.575C174.144 929.428 174.214 929.28 174.278 929.137C173.832 928.739 173.357 928.373 172.858 928.04C167.229 924.812 162.483 920.54 157.996 915.972C152.518 910.386 151.227 903.55 151.975 896.139C152.021 895.823 152.133 895.52 152.303 895.248C152.473 894.976 152.698 894.74 152.965 894.557C153.094 895.148 153.239 895.733 153.358 896.324C154.253 901.158 156.888 905.517 160.783 908.609C165.916 912.791 171.308 916.521 177.647 918.667C183.031 920.548 188.635 921.757 194.327 922.265C201.322 922.845 208.317 923.557 215.366 923.504C244.821 923.283 274.281 923.177 303.735 923.04C305.64 923.04 307.539 923.109 309.444 923.072C314.473 923 319.285 921.049 322.896 917.618C324.543 916.118 325.782 914.24 326.501 912.153C326.706 911.552 326.948 910.961 327.206 910.281C329.219 913.071 328.691 919.179 326.717 923.082C324.467 927.534 319.948 928.689 316.02 930.846C318.386 931.559 320.938 931.392 323.187 930.377C325.969 929.148 328.374 929.538 331.011 930.73C342.891 936.084 352.647 943.843 359.604 954.772C362.405 959.212 363.907 964.321 363.947 969.541C363.995 971.899 363.053 973.972 362.112 976.045C361.972 976.351 361.541 976.525 361.036 976.936C360.88 976.351 360.654 975.976 360.718 975.66C362.279 968.37 359.228 962.309 354.799 957.061C346.421 947.187 336.052 940.008 323.187 936.643C314.997 934.502 306.754 933.109 298.215 933.252C284.649 933.489 271.074 933.441 257.509 933.473C223.663 933.558 189.82 933.617 155.978 933.652C151.915 933.637 147.903 934.539 144.253 936.29C137.205 939.563 130.823 944.067 125.42 949.582C121.648 953.482 118.83 958.171 117.177 963.296C115.595 968.043 117.618 971.777 122.466 973.407C122.719 973.543 122.962 973.697 123.193 973.866Z" fill="#1E182A"/>
<path d="M343.806 924.375C345.232 924.175 346.67 924.066 348.111 924.048C351.339 924.195 354.535 924.39 357.716 924.807C359.115 924.992 360.099 924.807 361.009 923.752C364.641 919.717 366.303 915.07 365.663 909.685C365.588 909.057 365.475 908.434 365.356 907.68C365.754 907.812 366.083 907.823 366.18 907.97C370.775 915.223 371.56 922.027 366.567 930.092C365.738 931.432 364.415 932.513 363.134 933.531C361.579 934.781 361.326 934.75 359.712 933.489C355.814 930.484 351.512 928.02 346.927 926.168C345.883 925.735 344.812 925.366 343.752 924.971C343.763 924.786 343.768 924.58 343.806 924.375Z" fill="#1E182A"/>
<path d="M5.70722 865.434C3.35471 863.502 1.96747 861.108 3.06987 857.756C3.23964 857.986 3.39299 858.229 3.52877 858.482C5.15865 863.33 8.89309 865.353 13.6403 863.771C18.7647 862.119 23.454 859.3 27.3544 855.528C32.8688 850.125 37.373 843.744 40.6466 836.695C42.3969 833.045 43.2994 829.033 43.2839 824.97C43.3191 791.129 43.3789 757.285 43.4633 723.44C43.4949 709.875 43.4475 696.299 43.6848 682.734C43.8272 674.194 42.4347 665.951 40.2932 657.761C36.928 644.896 29.7492 634.527 19.875 626.149C14.6267 621.721 8.56608 618.67 1.27649 620.23C0.960007 620.295 0.585495 620.069 0 619.913C0.411423 619.407 0.585526 618.977 0.891449 618.837L0.891546 618.837C2.96447 617.895 5.03735 616.953 7.39508 617.002C12.6152 617.041 17.7242 618.543 22.1642 621.344C33.0933 628.302 40.8523 638.057 46.2061 649.938C47.3981 652.574 47.7885 654.98 46.5595 657.761C45.5449 660.011 45.3778 662.562 46.09 664.929C48.2474 661.001 49.4025 656.481 53.8543 654.232C57.7576 652.257 63.8657 651.73 66.656 653.742C65.9755 654 65.3848 654.242 64.7835 654.447C62.6964 655.166 60.8182 656.405 59.3189 658.052C55.8875 661.664 53.9368 666.475 53.8649 671.504C53.828 673.409 53.8966 675.308 53.8966 677.213C53.7594 706.668 53.6539 736.128 53.4324 765.582C53.3797 772.631 54.0917 779.626 54.6719 786.621C55.1796 792.314 56.3882 797.918 58.2692 803.302C60.416 809.64 64.1452 815.032 68.3281 820.165C71.42 824.06 75.7787 826.695 80.6127 827.591C81.2035 827.709 81.789 827.854 82.3798 827.984C82.1961 828.25 81.961 828.475 81.6888 828.645C81.4167 828.816 81.1134 828.927 80.7974 828.974C73.3865 829.722 66.5504 828.43 60.9646 822.953C56.3967 818.465 52.1242 813.719 48.8961 808.091C48.5639 807.591 48.1973 807.117 47.799 806.67C47.6566 806.735 47.5089 806.805 47.3613 806.869C47.5248 807.811 47.53 808.823 47.8887 809.683C49.028 812.498 50.0829 815.414 51.6653 817.981C53.1791 820.417 53.9399 823.261 53.8491 826.143C53.3651 841.5 54.7088 836.695 54.7088 851.654L48.8961 844.5C47.7568 846.077 48.3687 845.304 47.53 846.381C42.6879 852.698 36.8224 857.912 30.3821 862.432C27.592 864.414 24.6125 866.103 21.489 867.473C15.94 869.873 10.5335 869.427 5.70722 865.434Z" fill="#1E182A"/>
<path d="M123.193 4.06989C119.84 2.96748 117.446 4.35474 115.514 6.70724C111.522 11.5336 111.075 16.94 113.475 22.489C114.845 25.6125 116.534 28.592 118.517 31.382C123.037 37.8224 128.251 43.6875 134.568 48.5297C135.644 49.3683 136.801 50.112 138.377 51.2513C137.785 51.307 137.189 51.307 136.596 51.2513C133.606 50.5592 130.799 49.2562 128.358 47.4273C127.637 46.8998 126.873 46.3724 126.163 45.8449C125.237 45.1118 124.339 45.1117 123.177 45.4229C110.209 48.8779 99.0758 55.5924 88.9653 64.0318C83.1701 68.8687 77.6656 74.0115 71.9135 78.9222C66.8501 83.258 61.6092 87.425 55.0823 89.4716C49.9382 91.0803 44.6166 92.0087 39.2035 91.054C30.9332 89.6034 24.7183 83.0576 23.174 74.7816C21.4091 65.2872 27.1451 57.85 33.177 54.7696C35.636 53.5089 38.3533 52.3274 41.0652 52.0214C45.8595 51.494 49.7929 52.5489 52.3972 57.1432C56.4867 64.38 54.2536 71.2846 46.586 74.9294C46.3008 75.0665 46.0479 75.23 45.6874 75.4251C47.5168 75.9526 48.6091 75.9526 50.2772 74.7816C52.1059 73.5386 53.7579 72.0629 55.1899 70.3931C57.7957 67.3173 59.3487 63.516 59.629 59.5273C59.8182 56.5828 58.8562 53.6783 56.9386 51.4043C53.425 46.9209 48.7006 44.7215 42.9916 44.6371C31.2829 44.4683 19.316 51.552 14.7692 63.2881C12.8558 68.1578 12.3439 73.4492 13.2894 78.5847C13.9782 82.4932 15.0382 86.1749 17.169 89.5191C21.0647 95.6219 26.4563 99.9207 33.672 101.466C38.4232 102.489 43.3198 102.838 48.1464 103.513C49.8713 103.699 51.5835 103.984 53.2743 104.367C55.6365 104.969 57.7458 106.066 59.1286 108.181C59.5128 108.667 59.9261 109.13 60.3662 109.568C61.3993 107.252 61.593 104.974 62.5508 102.991C63.5086 101.007 64.7032 99.0715 66.0053 96.7506C61.9697 98.333 58.3215 100.058 54.0653 99.7361C55.7333 99.0557 57.4337 98.4438 59.0587 97.679C60.7644 96.872 62.4378 95.9647 64.0629 95.01C65.6879 94.0552 67.1407 93.1005 68.615 92.0509C70.0894 91.0012 71.6014 89.7458 73.1134 88.6118C74.6254 87.4777 75.5724 85.8321 77.9292 84.967C77.5633 86.1011 77.4664 86.8976 77.079 87.52C72.5484 94.9045 72.1771 102.885 73.7645 111.05C74.9052 116.9 76.8961 122.507 80.4851 127.402C84.3109 132.618 89.3365 135.952 96.1217 135.894C101.377 135.87 106.5 134.274 110.806 131.321C112.695 130.044 114.53 128.683 115.826 126.679C115.1 127.133 114.379 127.586 113.674 128.029C109.24 130.756 104.489 132.065 99.2426 131.089C96.3072 130.506 93.6228 129.06 91.548 126.943C88.2658 123.778 87.0497 119.975 86.7053 115.602C85.7368 104.125 87.0336 92.9634 92.4144 82.6884C97.7952 72.4133 105.667 64.3219 116.472 59.2741C120.54 57.3752 124.866 56.4469 129.295 55.7084C137.775 54.2895 146.298 54.8012 154.805 54.8486C157.688 54.9395 160.532 54.1786 162.968 52.6649C165.534 51.0825 168.451 50.0277 171.265 48.8883C172.126 48.5297 173.137 48.5244 174.079 48.3609C174.144 48.5086 174.214 48.6563 174.278 48.7987C173.832 49.197 173.357 49.5635 172.858 49.8957C167.229 53.1238 162.483 57.3963 157.996 61.9641C152.518 67.55 151.227 74.3861 151.975 81.797C152.021 82.113 152.133 82.4163 152.303 82.6884C152.473 82.9605 152.698 83.1957 152.965 83.3794C153.094 82.7886 153.239 82.2031 153.358 81.6123C154.253 76.7783 156.888 72.4196 160.783 69.3276C165.916 65.1448 171.308 61.4156 177.647 59.2688C183.031 57.3878 188.635 56.1792 194.327 55.6715C201.322 55.0913 208.317 54.3792 215.366 54.432C244.821 54.6535 274.281 54.759 303.735 54.8961C305.64 54.8961 307.539 54.8276 309.444 54.8645C314.473 54.9364 319.285 56.8871 322.896 60.3185C324.543 61.8177 325.782 63.696 326.501 65.7831C326.706 66.3844 326.948 66.9751 327.206 67.6555C329.219 64.8652 328.691 58.7572 326.717 54.8539C324.467 50.4021 319.948 49.2471 316.02 47.0897C318.386 46.3775 320.938 46.5446 323.187 47.5592C325.969 48.7882 328.374 48.3978 331.011 47.2057C342.891 41.852 352.647 34.0932 359.604 23.1641C362.405 18.7242 363.907 13.6152 363.947 8.39511C363.995 6.03735 363.053 3.9644 362.112 1.89145C361.972 1.58553 361.541 1.41142 361.036 1C360.88 1.58549 360.654 1.96001 360.718 2.27649C362.279 9.56608 359.228 15.6267 354.799 20.875C346.421 30.7491 336.052 37.9278 323.187 41.293C314.997 43.4345 306.754 44.827 298.215 44.6846C284.649 44.4472 271.074 44.4947 257.509 44.463C223.663 44.3786 189.82 44.3189 155.978 44.2837C151.915 44.2991 147.903 43.3968 144.253 41.6464C137.205 38.3728 130.823 33.8688 125.42 28.3544C121.648 24.454 118.83 19.7647 117.177 14.6403C115.595 9.89312 117.618 6.15866 122.466 4.52878C122.719 4.39301 122.962 4.23965 123.193 4.06989Z" fill="#1E182A"/>
<path d="M343.806 53.5616C345.232 53.7607 346.67 53.87 348.111 53.8886C351.339 53.741 354.535 53.5458 357.716 53.1291C359.115 52.9444 360.099 53.1291 361.009 54.184C364.641 58.2191 366.303 62.8661 365.663 68.2516C365.588 68.8792 365.475 69.5017 365.356 70.256C365.754 70.1241 366.083 70.1135 366.18 69.9658C370.775 62.7132 371.56 55.909 366.567 47.844C365.738 46.5043 364.415 45.423 363.134 44.405C361.579 43.1549 361.326 43.1865 359.712 44.4471C355.814 47.4525 351.512 49.916 346.927 51.7682C345.883 52.2007 344.812 52.57 343.752 52.9656C343.763 53.1502 343.768 53.3559 343.806 53.5616Z" fill="#1E182A"/>
<path d="M5.70722 112.502C3.35471 114.434 1.96747 116.828 3.06987 120.18C3.23964 119.95 3.39299 119.707 3.52877 119.454C5.15865 114.606 8.89309 112.583 13.6403 114.165C18.7647 115.818 23.454 118.636 27.3544 122.408C32.8688 127.811 37.373 134.192 40.6466 141.241C42.3969 144.891 43.2994 148.903 43.2839 152.966C43.3191 186.808 43.3789 220.651 43.4633 254.496C43.4949 268.061 43.4475 281.637 43.6848 295.202C43.8272 303.742 42.4347 311.985 40.2932 320.175C36.928 333.04 29.7492 343.409 19.875 351.787C14.6267 356.215 8.56608 359.266 1.27649 357.706C0.960007 357.641 0.585495 357.867 0 358.023C0.411423 358.529 0.585526 358.96 0.891449 359.099L0.891546 359.1C2.96447 360.041 5.03735 360.983 7.39508 360.934C12.6152 360.895 17.7242 359.393 22.1642 356.592C33.0933 349.635 40.8523 339.879 46.2061 327.998C47.3981 325.362 47.7885 322.957 46.5595 320.175C45.5449 317.926 45.3778 315.374 46.09 313.007C48.2474 316.935 49.4025 321.455 53.8543 323.704C57.7576 325.679 63.8657 326.207 66.656 324.194C65.9755 323.936 65.3848 323.694 64.7835 323.489C62.6964 322.77 60.8182 321.531 59.3189 319.884C55.8875 316.273 53.9368 311.461 53.8649 306.432C53.828 304.527 53.8966 302.628 53.8966 300.723C53.7594 271.268 53.6539 241.808 53.4324 212.354C53.3797 205.305 54.0917 198.31 54.6719 191.315C55.1796 185.623 56.3882 180.018 58.2692 174.634C60.416 168.296 64.1452 162.904 68.3281 157.771C71.42 153.876 75.7787 151.241 80.6127 150.345C81.2035 150.227 81.789 150.082 82.3798 149.953C82.1961 149.686 81.961 149.461 81.6888 149.291C81.4167 149.12 81.1134 149.009 80.7974 148.962C73.3865 148.215 66.5504 149.506 60.9646 154.984C56.3967 159.471 52.1242 164.217 48.8961 169.845C48.5639 170.345 48.1973 170.82 47.799 171.266C47.6566 171.201 47.5089 171.131 47.3613 171.067C47.5248 170.125 47.53 169.114 47.8887 168.253C49.028 165.439 50.0829 162.522 51.6653 159.955C53.1791 157.519 53.9399 154.675 53.8491 151.793C53.3651 136.436 54.7088 141.241 54.7088 126.282L48.8961 133.436C47.7568 131.86 48.3687 132.632 47.53 131.556C42.6879 125.238 36.8224 120.024 30.3821 115.505C27.592 113.522 24.6125 111.833 21.489 110.463C15.94 108.063 10.5335 108.509 5.70722 112.502Z" fill="#1E182A"/>
</g>
<g clip-path="url(#clip0_326_84)" filter="url(#filter1_i_326_84)">
<path d="M1658.81 973.866C1662.16 974.969 1664.55 973.581 1666.49 971.229C1670.48 966.403 1670.92 960.996 1668.53 955.447C1667.15 952.324 1665.47 949.344 1663.48 946.554C1658.96 940.114 1653.75 934.249 1647.43 929.406C1646.36 928.568 1645.2 927.824 1643.62 926.685C1644.21 926.629 1644.81 926.629 1645.4 926.685C1648.39 927.377 1651.2 928.68 1653.64 930.509C1654.36 931.036 1655.13 931.564 1655.84 932.091C1656.76 932.824 1657.66 932.824 1658.82 932.513C1671.79 929.058 1682.92 922.344 1693.03 913.904C1698.83 909.067 1704.33 903.925 1710.09 899.014C1715.15 894.678 1720.39 890.511 1726.92 888.465C1732.06 886.856 1737.38 885.927 1742.8 886.882C1751.07 888.333 1757.28 894.879 1758.83 903.155C1760.59 912.649 1754.85 920.086 1748.82 923.167C1746.36 924.427 1743.65 925.609 1740.93 925.915C1736.14 926.442 1732.21 925.387 1729.6 920.793C1725.51 913.556 1727.75 906.652 1735.41 903.007C1735.7 902.87 1735.95 902.706 1736.31 902.511C1734.48 901.984 1733.39 901.984 1731.72 903.155C1729.89 904.398 1728.24 905.873 1726.81 907.543C1724.2 910.619 1722.65 914.42 1722.37 918.409C1722.18 921.353 1723.14 924.258 1725.06 926.532C1728.57 931.015 1733.3 933.215 1739.01 933.299C1750.72 933.468 1762.68 926.384 1767.23 914.648C1769.14 909.778 1769.66 904.487 1768.71 899.351C1768.02 895.443 1766.96 891.761 1764.83 888.417C1760.94 882.314 1755.54 878.015 1748.33 876.47C1743.58 875.447 1738.68 875.099 1733.85 874.423C1732.13 874.237 1730.42 873.952 1728.73 873.569C1726.36 872.968 1724.25 871.871 1722.87 869.755C1722.49 869.269 1722.07 868.806 1721.63 868.368C1720.6 870.684 1720.41 872.962 1719.45 874.946C1718.49 876.929 1717.3 878.865 1715.99 881.186C1720.03 879.603 1723.68 877.878 1727.93 878.2C1726.27 878.88 1724.57 879.492 1722.94 880.257C1721.24 881.064 1719.56 881.971 1717.94 882.926C1716.31 883.881 1714.86 884.836 1713.38 885.885C1711.91 886.935 1710.4 888.19 1708.89 889.324C1707.37 890.458 1706.43 892.104 1704.07 892.969C1704.44 891.835 1704.53 891.039 1704.92 890.416C1709.45 883.032 1709.82 875.051 1708.24 866.886C1707.09 861.036 1705.1 855.429 1701.51 850.534C1697.69 845.318 1692.66 841.984 1685.88 842.042C1680.62 842.067 1675.5 843.662 1671.19 846.615C1669.31 847.892 1667.47 849.253 1666.17 851.257C1666.9 850.803 1667.62 850.35 1668.33 849.907C1672.76 847.18 1677.51 845.872 1682.76 846.847C1685.69 847.43 1688.38 848.876 1690.45 850.993C1693.73 854.158 1694.95 857.961 1695.29 862.334C1696.26 873.812 1694.97 884.973 1689.59 895.248C1684.2 905.523 1676.33 913.614 1665.53 918.662C1661.46 920.561 1657.13 921.489 1652.71 922.228C1644.23 923.647 1635.7 923.135 1627.19 923.088C1624.31 922.997 1621.47 923.758 1619.03 925.271C1616.47 926.854 1613.55 927.908 1610.74 929.048C1609.87 929.406 1608.86 929.412 1607.92 929.575C1607.86 929.428 1607.79 929.28 1607.72 929.137C1608.17 928.739 1608.64 928.373 1609.14 928.04C1614.77 924.812 1619.52 920.54 1624 915.972C1629.48 910.386 1630.77 903.55 1630.03 896.139C1629.98 895.823 1629.87 895.52 1629.7 895.248C1629.53 894.976 1629.3 894.74 1629.04 894.557C1628.91 895.148 1628.76 895.733 1628.64 896.324C1627.75 901.158 1625.11 905.517 1621.22 908.609C1616.08 912.791 1610.69 916.521 1604.35 918.667C1598.97 920.548 1593.37 921.757 1587.67 922.265C1580.68 922.845 1573.68 923.557 1566.63 923.504C1537.18 923.283 1507.72 923.177 1478.26 923.04C1476.36 923.04 1474.46 923.109 1472.56 923.072C1467.53 923 1462.72 921.049 1459.1 917.618C1457.46 916.118 1456.22 914.24 1455.5 912.153C1455.29 911.552 1455.05 910.961 1454.79 910.281C1452.78 913.071 1453.31 919.179 1455.28 923.082C1457.53 927.534 1462.05 928.689 1465.98 930.846C1463.61 931.559 1461.06 931.392 1458.81 930.377C1456.03 929.148 1453.63 929.538 1450.99 930.73C1439.11 936.084 1429.35 943.843 1422.4 954.772C1419.6 959.212 1418.09 964.321 1418.05 969.541C1418 971.899 1418.95 973.972 1419.89 976.045C1420.03 976.351 1420.46 976.525 1420.96 976.936C1421.12 976.351 1421.35 975.976 1421.28 975.66C1419.72 968.37 1422.77 962.309 1427.2 957.061C1435.58 947.187 1445.95 940.008 1458.81 936.643C1467 934.502 1475.25 933.109 1483.79 933.252C1497.35 933.489 1510.93 933.441 1524.49 933.473C1558.34 933.558 1592.18 933.617 1626.02 933.652C1630.09 933.637 1634.1 934.539 1637.75 936.29C1644.8 939.563 1651.18 944.067 1656.58 949.582C1660.35 953.482 1663.17 958.171 1664.82 963.296C1666.41 968.043 1664.38 971.777 1659.53 973.407C1659.28 973.543 1659.04 973.697 1658.81 973.866Z" fill="#1E182A"/>
<path d="M1438.19 924.375C1436.77 924.175 1435.33 924.066 1433.89 924.048C1430.66 924.195 1427.46 924.39 1424.28 924.807C1422.89 924.992 1421.9 924.807 1420.99 923.752C1417.36 919.717 1415.7 915.07 1416.34 909.685C1416.41 909.057 1416.53 908.434 1416.64 907.68C1416.25 907.812 1415.92 907.823 1415.82 907.97C1411.23 915.223 1410.44 922.027 1415.43 930.092C1416.26 931.432 1417.59 932.513 1418.87 933.531C1420.42 934.781 1420.67 934.75 1422.29 933.489C1426.19 930.484 1430.49 928.02 1435.07 926.168C1436.12 925.735 1437.19 925.366 1438.25 924.971C1438.24 924.786 1438.23 924.58 1438.19 924.375Z" fill="#1E182A"/>
<path d="M1776.29 865.434C1778.65 863.502 1780.03 861.108 1778.93 857.756C1778.76 857.986 1778.61 858.229 1778.47 858.482C1776.84 863.33 1773.11 865.353 1768.36 863.771C1763.24 862.119 1758.55 859.3 1754.65 855.528C1749.13 850.125 1744.63 843.744 1741.35 836.695C1739.6 833.045 1738.7 829.033 1738.72 824.97C1738.68 791.129 1738.62 757.285 1738.54 723.44C1738.51 709.875 1738.55 696.299 1738.32 682.734C1738.17 674.194 1739.57 665.951 1741.71 657.761C1745.07 644.896 1752.25 634.527 1762.13 626.149C1767.37 621.721 1773.43 618.67 1780.72 620.23C1781.04 620.295 1781.41 620.069 1782 619.913C1781.59 619.407 1781.41 618.977 1781.11 618.837L1781.11 618.837C1779.04 617.895 1776.96 616.953 1774.6 617.002C1769.38 617.041 1764.28 618.543 1759.84 621.344C1748.91 628.302 1741.15 638.057 1735.79 649.938C1734.6 652.574 1734.21 654.98 1735.44 657.761C1736.46 660.011 1736.62 662.562 1735.91 664.929C1733.75 661.001 1732.6 656.481 1728.15 654.232C1724.24 652.257 1718.13 651.73 1715.34 653.742C1716.02 654 1716.62 654.242 1717.22 654.447C1719.3 655.166 1721.18 656.405 1722.68 658.052C1726.11 661.664 1728.06 666.475 1728.14 671.504C1728.17 673.409 1728.1 675.308 1728.1 677.213C1728.24 706.668 1728.35 736.128 1728.57 765.582C1728.62 772.631 1727.91 779.626 1727.33 786.621C1726.82 792.314 1725.61 797.918 1723.73 803.302C1721.58 809.64 1717.85 815.032 1713.67 820.165C1710.58 824.06 1706.22 826.695 1701.39 827.591C1700.8 827.709 1700.21 827.854 1699.62 827.984C1699.8 828.25 1700.04 828.475 1700.31 828.645C1700.58 828.816 1700.89 828.927 1701.2 828.974C1708.61 829.722 1715.45 828.43 1721.04 822.953C1725.6 818.465 1729.88 813.719 1733.1 808.091C1733.44 807.591 1733.8 807.117 1734.2 806.67C1734.34 806.735 1734.49 806.805 1734.64 806.869C1734.48 807.811 1734.47 808.823 1734.11 809.683C1732.97 812.498 1731.92 815.414 1730.33 817.981C1728.82 820.417 1728.06 823.261 1728.15 826.143C1728.63 841.5 1727.29 836.695 1727.29 851.654L1733.1 844.5C1734.24 846.077 1733.63 845.304 1734.47 846.381C1739.31 852.698 1745.18 857.912 1751.62 862.432C1754.41 864.414 1757.39 866.103 1760.51 867.473C1766.06 869.873 1771.47 869.427 1776.29 865.434Z" fill="#1E182A"/>
<path d="M1658.81 4.06989C1662.16 2.96748 1664.55 4.35474 1666.49 6.70724C1670.48 11.5336 1670.93 16.94 1668.53 22.489C1667.15 25.6125 1665.47 28.592 1663.48 31.382C1658.96 37.8224 1653.75 43.6875 1647.43 48.5297C1646.36 49.3683 1645.2 50.112 1643.62 51.2513C1644.22 51.307 1644.81 51.307 1645.4 51.2513C1648.39 50.5592 1651.2 49.2562 1653.64 47.4273C1654.36 46.8998 1655.13 46.3724 1655.84 45.8449C1656.76 45.1118 1657.66 45.1117 1658.82 45.4229C1671.79 48.8779 1682.92 55.5924 1693.03 64.0318C1698.83 68.8687 1704.33 74.0115 1710.09 78.9222C1715.15 83.258 1720.39 87.425 1726.92 89.4716C1732.06 91.0803 1737.38 92.0087 1742.8 91.054C1751.07 89.6034 1757.28 83.0576 1758.83 74.7816C1760.59 65.2872 1754.85 57.85 1748.82 54.7696C1746.36 53.5089 1743.65 52.3274 1740.93 52.0214C1736.14 51.494 1732.21 52.5489 1729.6 57.1432C1725.51 64.38 1727.75 71.2846 1735.41 74.9294C1735.7 75.0665 1735.95 75.23 1736.31 75.4251C1734.48 75.9526 1733.39 75.9526 1731.72 74.7816C1729.89 73.5386 1728.24 72.0629 1726.81 70.3931C1724.2 67.3173 1722.65 63.516 1722.37 59.5273C1722.18 56.5828 1723.14 53.6783 1725.06 51.4043C1728.58 46.9209 1733.3 44.7215 1739.01 44.6371C1750.72 44.4683 1762.68 51.552 1767.23 63.2881C1769.14 68.1578 1769.66 73.4492 1768.71 78.5847C1768.02 82.4932 1766.96 86.1749 1764.83 89.5191C1760.94 95.6219 1755.54 99.9207 1748.33 101.466C1743.58 102.489 1738.68 102.838 1733.85 103.513C1732.13 103.699 1730.42 103.984 1728.73 104.367C1726.36 104.969 1724.25 106.066 1722.87 108.181C1722.49 108.667 1722.07 109.13 1721.63 109.568C1720.6 107.252 1720.41 104.974 1719.45 102.991C1718.49 101.007 1717.3 99.0715 1715.99 96.7506C1720.03 98.333 1723.68 100.058 1727.93 99.7361C1726.27 99.0557 1724.57 98.4438 1722.94 97.679C1721.24 96.872 1719.56 95.9647 1717.94 95.01C1716.31 94.0552 1714.86 93.1005 1713.39 92.0509C1711.91 91.0012 1710.4 89.7458 1708.89 88.6118C1707.37 87.4777 1706.43 85.8321 1704.07 84.967C1704.44 86.1011 1704.53 86.8976 1704.92 87.52C1709.45 94.9045 1709.82 102.885 1708.24 111.05C1707.09 116.9 1705.1 122.507 1701.51 127.402C1697.69 132.618 1692.66 135.952 1685.88 135.894C1680.62 135.87 1675.5 134.274 1671.19 131.321C1669.31 130.044 1667.47 128.683 1666.17 126.679C1666.9 127.133 1667.62 127.586 1668.33 128.029C1672.76 130.756 1677.51 132.065 1682.76 131.089C1685.69 130.506 1688.38 129.06 1690.45 126.943C1693.73 123.778 1694.95 119.975 1695.29 115.602C1696.26 104.125 1694.97 92.9634 1689.59 82.6884C1684.2 72.4133 1676.33 64.3219 1665.53 59.2741C1661.46 57.3752 1657.13 56.4469 1652.71 55.7084C1644.23 54.2895 1635.7 54.8012 1627.2 54.8486C1624.31 54.9395 1621.47 54.1786 1619.03 52.6649C1616.47 51.0825 1613.55 50.0277 1610.74 48.8883C1609.87 48.5297 1608.86 48.5244 1607.92 48.3609C1607.86 48.5086 1607.79 48.6563 1607.72 48.7987C1608.17 49.197 1608.64 49.5635 1609.14 49.8957C1614.77 53.1238 1619.52 57.3963 1624 61.9641C1629.48 67.55 1630.77 74.3861 1630.03 81.797C1629.98 82.113 1629.87 82.4163 1629.7 82.6884C1629.53 82.9605 1629.3 83.1957 1629.04 83.3794C1628.91 82.7886 1628.76 82.2031 1628.64 81.6123C1627.75 76.7783 1625.11 72.4196 1621.22 69.3276C1616.08 65.1448 1610.69 61.4156 1604.35 59.2688C1598.97 57.3878 1593.37 56.1792 1587.67 55.6715C1580.68 55.0913 1573.68 54.3792 1566.63 54.432C1537.18 54.6535 1507.72 54.759 1478.26 54.8961C1476.36 54.8961 1474.46 54.8276 1472.56 54.8645C1467.53 54.9364 1462.72 56.8871 1459.1 60.3185C1457.46 61.8177 1456.22 63.696 1455.5 65.7831C1455.29 66.3844 1455.05 66.9751 1454.79 67.6555C1452.78 64.8652 1453.31 58.7572 1455.28 54.8539C1457.53 50.4021 1462.05 49.2471 1465.98 47.0897C1463.61 46.3775 1461.06 46.5446 1458.81 47.5592C1456.03 48.7882 1453.63 48.3978 1450.99 47.2057C1439.11 41.852 1429.35 34.0932 1422.4 23.1641C1419.6 18.7242 1418.09 13.6152 1418.05 8.39511C1418.01 6.03735 1418.95 3.9644 1419.89 1.89145C1420.03 1.58553 1420.46 1.41142 1420.96 1C1421.12 1.58549 1421.35 1.96001 1421.28 2.27649C1419.72 9.56608 1422.77 15.6267 1427.2 20.875C1435.58 30.7491 1445.95 37.9278 1458.81 41.293C1467 43.4345 1475.25 44.827 1483.79 44.6846C1497.35 44.4472 1510.93 44.4947 1524.49 44.463C1558.34 44.3786 1592.18 44.3189 1626.02 44.2837C1630.09 44.2991 1634.1 43.3968 1637.75 41.6464C1644.8 38.3728 1651.18 33.8688 1656.58 28.3544C1660.35 24.454 1663.17 19.7647 1664.82 14.6403C1666.41 9.89312 1664.38 6.15866 1659.53 4.52878C1659.28 4.39301 1659.04 4.23965 1658.81 4.06989Z" fill="#1E182A"/>
<path d="M1438.19 53.5616C1436.77 53.7607 1435.33 53.87 1433.89 53.8886C1430.66 53.741 1427.46 53.5458 1424.28 53.1291C1422.89 52.9444 1421.9 53.1291 1420.99 54.184C1417.36 58.2191 1415.7 62.8661 1416.34 68.2516C1416.41 68.8792 1416.53 69.5017 1416.64 70.256C1416.25 70.1241 1415.92 70.1135 1415.82 69.9658C1411.23 62.7132 1410.44 55.909 1415.43 47.844C1416.26 46.5043 1417.59 45.423 1418.87 44.405C1420.42 43.1549 1420.67 43.1865 1422.29 44.4471C1426.19 47.4525 1430.49 49.916 1435.07 51.7682C1436.12 52.2007 1437.19 52.57 1438.25 52.9656C1438.24 53.1502 1438.23 53.3559 1438.19 53.5616Z" fill="#1E182A"/>
<path d="M1776.29 112.502C1778.65 114.434 1780.03 116.828 1778.93 120.18C1778.76 119.95 1778.61 119.707 1778.47 119.454C1776.84 114.606 1773.11 112.583 1768.36 114.165C1763.24 115.818 1758.55 118.636 1754.65 122.408C1749.13 127.811 1744.63 134.192 1741.35 141.241C1739.6 144.891 1738.7 148.903 1738.72 152.966C1738.68 186.808 1738.62 220.651 1738.54 254.496C1738.51 268.061 1738.55 281.637 1738.32 295.202C1738.17 303.742 1739.57 311.985 1741.71 320.175C1745.07 333.04 1752.25 343.409 1762.13 351.787C1767.37 356.215 1773.43 359.266 1780.72 357.706C1781.04 357.641 1781.41 357.867 1782 358.023C1781.59 358.529 1781.41 358.96 1781.11 359.099L1781.11 359.1C1779.04 360.041 1776.96 360.983 1774.6 360.934C1769.38 360.895 1764.28 359.393 1759.84 356.592C1748.91 349.635 1741.15 339.879 1735.79 327.998C1734.6 325.362 1734.21 322.957 1735.44 320.175C1736.46 317.926 1736.62 315.374 1735.91 313.007C1733.75 316.935 1732.6 321.455 1728.15 323.704C1724.24 325.679 1718.13 326.207 1715.34 324.194C1716.02 323.936 1716.62 323.694 1717.22 323.489C1719.3 322.77 1721.18 321.531 1722.68 319.884C1726.11 316.273 1728.06 311.461 1728.14 306.432C1728.17 304.527 1728.1 302.628 1728.1 300.723C1728.24 271.268 1728.35 241.808 1728.57 212.354C1728.62 205.305 1727.91 198.31 1727.33 191.315C1726.82 185.623 1725.61 180.018 1723.73 174.634C1721.58 168.296 1717.85 162.904 1713.67 157.771C1710.58 153.876 1706.22 151.241 1701.39 150.345C1700.8 150.227 1700.21 150.082 1699.62 149.953C1699.8 149.686 1700.04 149.461 1700.31 149.291C1700.58 149.12 1700.89 149.009 1701.2 148.962C1708.61 148.215 1715.45 149.506 1721.04 154.984C1725.6 159.471 1729.88 164.217 1733.1 169.845C1733.44 170.345 1733.8 170.82 1734.2 171.266C1734.34 171.201 1734.49 171.131 1734.64 171.067C1734.48 170.125 1734.47 169.114 1734.11 168.253C1732.97 165.439 1731.92 162.522 1730.33 159.955C1728.82 157.519 1728.06 154.675 1728.15 151.793C1728.63 136.436 1727.29 141.241 1727.29 126.282L1733.1 133.436C1734.24 131.86 1733.63 132.632 1734.47 131.556C1739.31 125.238 1745.18 120.024 1751.62 115.505C1754.41 113.522 1757.39 111.833 1760.51 110.463C1766.06 108.063 1771.47 108.509 1776.29 112.502Z" fill="#1E182A"/>
</g>
<defs>
<filter id="filter0_i_326_84" x="0" y="0" width="401" height="980" filterUnits="userSpaceOnUse" color-interpolation-filters="sRGB">
<feFlood flood-opacity="0" result="BackgroundImageFix"/>
<feBlend mode="normal" in="SourceGraphic" in2="BackgroundImageFix" result="shape"/>
<feColorMatrix in="SourceAlpha" type="matrix" values="0 0 0 0 0 0 0 0 0 0 0 0 0 0 0 0 0 0 127 0" result="hardAlpha"/>
<feOffset dy="3"/>
<feGaussianBlur stdDeviation="1.5"/>
<feComposite in2="hardAlpha" operator="arithmetic" k2="-1" k3="1"/>
<feColorMatrix type="matrix" values="0 0 0 0 0 0 0 0 0 0 0 0 0 0 0 0 0 0 0.4 0"/>
<feBlend mode="normal" in2="shape" result="effect1_innerShadow_326_84"/>
</filter>
<filter id="filter1_i_326_84" x="1375" y="0" width="401" height="980" filterUnits="userSpaceOnUse" color-interpolation-filters="sRGB">
<feFlood flood-opacity="0" result="BackgroundImageFix"/>
<feBlend mode="normal" in="SourceGraphic" in2="BackgroundImageFix" result="shape"/>
<feColorMatrix in="SourceAlpha" type="matrix" values="0 0 0 0 0 0 0 0 0 0 0 0 0 0 0 0 0 0 127 0" result="hardAlpha"/>
<feOffset dy="3"/>
<feGaussianBlur stdDeviation="1.5"/>
<feComposite in2="hardAlpha" operator="arithmetic" k2="-1" k3="1"/>
<feColorMatrix type="matrix" values="0 0 0 0 0 0 0 0 0 0 0 0 0 0 0 0 0 0 0.4 0"/>
<feBlend mode="normal" in2="shape" result="effect1_innerShadow_326_84"/>
</filter>
<clipPath id="clip0_326_84">
<rect width="401" height="977" fill="white" transform="matrix(-1 0 0 1 1776 0)"/>
</clipPath>
</defs>
</svg>
