<svg width="387" height="259" viewBox="0 0 387 259" fill="none" xmlns="http://www.w3.org/2000/svg">
<path d="M246.807 255.867C250.16 256.969 252.554 255.582 254.486 253.229C258.478 248.403 258.925 242.997 256.525 237.448C255.155 234.324 253.466 231.345 251.483 228.555C246.963 222.114 241.749 216.249 235.432 211.407C234.356 210.568 233.199 209.824 231.623 208.685C232.215 208.629 232.811 208.629 233.404 208.685C236.394 209.377 239.201 210.68 241.642 212.509C242.363 213.037 243.127 213.564 243.837 214.091C244.763 214.825 245.661 214.825 246.823 214.513C259.791 211.059 270.924 204.344 281.035 195.904C286.83 191.068 292.334 185.925 298.087 181.014C303.15 176.678 308.391 172.511 314.918 170.465C320.062 168.856 325.383 167.928 330.797 168.882C339.067 170.333 345.282 176.879 346.826 185.155C348.591 194.649 342.855 202.086 336.823 205.167C334.364 206.427 331.647 207.609 328.935 207.915C324.14 208.442 320.207 207.387 317.603 202.793C313.513 195.556 315.746 188.652 323.414 185.007C323.699 184.87 323.952 184.706 324.313 184.511C322.483 183.984 321.391 183.984 319.723 185.155C317.894 186.398 316.242 187.873 314.81 189.543C312.204 192.619 310.651 196.42 310.371 200.409C310.182 203.353 311.144 206.258 313.061 208.532C316.575 213.015 321.299 215.215 327.008 215.299C338.717 215.468 350.684 208.384 355.231 196.648C357.144 191.778 357.656 186.487 356.711 181.352C356.022 177.443 354.962 173.761 352.831 170.417C348.935 164.314 343.544 160.016 336.328 158.47C331.577 157.447 326.68 157.099 321.854 156.424C320.129 156.237 318.416 155.952 316.726 155.569C314.363 154.968 312.254 153.871 310.871 151.755C310.487 151.269 310.074 150.806 309.634 150.368C308.601 152.684 308.407 154.962 307.449 156.946C306.491 158.929 305.297 160.865 303.995 163.186C308.03 161.603 311.678 159.878 315.935 160.2C314.267 160.881 312.566 161.492 310.941 162.257C309.236 163.064 307.562 163.972 305.937 164.926C304.312 165.881 302.859 166.836 301.385 167.885C299.911 168.935 298.399 170.19 296.887 171.324C295.375 172.459 294.428 174.104 292.071 174.969C292.437 173.835 292.534 173.039 292.921 172.416C297.452 165.032 297.823 157.051 296.236 148.886C295.095 143.036 293.104 137.429 289.515 132.535C285.689 127.318 280.663 123.984 273.878 124.042C268.623 124.067 263.5 125.662 259.194 128.615C257.305 129.892 255.47 131.253 254.174 133.257C254.9 132.804 255.621 132.35 256.326 131.907C260.76 129.18 265.511 127.872 270.757 128.848C273.693 129.43 276.377 130.876 278.452 132.993C281.734 136.158 282.95 139.961 283.295 144.334C284.263 155.812 282.966 166.973 277.586 177.248C272.205 187.523 264.333 195.614 253.528 200.662C249.46 202.561 245.134 203.489 240.705 204.228C232.225 205.647 223.702 205.135 215.195 205.088C212.312 204.997 209.468 205.758 207.032 207.271C204.466 208.854 201.549 209.909 198.735 211.048C197.874 211.407 196.863 211.412 195.921 211.575C195.856 211.428 195.786 211.28 195.722 211.138C196.168 210.739 196.643 210.373 197.142 210.041C202.771 206.812 207.517 202.54 212.004 197.972C217.482 192.386 218.773 185.55 218.025 178.139C217.979 177.823 217.867 177.52 217.697 177.248C217.527 176.976 217.302 176.741 217.035 176.557C216.906 177.148 216.761 177.733 216.642 178.324C215.747 183.158 213.112 187.517 209.217 190.609C204.084 194.791 198.692 198.521 192.353 200.667C186.969 202.548 181.365 203.757 175.673 204.265C168.678 204.845 161.683 205.557 154.634 205.504C125.179 205.283 95.7194 205.177 66.2648 205.04C64.36 205.04 62.4605 205.109 60.5557 205.072C55.5267 205 50.7153 203.049 47.1037 199.618C45.4571 198.119 44.2179 196.24 43.4985 194.153C43.2941 193.552 43.0519 192.961 42.7936 192.281C40.7812 195.071 41.3086 201.179 43.2833 205.082C45.5325 209.534 50.0524 210.689 53.9804 212.847C51.6137 213.559 49.0622 213.392 46.8131 212.377C44.0313 211.148 41.626 211.539 38.9894 212.731C27.1086 218.084 17.3532 225.843 10.3958 236.773C7.59507 241.212 6.09293 246.322 6.05344 251.542C6.00501 253.899 6.94666 255.972 7.88831 258.045C8.0282 258.351 8.45865 258.525 8.96445 258.937C9.12049 258.351 9.3465 257.977 9.28196 257.66C7.7215 250.371 10.7724 244.31 15.2008 239.062C23.5788 229.188 33.9476 222.009 46.8131 218.643C55.0028 216.502 63.2461 215.109 71.7855 215.252C85.3505 215.489 98.9264 215.442 112.491 215.473C146.337 215.558 180.18 215.618 214.022 215.653C218.085 215.637 222.097 216.54 225.747 218.29C232.795 221.564 239.177 226.068 244.58 231.582C248.352 235.483 251.17 240.172 252.823 245.296C254.405 250.044 252.382 253.778 247.534 255.408C247.281 255.544 247.038 255.697 246.807 255.867Z" fill="#322942" fill-opacity="0.4"/>
<path d="M373.09 228.686H264.596C265.672 230.385 266.34 231.756 267.33 232.838C267.749 233.297 268.853 233.265 269.649 233.265C280.981 233.297 292.315 233.307 303.65 233.297H374.381C376.991 233.297 377.104 233.191 377.109 230.49C377.174 194.313 377.237 158.138 377.298 121.964C377.324 99.4941 377.254 77.0293 377.298 54.5592C377.298 48.4828 377.464 42.3958 377.836 36.3299C378.109 31.779 379.106 27.2978 380.79 23.0484C380.987 22.4945 380.973 21.8896 380.752 21.3446C380.298 21.77 379.884 22.2343 379.514 22.7318C378.18 24.8786 376.824 27.0202 375.613 29.225C373.789 32.5032 372.863 36.1885 372.923 39.922C373.041 101.727 373.095 163.532 373.084 225.337L373.09 228.686Z" fill="#322942" fill-opacity="0.4"/>
<path d="M386.24 0.831543C384.233 1.20604 382.205 1.47501 380.23 1.97082C377.19 2.73565 374.155 3.55321 371.174 4.52902C364.502 6.69164 359.761 10.9536 356.323 17.0089C352.809 23.2014 351.54 29.6998 351.803 36.636C351.891 37.7262 351.744 38.8223 351.373 39.8535C351.055 39.4632 350.711 39.0834 350.431 38.672C347.505 34.1924 343.092 30.8391 337.937 29.1776C333.664 27.7693 329.661 28.5552 325.217 30.4013C325.601 30.5278 325.998 30.6161 326.4 30.665C330.452 30.3907 334.057 31.6408 337.404 33.7612C340.098 35.5077 342.443 37.7226 344.324 40.2966C347.124 44.0251 349.293 48.1714 350.749 52.576C351.17 53.9723 351.368 55.4243 351.335 56.8801C351.292 69.6078 351.184 82.3356 351.098 95.0634C351.098 98.6343 351.007 102.2 351.098 105.766C351.098 106.763 351.335 108.007 351.965 108.683C354.117 110.998 356.511 113.113 358.884 115.376C359.702 114.548 359.369 113.53 359.369 112.633C359.39 99.3342 359.39 86.0367 359.369 72.741C359.369 63.9798 359.412 55.2238 359.266 46.4679C359.153 39.8429 360.235 33.3656 361.602 26.9516C363.291 18.9974 367.827 12.6678 374.586 8.03669C377.884 5.77386 381.581 4.04909 385.089 2.08692C385.503 1.85483 385.945 1.65962 386.375 1.44336L386.24 0.831543Z" fill="#322942" fill-opacity="0.4"/>
<path d="M225.612 234.067C224.165 230.411 222.427 229.198 218.908 229.198C165.896 229.198 112.906 229.267 59.8724 229.103C52.9957 229.103 47.2006 231.081 42.1157 235.248C38.8872 237.885 35.9493 240.882 32.936 243.772C32.285 244.394 31.4617 245.075 31.72 246.626L33.8723 245.249C37.6389 242.881 41.2978 240.402 45.129 238.17C48.5271 236.277 52.3312 235.193 56.235 235.006C61.6158 234.631 66.9966 234.278 72.3344 234.272C122.121 234.22 171.91 234.207 221.7 234.235C222.954 234.23 224.208 234.125 225.612 234.067Z" fill="#322942" fill-opacity="0.4"/>
<path d="M350.555 144.925C346.358 144.819 342.667 144.682 338.577 146.085C340.794 147.066 342.591 147.763 344.297 148.643C346.052 149.548 347.752 150.551 349.387 151.65C351.001 152.752 352.562 153.992 354.09 155.231C355.618 156.471 357.044 157.758 358.825 159.288C358.998 158.566 359.119 157.832 359.186 157.093C359.186 147.847 359.186 138.6 359.186 129.359C359.205 127.803 358.7 126.285 357.749 125.039C356.377 123.22 354.935 121.442 353.407 119.765C351.254 117.402 349.043 115.107 346.804 112.828C344.2 110.191 343.097 106.952 342.753 103.387C342.645 102.274 342.505 101.166 342.376 100.053L341.838 99.9741C341.58 100.681 341.268 101.372 341.074 102.084C340.078 105.776 340.934 109.331 342.15 112.813C343.488 116.483 345.417 119.92 347.864 122.993C349.516 125.103 350.969 127.392 352.476 129.618C352.949 130.306 353.234 131.101 353.304 131.928C352.987 131.759 352.685 131.565 352.4 131.348C346.449 126.105 339.325 125.045 331.754 125.983C324.496 126.885 318.216 130.04 312.679 134.666C312.251 135.07 311.852 135.504 311.485 135.963L311.781 136.491C312.367 136.445 312.945 136.328 313.503 136.142C320.632 132.761 328.111 132.682 335.564 134.37C340.937 135.603 345.73 138.577 349.167 142.81C349.581 143.29 349.866 143.865 350.555 144.925Z" fill="#322942" fill-opacity="0.4"/>
<path d="M26.1939 206.375C24.7676 206.176 23.3297 206.066 21.8892 206.048C18.6607 206.195 15.4645 206.39 12.2845 206.807C10.8854 206.992 9.90075 206.807 8.9914 205.752C5.35934 201.717 3.69666 197.07 4.33698 191.685C4.41231 191.057 4.52531 190.435 4.64369 189.68C4.24551 189.812 3.91726 189.823 3.82041 189.97C-0.774811 197.223 -1.56039 204.027 3.433 212.092C4.26165 213.432 5.58533 214.513 6.86597 215.531C8.42102 216.782 8.67391 216.75 10.2882 215.489C14.1859 212.484 18.4881 210.02 23.073 208.168C24.1169 207.736 25.1876 207.366 26.2476 206.971C26.2369 206.786 26.2315 206.58 26.1939 206.375Z" fill="#322942" fill-opacity="0.4"/>
</svg>
