<svg width="338" height="33" viewBox="0 0 338 33" fill="none" xmlns="http://www.w3.org/2000/svg">
<path d="M316.958 0.573304H327.456C332.727 0.573304 337 5.71066 337 10.8909V25.7684C337 31.6689 329.075 33.7946 326.025 28.7121C329.302 30.2396 333.12 27.8947 331.688 23.2049M316.958 0.573304C324.601 0.573304 330.797 7.60039 330.797 15.1117C330.797 22.623 324.601 28.7121 316.958 28.7121H316.354C309.261 28.7121 308.306 20.86 314.302 18.9841C313.555 19.4531 312.601 20.3911 313.078 22.1464C313.331 23.1382 314.302 24.1429 315.941 24.1429M316.958 0.573304C101.822 0.573867 236.178 0.573354 21.0417 0.573354M308.783 4.32515H315.814C322.631 4.32515 327.113 9.04434 326.189 15.1618C325.561 19.3238 321.59 22.1464 317.309 22.1464C320.236 20.86 323.099 15.2323 318.327 11.9494C317.525 11.5256 316.057 10.8147 314.302 10.9843M310.559 6.79061C311.169 13.3563 308.306 14.2943 305.443 15.1117C306.875 6.79061 300.671 4.32515 297.808 4.32515L40.1919 4.3252C37.3288 4.3252 31.1254 6.79066 32.557 15.1117C29.6939 14.2944 26.8308 13.3564 27.4412 6.79067M21.0417 0.573354H10.5437C5.27287 0.573354 1 5.71071 1 10.8909V25.7684C1 31.6689 8.92543 33.7947 11.9752 28.7122C8.69779 30.2397 4.88032 27.8948 6.31187 23.205M21.0417 0.573354C13.399 0.573354 7.20338 7.60044 7.20338 15.1117C7.20338 22.6231 13.399 28.7122 21.0417 28.7122H21.6456C28.7395 28.7122 29.6939 20.8601 23.6976 18.9842C24.4448 19.4531 25.3992 20.3911 24.922 22.1465C24.6693 23.1382 23.6976 24.1429 22.0589 24.1429M29.2167 4.3252H22.1856C15.369 4.3252 10.8875 9.04439 11.8105 15.1618C12.4385 19.3238 16.4101 22.1465 20.6912 22.1465C17.7643 20.8601 14.9012 15.2323 19.673 11.9494C20.4751 11.5257 21.9433 10.8147 23.6976 10.9843" stroke="white" stroke-linecap="round"/>
</svg>
